<mxfile host="app.diagrams.net" agent="Mozilla/5.0 (Windows NT 10.0; Win64; x64) AppleWebKit/537.36 (KHTML, like Gecko) Chrome/126.0.0.0 Safari/537.36" version="24.7.5">
  <diagram name="第 1 页" id="KomonCqQ-Vwf_KKOxvp3">
    <mxGraphModel dx="1147" dy="737" grid="1" gridSize="10" guides="1" tooltips="1" connect="1" arrows="1" fold="1" page="1" pageScale="1" pageWidth="827" pageHeight="1169" math="0" shadow="0">
      <root>
        <mxCell id="0" />
        <mxCell id="1" parent="0" />
        <mxCell id="493oTweiqtYjREhy8k81-1" value="Sass发送删除人脸分析请求" style="strokeWidth=2;html=1;shape=mxgraph.flowchart.terminator;whiteSpace=wrap;fillColor=#d5e8d4;strokeColor=#82b366;" vertex="1" parent="1">
          <mxGeometry x="260" y="78" width="120" height="60" as="geometry" />
        </mxCell>
        <mxCell id="493oTweiqtYjREhy8k81-2" value="" style="shape=image;verticalLabelPosition=bottom;labelBackgroundColor=default;verticalAlign=top;aspect=fixed;imageAspect=0;image=data:image/png,iVBORw0KGgoAAAANSUhEUgAAB64AAAC6CAYAAAAecGPgAAAAAXNSR0IArs4c6QAAIABJREFUeAHsvWmQXMWZ733feO8bcb/dL/fD/eAvMxMznsHhGc94bI83zNgY22CzChmD2QwGDIgdARJiEUhiERZilcUqIbSvSEKgfQMtaF8QQmjpbrW6tXRLvXdpxpFv/LOVpazTeU4tfbqrpf51RMU5Vefk9uSvqk/mP58n/8f/4A8LYAEsgAWwABbAAlgAC2ABLIAFsAAWwAJYAAtgASyABbAAFsACWAALYAEsgAWwQLktYGL+/vrXv5r/+q//sq+TJ08aXtgABmAABmAABmAABmAABmAABmAABmAABmAABmAABmAABmAABmAABmAABmCgWAac7iwNOvRnNfPoBSdYF1sY9wMoDMAADMAADMAADMAADMAADMAADMAADMAADMAADMAADMAADMAADMAADMBAEgMSsaMCdifh+r//+7/xrMa7HAZgAAZgAAZgAAZgAAZgAAZgAAZgAAZgAAZgAAZgAAZgAAZgAAZgAAZgoFsZkDbt/nKEa0RrVj4krXzgGnzAAAzAAAzAAAzAAAzAAAzAAAzAAAzAAAzAAAzAAAzAAAzAAAzAAAykyYATr7PCtVyx0yyAvAAWBmAABmAABmAABmAABmAABmAABmAABmAABmAABmAABmAABmAABmAABmAgHwPSqrPCteKI50vAdaCCARiAARiAARiAARiAARiAARiAARiAARiAARiAARiAARiAARiAARiAARhIkwFp1Va4xtsasNIEi7zgCQZgAAZgAAZgAAZgAAZgAAZgAAZgAAZgAAZgAAZgAAZgAAZgAAZgoBgGrHCNtzXQFAMN98ILDMAADMAADMAADMAADMAADMAADMAADMAADMAADMAADMAADMAADMBAmgwgXJ8EqDSBIi94ggEYgAEYgAEYgAEYgAEYgAEYgAEYgAEYgAEYgAEYgAEYgAEYgAEYKJYBK1wXm4j7AQ0GYAAGYAAGYAAGYAAGYAAGYAAGYAAGYAAGYAAGYAAGYAAGYAAGYAAGYCAtBhCu8bg2acFEPvwwwQAMwAAMwAAMwAAMwAAMwAAMwAAMwAAMwAAMwAAMwAAMwAAMwAAMlMIAwjXCNcI1DMAADMAADMAADMAADMAADMAADMAADMAADMAADMAADMAADMAADMAADJSVAYRrACwrgKWstiANq3RgAAZgAAZgAAZgAAZgAAZgAAZgAAZgAAZgAAZgAAZgAAZgAAZg4OxiAOEa4RrhGgZgAAZgAAZgAAZgAAZgAAZgAAZgAAZgAAZgAAZgAAZgAAZgAAZgAAbKygDCNQCWFUBWwpxdK2HoT/oTBmAABmAABmAABmAABmAABmAABmAABmAABmAABmAABmAABmCgFAYQrhGuEa5hAAZgAAZgAAZgAAZgAAZgAAZgAAZgAAZgAAZgAAZgAAZgAAZgAAZgoKwMIFwDYFkBLGW1BWlYpQMDMAADMAADMAADMAADMAADMAADMAADMAADMAADMAADMAADMAADZxcDCNcI1wjXMAADMAADMAADMAADMAADMAADMAADMAADMAADMAADMAADMAADMAADMFBWBhCuAbCsALIS5uxaCUN/0p8wAAMwAAMwAAMwAAMwAAMwAAMwAAMwAAMwAAMwAAMwAAMwAAOlMIBwjXCNcA0DMAADMAADMAADMAADMAADMAADMAADMAADMAADMAADMAADMAADMAADZWUA4RoAywpgKastSMMqHRiAARiAARiAARiAARiAARiAARiAARiAARiAARiAARiAARiAARg4uxhAuEa4RriGARiAARiAARiAARiAARiAARiAARiAARiAARiAARiAARiAARiAARiAgbIygHANgGUFkJUwZ9dKGPqT/oQBGIABGIABGIABGIABGIABGIABGIABGIABGIABGIABGIABGCiFAYRrhGuEaxiAARiAARiAARiAARiAARiAARiAARiAARiAARiAARiAARiAARiAARgoKwMI1wBYVgBLWW1BGlbpwAAMwAAMwAAMwAAMwAAMwAAMwAAMwAAMwAAMwAAMwAAMwAAMwMDZxQDCNcI1wjUMwAAMwAAMwAAMwAAMwAAMwAAMwAAMwAAMwAAMwAAMwAAMwAAMwAAMlJUBhGsALCuArIQ5u1bC0J/0JwzAAAzAAAzAAAzAAAzAAAzAAAzAAAzAAAzAAAzAAAzAAAzAQCkMIFwjXCNcwwAMwAAMwAAMwAAMwAAMwAAMwAAMwAAMwAAMwAAMwAAMwAAMwAAMwEBZGUC4BsCyAljKagvSsEoHBmAABmAABmAABmAABmAABmAABmAABmAABmAABmAABmAABmAABs4uBhCuEa4RrmEABmAABmAABmAABmAABmAABmAABmAABmAABmAABmAABmAABmAABmCgrAwgXANgWQFkJczZtRKG/qQ/YQAGYAAGYAAGYAAGYAAGYAAGYAAGYAAGYAAGYAAGYAAGYAAGSmGgVwvXmdZW07zhM3N81nRT9+5b9qVzfaZrpTQ4zTSZ9lbTdHC1qd85zhzb9KJ96Vyf6VqaZZWSV0t7q1l56BPz9u4JZuT2l+1L5/pM10rJkzT80MAADMAADMAADMAADMAADMAADMAADMAADMAADMAADMAADMAADMAADKTNQK8UriVMHxn8kDlwwXmmpt/Fpq7/Jeb4FRfZl871ma7pHt2btlHy5ddYtcocXnKz2T/+70319G+bY7O+ZepnnWNfOtdnuqZ7dG++/NK+LmH62tW3ma9N+4Y5Z/4PzD9+/H3ztwu/Y186P2f+983Xpn/D3qN70y6f/PihggEYgAEYgAEYgAEYgAEYgAEYgAEYgAEYgAEYgAEYgAEYgAEYgAEYKIaBXiVct9XWWDG6+tILTWO/X5u/XtfPmOv7B1+6pnt0rwRspS2m4aXc29Zw0IrRVZO/ZRrmnGP+uuibxiz55+BL13SP7pWArbSllFlMmoMN1VaM/voH3zV/s/g75h/WnGu+vu4nwZeu6R7dK5FbaYspi3v5oYEBGIABGIABGIABGIABGIABGIABGIABGIABGIABGIABGIABGIABGEiLgV4jXMtzuurSDq/qOLE67nN5Yyttd3pfy3O6YnKHZ3WcWB33ubyxlbY7va/lOf2Ps79nvarjxOq4z+WNrbR4X/PDktYPC/nAEgzAAAzAAAzAAAzAAAzAAAzAAAzAAAzAAAzAAAzAAAzAAAzAQDEM9ArhWoJzxQXnmZb+Fwe9q+MEa//z5v4d4cO7Q7yW4KzQ383zvhH0ro4TrP3PlVZ5dId4LcFZob//btl/BL2r4wRr//O/W/ofNrQ44jU/IMX8gHAvvMAADMAADMAADMAADMAADMAADMAADMAADMAADMAADMAADMAADKTBQNmFa4X4lrd0V0RrJ2BLvFZeaYYNV4hveUt3RbR2ArbyUF5phg0/2FhtvaW7Ilo7AVvitTyvlWcacJEHP1IwAAMwAAMwAAMwAAMwAAMwAAMwAAMwAAMwAAMwAAMwAAMwAAMwAAOFMFB24Vr7UyvUtxOfu3pUXsqzkMYXco/2p1aobyc+d/WovJRnIWUXcs+1n9xWUnhwJ1ZHjwobrj2vCymbe/iRgQEYgAEYgAEYgAEYgAEYgAEYgAEYgAEYgAEYgAEYgAEYgAEYgAEYSIOBsgrXTZ+tN9WXXpiaaO1Eb+WpvLtqIIX1rpr8rdREayd6K880QoavqF5tvv7Bd0sODx4VrbPvP/iuUd5dtR/p+ZGCARiAARiAARiAARiAARiAARiAARiAARiAARiAARiAARiAARiAARgohIGyCtfyjG7s9+vUhWvlmYbXtTyjG+ak523thGvlmYbXtTyj/2bxd1IXrpUnXtf8gBTyA8I9cAIDMAADMAADMAADMAADMAADMAADMAADMAADMAADMAADMAADMJAGA2UTrjOtrebABeeZv17XL3XhWnlWXHCeURmlGinT3mr2j/9789dF30zd41p5Km+VUWr9Wttbzdemf8P8w5pzUxeulafyVhml1o90/EDBAAzAAAzAAAzAAAzAAAzAAAzAAAzAAAzAAAzAAAzAAAzAAAzAAAwUykDZhOvmDZ+Zmn4Xpy5au3DhyltlFGqI6H1NB1eb6unfTl20dl7XyltlRMst9P3KQ5+Yc+Z/P3XR2oULV94qo9D6cB8/OjAAAzAAAzAAAzAAAzAAAzAAAzAAAzAAAzAAAzAAAzAAAzAAAzAAA6UyUDbh+vis6aau/yXdJlwrb5VRqmHqd44zx2alv7+1E66Vt8ootX5v755g/vHj7hOulbfKKLV+pONHCQZgAAZgAAZgAAZgAAZgAAZgAAZgAAZgAAZgAAZgAAZgAAZgAAZgoFAGyiZc1737ljl+xUXdJlwrb5VRqCGi9x3b9KKpn5X+/tZOuFbeKiNabqHvR25/2fztwvT3t3Ye18pbZRRaH+7jRwcGYAAGYAAGYAAGYAAGYAAGYAAGYAAGYAAGYAAGYAAGYAAGYAAGYKBUBhCuT4bhQbhGuC71S0W68HcKu2AXGIABGIABGIABGIABGIABGIABGIABGIABGIABGIABGIABGICBOAbKJlwTKpxQ4XFQ8jk/WDAAAzAAAzAAAzAAAzAAAzAAAzAAAzAAAzAAAzAAAzAAAzAAAzDQtxgom3DdvOEzU9Pv4m4LFa68VUapQDcdXG2qp3/buNDeaR+Vt8ootX4rD31izpnffXtcK2+VUWr9SNe3fkjob/obBmAABmAABmAABmAABmAABmAABmAABmAABmAABmAABmAABmCgKwyUTbjOtLaaigvOM3+9rl/q4rXyPHDBeUZllGqcTHur2T/+781fF30zdfFaeSpvlVFq/VrbW83Xpn/D/MOac43blzqto/JU3iqj1PqRjh8mGIABGIABGIABGIABGIABGIABGIABGIABGIABGIABGIABGIABGICBQhkom3CtCh4Z/JBp7Pfr1IVr5am8CzVC3H2Hl9xsGuack7pwrTyVd1y5hX5+7erbzN8s/k7qwrXyVN6F1oP7+MGBARiAARiAARiAARiAARiAARiAARiAARiAARiAARiAARiAARiAARjoCgNlFa6bPltvqi+9MHXhWnkq764YRmkbq1aZqsnfSl24Vp7Ku6v1W1G92nz9g++mLlwrT+Xd1fqRnh8nGIABGIABGIABGIABGIABGIABGIABGIABGIABGIABGIABGIABGICBQhgoq3CtCsoz+vgVF6UmXiuvNLytnfHkGV0/Kz2va+WVhre1q588o/92YXpe18rr2k/wtnb25cgPKQzAAAzAAAzAAAzAAAzAAAzAAAzAAAzAAAzAAAzAAAzAAAzAAAx0PwNlF67bamtM1aUXmeb+F3dZvG7pf7HNS3mmBU9bw0FTMflbpnneN7rsea08lJfyTKt+BxurzT/O/p75u6X/0WXP679b9h82L+WZVv3Ip/u/xNgYG8MADMAADMAADMAADMAADMAADMAADMAADMAADMAADMAADMAADJzpDJRduJYBmzd8Zg5ccF6XxGuJ1hXKY8NnqYuuCuu9f/zfd0m8lmitPNIIER6FbuWhT8zXpn2jS+K1ROuvTf+GUV7R/HnPDx0MwAAMwAAMwAAMwAAMwAAMwAAMwAAMwAAMwAAMwAAMwAAMwAAMwEB3MtArhGs1UIKzPK9LCRuuNNZruxtEa2d8Cc7yli4lbLjSKG13iNaufhKc5XldSthwpVFaRGt+bBxPHGEBBmAABmAABmAABmAABmAABmAABmAABmAABmAABmAABmAABmCgJxnoNcK1Gq0Q39qfuvrSC01jv1+bv17XLzZ8uK7pHt2rNGmGB4/rAIX41v7UVZO/ZRrmnGP+uuibseHDdU336F6lSTM8eFz9DjZUG+15/fUPvmv+ZvF3zD+sOTc2fLiu6R7dqzRKG5cvn/OjBAMwAAMwAAMwAAMwAAMwAAMwAAMwAAMwAAMwAAMwAAMwAAMwAAMw0J0M9Crh2jVU3tcSoxU+vKbfxaau/yXWE1ue1TrXZ7qme7ojNLirR9xRntMSoxX6u3r6t82xWR2e2PKs1rk+0zXd051e1nH1k+e0xGiF/j5n/vfNP378feuJbT2rP/6+OWf+D2xocd2DlzU/MHEc8TlswAAMwAAMwAAMwAAMwAAMwAAMwAAMwAAMwAAMwAAMwAAMwAAM9BQDvVK4do3PtLZaYfr4rOmm7t237EvnEqt1zd1XrmOmvdU0HVxt6neOM8c2vWhfOtdnulauerlyW9pbrTD99u4JZuT2l+1L5xKrdc3dx5EfHBiAARiAARiAARiAARiAARiAARiAARiAARiAARiAARiAARiAARiAgXIy0KuF63IahrL5YsIADMAADMAADMAADMAADMAADMAADMAADMAADMAADMAADMAADMAADMBAzzCAcH2yZwwN0NgZBmAABmAABmAABmAABmAABmAABmAABmAABmAABmAABmAABmAABmAABsIMIFwjXBMyHAZgAAZgAAZgAAZgAAZgAAZgAAZgAAZgAAZgAAZgAAZgAAZgAAZgAAbKygDCNQCWFUBWlIRXlGAX7AIDMAADMAADMAADMAADMAADMAADMAADMAADMAADMAADMAADMNCXGEC4RrhGuIYBGIABGIABGIABGIABGIABGIABGIABGIABGIABGIABGIABGIABGICBsjKAcA2AZQWwL60Soa2sioIBGIABGIABGIABGIABGIABGIABGIABGIABGIABGIABGIABGICBMAMI1wjXCNcwAAMwAAMwAAMwAAMwAAMwAAMwAAMwAAMwAAMwAAMwAAMwAAMwAAMwUFYGEK4BsKwAsqIkvKIEu2AXGIABGIABGIABGIABGIABGIABGIABGIABGIABGIABGIABGICBvsQAwjXCNcI1DMAADMAADMAADMAADMAADMAADMAADMAADMAADMAADMAADMAADMAADJSVAYRrACwrgH1plQhtZVUUDMAADMAADMAADMAADMAADMAADMAADMAADMAADMAADMAADMAADIQZQLhGuEa4hgEYgAEYgAEYgAEYgAEYgAEYgAEYgAEYgAEYgAEYgAEYgAEYgAEYgIGyMoBwDYBlBZAVJeEVJdgFu8AADMAADMAADMAADMAADMAADMAADMAADMAADMAADMAADMAADPQlBhCuEa4RrmEABmAABmAABmAABmAABmAABmAABmAABmAABmAABmAABmAABmAABmCgrAwgXANgWQHsS6tEaCuromAABmAABmAABmAABmAABmAABmAABmAABmAABmAABmAABmAABmAgzADCNcI1wjUMwAAMwAAMwAAMwAAMwAAMwAAMwAAMwAAMwAAMwAAMwAAMwAAMwAAMlJUBhGsALCuArCgJryjBLtgFBmAABmAABmAABmAABmAABmAABmAABmAABmAABmAABmAABmCgLzGAcI1wjXANAzAAAzAAAzAAAzAAAzAAAzAAAzAAAzAAAzAAAzAAAzAAAzAAAzAAA2VlAOEaAMsKYF9aJUJbWRUFAzAAAzAAAzAAAzAAAzAAAzAAAzAAAzAAAzAAAzAAAzAAAzAAA2EGEK4RrhGuYQAGYAAGYAAGYAAGYAAGYAAGYAAGYAAGYAAGYAAGYAAGYAAGYAAGYKCsDCBcA2BZAWRFSXhFCXbBLjAAAzAAAzAAAzAAAzAAAzAAAzAAAzAAAzAAAzAAAzAAAzAAA32JAYRrhGuEaxiAARiAARiAARiAARiAARiAARiAARiAARiAARiAARiAARiAARiAARgoKwMI1wBYVgD70ioR2sqqKBiAARiAARiAARiAARiAARiAARiAARiAARiAARiAARiAARiAARgIM4BwjXCNcA0DMAADMAADMAADMAADMAADMAADMAADMAADMAADMAADMAADMAADMAADZWUA4RoAywogK0rCK0qwC3aBARiAARiAARiAARiAARiAARiAARiAARiAARiAARiAARiAARjoSwwgXCNcI1zDAAzAAAzAAAzAAAzAAAzAAAzAAAzAAAzAAAzAAAzAAAzAAAzAAAzAQFkZQLgGwLIC2JdWidBWVkXBAAzAAAzAAAzAAAzAAAzAAAzAAAzAAAzAAAzAAAzAAAzAAAzAQJgBhGuEa4RrGIABGIABGIABGIABGIABGIABGIABGIABGIABGIABGIABGIABGIABGCgrAwjXAFhWAFlREl5Rgl2wCwzAAAzAAAzAAAzAAAzAAAzAAAzAAAzAAAzAAAzAAAzAAAzAQF9iAOEa4RrhGgZgAAZgAAZgAAZgAAZgAAZgAAZgAAZgAAZgAAZgAAZgAAZgAAZgAAbKygDCNQCWFcC+tEqEtrIqCgZgAAZgAAZgAAZgAAZgAAZgAAZgAAZgAAZgAAZgAAZgAAZgAAbCDCBcI1wjXMMADMAADMAADMAADMAADMAADMAADMAADMAADMAADMAADMAADMAADMBAWRlAuAbAsgLIipLwihLsgl1gAAZgAAZgAAZgAAZgAAZgAAZgAAZgAAZgAAZgAAZgAAZgAAb6EgMI1wjXCNcwAAMwAAMwAAMwAAMwAAMwAAMwAAMwAAMwAAMwAAMwAAMwAAMwAAMwUFYGEK4BsKwA9qVVIrSVVVEwAAMwAAMwAAMwAAMwAAMwAAMwAAMwAAMwAAMwAAMwAAMwAAMwEGYA4RrhGuEaBmAABmAABmAABmAABmAABmAABmAABmAABmAABmAABmAABmAABmAABsrKAMI1AJYVQFaUhFeUYBfsAgMwAAMwAAMwAAMwAAMwAAMwAAMwAAMwAAMwAAMwAAMwAAMw0JcYQLhGuEa4hgEYgAEYgAEYgAEYgAEYgAEYgAEYgAEYgAEYgAEYgAEYgAEYgAEYgIGyMoBwDYBlBbAvrRKhrayKggEYgAEYgAEYgAEYgAEYgAEYgAEYgAEYgAEYgAEYgAEYgAEYgIEwAwjXCNcI1zAAAzAAAzAAAzAAAzAAAzAAAzAAAzAAAzAAAzAAAzAAAzAAAzAAAzBQVgYQrgGwrACyoiS8ogS7YBcYgAEYgAEYgAEYgAEYgAEYgAEYgAEYgAEYgAEYgAEYgAEYgIG+xADCNcI1wjUMwAAMwAAMwAAMwAAMwAAMwAAMwAAMwAAMwAAMwAAMwAAMwAAMwAAMlJUBhGsALCuAfWmVCG1lVRQMwAAMwAAMwAAMwAAMwAAMwAAMwAAMwAAMwAAMwAAMwAAMwAAMhBlAuEa4RriGARiAARiAARiAARiAARiAARiAARiAARiAARiAARiAARiAARiAARiAgbIygHANgGUFkBUl4RUl2AW7wAAMwAAMwAAMwAAMwAAMwAAMwAAMwAAMwAAMwAAMwAAMwAAM9CUGEK4RrhGuYQAGYAAGYAAGYAAGYAAGYAAGYAAGYAAGYAAGYAAGYAAGYAAGYAAGYKCsDCBcA2BZAexLq0RoK6uiYAAGYAAGYAAGYAAGYAAGYAAGYAAGYAAGYAAGYAAGYAAGYAAGYCDMAMI1wjXCNQzAAAzAAAzAAAzAAAzAAAzAAAzAAAzAAAzAAAzAAAzAAAzAAAzAAAyUlQGEawAsK4CsKAmvKMEu2AUGYAAGYAAGYAAGYAAGYAAGYAAGYAAGYAAGYAAGYAAGYAAGYKAvMYBwjXCNcA0DMAADMAADMAADMAADMAADMAADMAADMAADMAADMAADMAADMAADMAADZWUA4RoAywpgX1olQltZFQUDMAADMAADMAADMAADMAADMAADMAADMAADMAADMAADMAADMAADYQYQrhGuEa5hAAZgAAZgAAZgAAZgAAZgAAZgAAZgAAZgAAZgAAZgAAZgAAZgAAZgoKwMIFwDYFkBZEVJeEUJdsEuMAADMAADMAADMAADMAADMAADMAADMAADMAADMAADMAADMAADfYkBhGuEa4RrGIABGIABGIABGIABGIABGIABGIABGIABGIABGIABGIABGIABGIABGCgrAwjXEQA/f3unmfgPE8zcX8wxjYcai+4cpVFa5RF9Ke9SVkW0NbSaZbcs6VK9SimXNKzi6bMMtLebk5lMSd/X9oZGUz1ilDlw54Om6pEnTVtNbUn5yPaZ1taS057JfTdl6nTz9X/6F3Nl/2vM4cNHUrXBn0e9ZPM+/+cXmT17vko17560eVtb2xlb9yQ7vf1xqznv4UZz0RNNZtu+9tTbWFN30lw5osmWoXL8l8pOqltPXGtt4/9OT9i5J8tobGw0994/0Hzjm982ixYvLTtjPdn2UFmZTMa0txf2/7Wxsck8+thT5j9+8FPz8itj+rztovbcsHGz+dG5F1j7zJ49t8fso7LUJ3+46XZz5OjRostVGqVVHtFXT7Yjak+97y3f18zJjGnLnHn/5xfsWmAuHXeJuer935rPKj4rmo1Qn3THZ1X1VeaGKdfbuj6x8PEeqefnn+8y5/30F+aqq68z1dWHeqTM7rCdy7Pjtzz95zSXf77j0aNHrS01XtD/WH1386U5669r7KoxbGR+q7e/P7HyUzturrhvsGncXtp8WU+00dVTY3yd90SZy5atMP/27z8w99z7oDlx4kSPlNkT7aIMxnswAAMwAAMwAAOFMIBwHXmw743CdauE65vPPOFagp2EOz3cd3oNGGgqBz5makaPMY1btpcsEhYCOff0zh9Df/DXiY8AM9XDXzDt3TxgE7OH33rPHHr+pZLLUh1VV7WpVOG6ec9eU/vyWFP72ptn7AC1vb3drFy12tx+x93mO9/7sRWLf/jjn5mHHxlitm7dZjThFffd7E7h+rnn/2zrosnDL3Z/GVuHuLqV+/MDByrMs8+9YEa+MPqMq3shtuurwvWegxnz2IRm8+TElh7t1xNNGXPHa805Ar4v5kfPu2tBQSFsnKn3zJu/wIrWPTmxLpE3Kgi69+ee90tz6213mYmTppYkOpbaDy0tLWb5ilXm3vseNnv27C2I864K1+9PnGrDFdvPAAAgAElEQVTt8NPzf222bN2Wt0zVz9lp4aLev8hg/foN2fr2pOB7NgvXpX5ffSFU4q2+J/VN9ebuOXdZcXTs2rF5+VMaidUff/GRuW3GrcblU+p3rhzpuipc+zaTAJ7vVahdo7bw+ytJuPbvc/3h17GY8rXg0C2efO31sYnPwdH6pvG+oaHBTJ02w1x9zQ3mn7/1XfssrKMWiT4/cpTR74l+p/OV1dzcbBYtWmL+eMvtZX2O1sJW1R3h+qRpb2oy9QsWm6rHR/Rq4TeOLTcnUKpwnTjnFJhTKFV0dvXUGL/UPOJsEPe5v5hK/5/i7uPz3jnfRb/QLzAAAzAAAzDQNQYQrlMWrjPtGdN0uMl6a8v7+tjnx8wH58+23tJ9zeO64EHEgIGm9tU3TfuJBh7GIzyezT9w/uCvtwjXta+MtYJzV0Tyrnpc+8K36nMmMqAV4UOfGmEnkzShFH3J83D0S6+aOK/h7hSu3aThmehx7SYvZE8J8GciG/nq3N3CdXv7SVNblzHyvNZr54F2c8WwDs/rcnlc++Lx4xOae7Rf/bKjInXoPcJ1cQ/d8gi77vqbrXC9dNnyovtWnsmf7/rC/HnUK6b/VddnRUqdj/nLW6YmJqJHknDthFkdL/pNP/PRx4t7REBxIusll13VY8K1xGqJ1mrrjJlzEu2vxVSvvDrW3ltMHfP9pnXn9TPV41pcHztWZxdOyPt677795vobbrW270kBPto3Xfm+piVwyktZ3soSbJ1QGq1nb36PcJ38P2LHjp3mR+f+zHpe9+TiybXr1pvzL7io0/N49Pm8kGfLTz9da/Mp9wJQPK5Ps+bG1KUKv+X+Telq/QueczolYpcqOrt69qRwrb7R86PGztf8/kZz6NCZH62h3LxR/unfDmyBLWAABmAABno7AwjXEaGwqx7X0Q73Q4eXKlxH8zxT3vuDiJpRr9mQyfpMr9bKKnNs2mxTef+jWW/sw2+Ox/M6wuOZ0tel1NMf/B0ZPzmHD8eJf2w/eqzb+UhDuC7FFn6aM124lhgtUdpNhg1+9HEbklueEfK0vuXWO+w1DcCnz5gVFBK6U7j2bX2mnSNcp/9Q6YcO7+vCtQR8CflO1A8fM4Zw5oVzOOeDefb3TuK1JtmL+c2RKP3woMezYrUvOLtzCc/yEo5GsHDC9cWX9DebN2/NCoROJHzp5deNPK+Vz89/cYn1tCumbqXcWw7h+siRI+amP95h2zls+POmpSV+O4D6+noz4K4H7L0PPDiYkJwJz6Nd9biO8uOHDi+ncN2V7yvCdcfvYleFa4VIr22oNbKne41eNTrreT11y9Ts57ou7+coT4W89/urpzyuVS89Iz85dLj9v/DKq2M6/XYXUvdi79m16wtzwS9/Y8uUeP3+xMlm7759disehSzXFhZ/uv0uK4ydScJ1sXY4m+93Y+q+KlwrPHrb4SM5cwmae5LAXHHfINPw6fqca5mm0haJOjv3tHB9/Phxc9ufBtjvsP5Pnc0s07bCxxjYClvBAAzAAAz0BQYQriMTMwjX6X3xJTq6UOFxnqMKiVz58BN2YFH5wBDT/MUeHsYjTJ6tP0T+4O/o1LCA2dNtR7ju+vffeZNIuJZoHd1zrq6u3k6Q6frl/a4K7vOHcB3uB4TrsF268juBcH06VLj2/pY9umJP0p62nyJP3H7nPXaicfx7E4uy6969+8yNN/3JiqgSmCU0y3tYAp8WAX3y6Vpz3/2PZIXnzVu25uTvhOs4z2EJ3UuXrcjuj6x9pBWWuzv7rxzCtUSi50eOtnb6/XV/NIcO1cS2UeHLZS+J+W+9PT72vu600ZmS99koXHfl+6p+84VQ5yldSkjpvu5xHfoOKBy3CxnubBu6r5jP/P7qSeFadXTek7+5pJ/R9i/F1LvYexXWW1v06Jlbe2tXVlXFlrdv334zbdrM2Ouu7N7ice3qw/GkDVvdIdL27j2i4/rKzQmkKby7MX2aebp69rRwLbvpOVLf45tu/pPRWDrOlnx++jkcW2ALGIABGIABGDjzGUC4joiECNfpQV2IcK0fkSPjJmW9ruvmfsSDeITJs/WH1h/8IVyf/t6d6R7Xr742xg6sf/DD/zSbNm8Jfp/dpJ0G4KGV4wjXp3nwv/8I12G7+DYq9hzhGuG6WGYKvV9C7b/9+w9sWFgt6Ck0nYTpO+68zwqoOlZUhoUG7UX6+pg37X1Dn342Z2/SfMK16iKhTp7FEmp/+7vrY8sptN757iuHcK06aa9qtTHfPteF3pevnX3h+tkoXJf6fXX97QuhTlxFuP6s4N89Z8fQ8WwTrmtrD5v+V/3ePiuHnoFDNij1s/37D5hfXXiJLevtd8al0h8I1+k/i5bavy6dG1OnKdK6vHvi2B31P9uEa20toPD8eq7U/6ue6BfK6H3fdfqEPoEBGIABGOhrDPQa4bpyWaXdB3rB5R+a5qPN5vje42blncvNlH+ZbD+f85+zzJYXN5uW4y2xD2qFiM6unBnfm2aObj/SKa9oHvV76szSPywxk8+ZaCb90/tm3q8+MLsnfWHamto6pQ3BU2qo8NaGVrPs5iW27RP/YUL2OPcXc+z+2aGyYj/LnDRHthw2nz70iZn5oxnZvGZ+f7r97NguhWBO/8tfqHDtBitavSoRO74dGdP85Vd2P+yK+wd3iN0DBpqqQUPNkQlTTFv98fi0p8Rg3WNDlA8aag4MGHg6j4efMLWvvmEaN201CjcVrYMvJkpcz7S0mrrZ803VKW/xirsfNgefft40bthcUDhreZprX+/KB4dkRfvKgY+bw29PsKGsouW7975NZTfV9fiS5abq0ac72iN7PPq0/SzUDpePPWYypnHLdnPo+ZdM1p4KqXXvI+bgU8+ZY7PmGhueO0lIz5TeJ36/lypcK524cXtStx6sNjWvvWXbYFee3/uIfa/Pc9p+qk1uUKt7C3np/lA+Ph9+Poo4oD4LpXGfxaX184meR+3VcqAyy2Lt2HcTGVR4NPW58qx6YkT+Pk7o/z3HmsyMz097sPmhzG74wy3mWF1dsO0HD1abSy690k6kyStbAoyzh45R4VpeIPfc+6D5529914Yy1ITfnDlzjTxJ/HShc4U9lEAeemnyLZQm+pk8ET9euNjceNOttg7K64c//pn1YlH482iY3mh6vdc9n3++ywwb/qz55alJROXz0/N/ZT/76qu9nfLxhepQ/UOfyXau/IbWdjN1xyFz6ESufd31ch13V2XM/W+2mF8MaTLaR/nioU1m9JxWc7wxYwrd41p7VW/4sj0nn58OajTXvdBkJi1vNU0tmawdktrZVeFae0TP+qTNlqvy1R61656xzWbdF+0mE/jfWuy+0sozXxjzo8cz5u2Frab/iCbzn4901OPXTzSZweOajewdZwO/Ll31uLb9t7DVXPVsk/Ftob7e/FXYFn69XF+o/iu2dfwf3nMwY558/zQrro/nrWtLDFmudMOntNj9y509XL98urPNiB+/7Oh5Kf0azcMt4lF4R/02Rq+H3ut34u133rNC622332MO1Zz+fQ3df7D6kLn2+j+ay/tdY/cJdvcUIlzrXnffry663OzcuatTHbUP8fwPPzYDHxpiLrv8d7ZeEoF1rn23d+/+stPvlquDE6p1fyGvP9x0u/Uod+l11G+vvMGVXnWVfXbs+Nw89PBj2VDn2ht5wYKFnf6PuHx8T+r3J07t1Ebdp3xHv/SaLUehxRVi3KV3R3lv6zf8lVf/YlRXF2pdx7vuftDMnfuhaWhs7JTOpXdHJ/o+/uRw+z9M//8U7v32O+7NesDLvtpvO7SHeZxdiwmx3ZV+VTtcG1yfHaioNIMffdLa5EfnXmDDsyf1ibOFO3Y1VHhTU5ONIKB+cP2iMPpa0CFe1L+urLhjKd9XP69ShWvfw9p5FScdtf+10vhlu/OjjUfN9K3TzL0f3GOunvS7rJfylROuNPfPu998/MVHpi2Tf/x6rPGYeWPtWHPj1BvMZeMvtfnoeN2Ua80Ti54wn+7/JDaffKHCG1oazFOLh9o8r3jvcjN7+yyj8OCuDaFjqcK1yhq3YZy54VQ71IY7Zt1uVu1dZSrqKswNU6639ehpj2s/XLi8oQt5lg3ZpZDPtm7bbrSQVM+LhT7zRvN1QnXomTP02ZX9r7GRQaL56L3LS97f2j6jvb3drFm7ztwx4N6c5+vBQ56w2wxF89DCLuUfLffe+wd2ivAUTav3fnrVReUvX77SXHv9TXZ8oW2MdK7PdC2Uh/tM/bho0ZJOaVeuWm1/c9z4o5Dw6y7PQo/+GDo6Rgy9TxqPttUetmN+jf1z5gPuH2xqRo+xcwUnC/gNDc1taH6k6rHhdp6mtSo8FlebXXvihPf2piZT+/pbduyqPI8vXp441lWebowfl2ecrbNzCafmmjQvorkFfe7qKRvrPC6P7vjcH2P31DYD3dEO8kwef2Af7AMDMAADMAADuQz0OuFawmzlkgoz84fTswKrL9x+ePE801DVEHxQjIrOoc4uRrj+4v0vssK5XwedL7r6Y9NQHa6HX265heu2hlaz7rG1VnSPtsG9lyB/cGXYo8dvS7HnvsgaJ/gpT38QUPtGeDW4hGKJulmxOSA0Vg58zDRui/dqatm731RKsA6kdZ/FDW58cfHopOmm5tTgyaXLHgcMtMJ47AAvk7GCtwZd2TSR+qgOJ1avCTLu27Tuw4WmdszbYZvkqUemtdWoHUn2VP2S+q2rfeL3e1SILZQ1J1wffPJZ07BmvREDIbtWDn7K7qsezdcNakNpQp/F2cPnw0+XNFHg6hKX1s8neh61l/qz5qUxtu1auKBJCJd/9KjFH5UPdtjpyITwJH40jf++ua3dTNlxyPzbG2vN/ztsiek//XSIWt+zQ3v4aVLHT+vOGxoazN33PGAnntzklbumoy9cz5r9gfnO937caZJKk1YShGpqkxcGuImj6CSX3hcyiffll3tMvyuvDpavPDTJpT2949qq9kh8ef6FF+29oXq4fNauW59jr64K18eaWs0P31lv/uewJeZn7200i/ceMW0FTD75fZH2+cKN7VnBWoKs/xowptm8NKfVfnbRE01m277wpGF9Y8Y8/E5zTlo/H51LwK48nDwZrrY5sVRp8onDUVvs2N9urhye2wa/HhJMR0xp6SSw+mKxf3/SeVLdlm1tN7JXXHqJveMWteYV0bsiXBdii1GzOtvCt6nfF0u3tJskVu54rdnIjn56nWv/7bELWrPCeZxNxi2O3+u4kLaE+tWviz/B+OdRL3Wqp3+vf66wsVf2v9buOx0N/+3f5871u+NCYfseOE6QjgsV7tK7+0LeyL7gGyc8S6T8y9i3g6JxnMAal5cTQV3ddPSFa4VLlzjshMloPmP+8lbwd9j3LHdisV+Gzv39rWXP0O+5s1W0XP/9766+0ezatTuxv53oK0FeIspTTz8bK+z7ferqHGfXQoXrrvar6uHaoD7Twgbtk+7bwZ3Lo19tdHWPO3ZFuPbD6rty/aMYHfvGO8E+dfUp9fvq0utYbuHaLz9J+L5/7n3mcEP8M+Ku2l1WsE7KI0k8TxKuW9qazdOLnypKtJZtSxGuJeJLrA+1Q4L5u5+9UzbhWm2aMXO2fa6UN7SenX2W0jz3hWt/YWMxZTixOe75Nfp5IcK17tH+2np+1nN0NA+9D9XXF579NKUI11qQGle+6jR12ozYRS/6vzL0qRHBeivtO++OtwtuVcfeLFw3bt9pNO8QHWfmvB8w0M43SDyO46b+o8UmaW5D+blF5qE83JxAaB5G8w1u3qVQ0VpluDF+KM9QHfSZ5pGS5hK0qN/ZpqeFa9VPz5NiKmlxeFzb+Dx3Ehx7YA8YgAEYgAEYODMY6HXCtTybp/zzJDPzBzPMV7O+suLw8X3HzYZhn1mvZ4mty29dauSRHIUsTeF6yjcnmWnfnmLmXzTXVCw6YL2cj31+zKy6e0VWBP504GrT3hqeWHd1K1W4lge0PM+VXq+tr2yxQn4xHtfyCl9936rsAoCFv/3IVCw8YG2qPA9vqjVrH11j7SpB39U5raMvssYJfirLiY8aCByb8UGnekiUswKtBN4BA031My+axo1brCdra2WVkQd05UOP24FEnECpwdahkS/bezTokVeq9tNWHVurD1nxvPq50aby/keNBnFRG/jioh2Y3fWQza/p8y9sHseXrcqK4rp+YuUnnfJQng1rP8sO7FRW3fyPbflqx9H3p2U9hbXfd9OOzt5Pvk0lUFbcO8gcfnO8kSivdsgWbgAqb3B54kbbEq1H1ZBh5viSFTa98pddJGpr4BbXb2n0iRukqt+jQmyozqHPHDtqs0Ri25YVq22fqG+cZ7HKCIm0bXX19l61W6+aUa9ZRrTqvGXfgZxr9p64PaUyGeu57PI5Mn6yzacQ4VqLHOTZ7tKqXJWvOqs+7nP/KB6j9mj4dJ05cNdD9jsSx5/SKFKA8i5mIK908q6+/cPPzf9+frn5f55enH1dM3Nbti7+BFmSWCMPM3laa/AdmrRzwrXCocmz+eprbjDyYNCE1Z49X5khjw3NTnQ99fQzeSeklc69Pvtso/nJeRfYsvMJ1/ImvOCXv7H3nn/BRXYSSxNtykuhf4ePeM7WI2mCS540TwwdZvNQe2+59Q6zYsUqK7i7fJ597gXraRKtj7zE5LXu6q69CeWVonw0YeY+948Sux0b9c1t5txxn2X7Sv32f0etNI8v32Mq6uMnoFz6tI/b97db72qJib8Z2mRmrG4z1Ucz5qvqjBV4JbCeP7hDCI4TriVW3v2XDtFa9z82odnsPNBuBWjl8+ZHrVkRV0K4RO6kdvhiaZI4HM0j2hZ5O0soV34bv2y3ns4SrvXSNd/zWudHjnfcq/v3HcqYW1/uaJMEeX0WfYVEWtVpyZZ28/NHO2wm4Vne37Kp0q/c3m4GvN6Rr+75eGPnhSS+iF6qcF1bl7ELBdSv6hOJuuoL1UHiszywdU22kIAetaV7r/tVB937wswWc/mwDk7kQe/b9sG3Wsydr3cWrmXXP89qyXqcK6+pK0+n3VWZMc9N7/DejuvrrvSra4eO+p06/+cX2e/q/A8XxLbZT6NzJwi+8OeXcn7X9FvgexpLvJWHqzxdZ8ycY0XDufNOl+NE1iTh2heFox7bHW3Yaz255Qk8c9YHdi9WCYx6SZwd8cwLWQ/hWbPndprgb2lptfe6NPIqlqB48SX9zebNW3Ou6R55Abe3535f/Tpqz2/Vc9SLr1jvcqVZs2Zddi9wedjGicbas1plx+1zLW9zeZ3rHoUMj/aL3sumKkOe5hKP9burOsgrfsFHi8wVV/7epv/jrQOCntIuT9fHCgMvsV3CqmypukfzCwnXvl337ttv5HGuehcjXMuOpfar2uHaoAUPssmtt91l+0L1V518NqIsOzv4R6WTCF5MO5RekUq00EPpZP/Zc+bZ/lB+sqdYkX310rU4z+tSv69+G3zhuJhQ4RJzDx4/aIVv5bH4y8Xmt+/3t4Lr1C1Ts5/rml66V2n8snXuypdX9J9XvGDWHViXTbutept5atHQrPf0k4ueCOYhD+WB8x/MCsvPLB1hlFZ5H6g7YNQuicG/m3hVrNd3nHAdFa2nbJ6c19PatbFY4bqlrcUMW/y0bYe8rB+aP9Bsqtpk2zF351wrzF8+/rKsPXra41rt2rBxkw35q+c5Pd+6tqZ99BeUSizeu29f0WXpmd1/zpSXseqtZ2k9U/vXdO48qUNtcSK4nv3feONt+wz9p9vvyv6majGqthPSc39IuJYXtPJ3ZTrxuBTh+rrrbzY//sn55rXXx5rKyir7XP7hhx/ZcMxq3+X9rrLierQd+h15d9x72ed61V/Rl1QnHfVeXu7KW/l0h3Ct6Fn+uLB+weJTY7tBpuHT9TnX7H1aQBTwINech+YjNKdwdPKM7NyI0jRt2dYxd3IqQt3RKTODXs7Nu/dkxV7Nx2guQvMaykPzE3VzPrRzJKUI11HRuu7DRcE6RPtI74sVrjWPIjvYMfK9j9h5GbUjZ45G4+xTDgflEK71POm+e7t2fVH0dzlkJz47Mybt6Sf6CQZgAAZgoK8y0OuEawnTCuOt0NY5nZI5aXa+vcOKsPIQPrBgf+71kydNmsK16jHvwrmmoTLXq1pC9WdD19t6TP/3qebw5mRvv5KF60h43kLalmOvkyfNl1O/zIrs659cFxveXLY+sjW/R0Q0/3zvNWCRcKcH/DgBVIKdvGV1j8RaiabRfLNib4IXcWtFVVY4DgmUOV6m4yfHDnoUBqot4B3iC9e2Pa++acOF+3X16yDhUaKof13iucRx19bGrdtzruve40tXZoVtedBKIPbz8G0qEV9hz6Pe3fUfL8l6UuvcT+/O5dlu6yFxe194pb8Gi00xnkNp9IkvXEvoVduSXhqku/q7oxOubVsCXtU+X+Ks7Vg4dLXLzw1ykwbX7t6ko6tXQcJ15Lvusxb3vQmV3XbkqBXuZYsQO0rjMygW9T6Ul/tMoaYnbT/tXe0E6/81Yqn5+YTOHrxuQkqD6tCEk8tXR+cJrf26tG+Xf80J18pHHtkSi/3r8oZ7cfQrdvD+o3N/ZkVk/3rSudsjTHlHhWI/nQTnR4c8acu45tobO9VB92ryavKUafaeuAmuefMXZEV2iflxISEVgjbfJITvgV3oRJjzkP/JuA3W89r1obzl5TUv73nd47e9O87lCauw1RIlJUordLRfjkRHCbwSN909IY/rKSs67okTYpWn8lYZymv++s5irV+uL5bGiZn+/TpXGPIH3mqx9bz6ubBnt9rz1scd3uP9hjeaA7W5gpyfpy8ePz6h8++cf69/7gvGcSK97K5Q27LpLS93FvL9sksVricu62hnSKRXfSU6y06qQ5It/L7QAgbVt7au8wBFtt17KGOaWnKvrd7RlhXxJdgfOxG2eUVtxsij27elztPsV/dbqEUt0UgK0XLdewmSw4Y/b0W2VatOh6DU74yE0ZBXq0S74SNGdhL8ChGuJfq6POUZKw8yVxcdrYh6KD5UuX6HFc5aomFceG0/P+cpnCSm+/fr3BeuVU7Iq1qCvsRTXY8LBb5l6za7x7UEzJAYLNFf6ZPqJk/l6LYWfn210EnplU+SiOxEX9VFYvmSJcuDgurx4yesEOKXET0vRfBNo19dG9TWkFAvNtRXup60oMC1p5R2qC+GP9PBflxYfX13tKhC9bjhxttiFxSU8n11dU/76IcOdwJ4IWVoP+0tB7fEisEKx/2XNWOsmBvnMb3j0A5zzaSr7T2jV42OzevAsf3m0Inc5zJXx5BwLdFaQrJEZHk7FyNaK99ihes1+9eY/hOutO0IifR7j+41f5h6o70uj+wk4dq1K+2jLyhPnFR89KNC66PvohZZ6plXL225I7FXv4P+QsdC89N97vsSen7Pl49Lq/+N//Kv37MCsOoYTadnZYnJ0c+j791YohThOm7R6aLFS7PP7TqPlinx/8JfX2bt+eDAQZ3+d9bV1Vvx2tm80Of1aDnFvHdj6mIXJWvcHbfIXeVrLkBbm2lsqa3ZJO5G6yWhWte1mF6OBdHr9n17u1Eo8dBYXtdD9bdln4osJ6eAYkRr5enG9IXaRPNHaocWgdtQ5JHxuT9Ho/vKIVz31IKXYB9G7ME9uWMQ7IE9YAAGYAAGYKB7GOiVwvXGZzYE91xuPNRg95iWqPzJA6tNpi13UrIQcbfQUOEqY9vrpz0JfQDrdtdlQ5lvenZD+AH91MNduYTrlvoWs/jaRVZg//DS+aapNlmg8tuX1rkvsnYS4NrbrSgqgdAOEmJEWD8Ecj4xUftjKy953UrE89vhh8IqZaDhi4lxArvKc4JlxT2PdBq8+XWI24fYtveU12/IY9q3aZwQa1cMn9p7Oy70uhvM5bOpb0N3nlafuEGq7f9Tq5eTzkP95uytdHEivVaQ67rCY2sBg2tH6NgVu/j5uXr1pHCt8t2gO8SOrvsMaqLBr7M7z5w8aTZWH7chwCVQ+0Ln37/6iXl1fYWpa+48yaT0bkJKkzWFCtfySpCntitfR1+4Hv/exJxr7j5NHDlvaO1N6T7PdyxUuJZHtURxeX0necP4+3VHPSslBN1+5z12ckueHfISyVe/pOulCNd+ftrreuiKr8zfvrw626/qX3nRy5teXvX+/Wme76/JmCuGdYiXErAlqEbzr6nLmGue77gn5HEt72mJmRJAn5oUH3ZaebtQ4tpfOSpw+uX6YmmhwvXGPe3ml481We9weRT7+fnnfpvl+etf88998bgY4VqivMTikK38/NfvVnj2Dm92ibv+Nb9s2TXfKyr4+unVd+pDP393Pndtm807aTGB3xey7/ov4m3r8nVHf2GE9kyXd7W7VugxzX51v2HFTOw78e63v7veVHgT9n5oZwnb8miVZ5fEbXkhS5TTyxdLk4RrbdWge53YKwF14cLwIrd8tnOCsLyod3/ZeeGhn76rwnWct7T2lR40+AlrA9lHCwD8cnWuPaslrstOUXFbookLtx4S8KN5xb13Cw9UhvbLlmgautcXfQvxRg7l4T5zzET7310v9ZivX/02TJk6I9hOF/ZedZPHe1JdSmmHPKrFsLy+tQgjLv9Dh2qsp73qEedNX8r3Na68rn5eqnBdSLm+MC3P42iaNMqOCtdR0Xr8hnGxgni0Pu59scL1iytHWVFa4rVEbJePf1Q9XBjxcgjX+g13ezV3t7ApL2ZtreOEVP+o52gtBN23b3/sb5ZvN527Z/1i/r+5PFxa1UGeyRJ53bVSjl0RrmUTbRMQLVf20mJU1TE0vnBerxofhBZCKT8J3s7O3d2/Ks+NqQsVaaNtTnqvxeoScyvuG2Qat+7oZK+ujHldudH6dxKtZ8/vtFDfpY07ujF9ITbRwnbnSBFyPlAZ/uJvzSuE5iXi6pLW5/4YNt84O60yyafzeBWbYBMYgAEYgGipbt0AACAASURBVAEY6DkGeqVwrdDcIQgkVEuwlqi84PIPbSht/740hetp/zrF1G4Ie5q0nmg1S25cbOux7JYlRvtI+/Xwz8slXCus+cwfdOwTvvWlmNWv3bxy0hdZkwRJhaSuX7g0GMLKF2ElQPq2jZ67QY9CXilMtH/d97jWymENiPzr+c594frg0yNN+/FczySXXiuNJVqrvVFh0K1I1uBPg0CXJnpMus+3aafFAKf6069r3D3O49oO5rbkiobR+kTfp9Unrr+S2PCvhQaIbrCcNCh15STd49roBrmlCPouDx1dvXpauG7cvM2ueJfdQkJ+krAtMVqidFTU/D8vrChY1PQnpPINqN1kkyZ2lM63n5tEDona7j5/n2x5PDTl8R536fxBf7Rcd4+O8oBR3TR5lbSPti8mR8Oj++FH335nXE4b/bIKPffL6spEmFuccP3s7Tmh37vTC1uCqQsDLhEz1GZ50g4Zf9orO+pxvWVvu7nw8Q5hO0kwVt4SoSXCXvVMvJiq+3yxtFDhWuHIlbe8hxWWO9QWfeaLuhLaC7mvUOHat9WfXm02xxNCovttjO7t7Ncxn2it61HhendVxlz6VEefKAx3XBsLuc+vZ9we1nH5SzBXX6uOWrQQWhgRl9Z9nma/6vuu34/QVgiuvOjRCdS+eCrx8823xlnBNSRySix2oZJDwrXEuqSXROt8+/+6eiqMt8J5S2R0L4X8lmitMuIm8F36rgrX2hNaHtguP//ohPq4e3xxOnqPL2rnE1j9MlUXZwd3HPnCS9YW0TL8dE70jfP+9u/Nd65ySwmx7edbSr+6NshjXGHW/fzcub+gIG5vcXdvKe1wIfLlSS0R0OUVPfpe+6+PeTN4Xynf12g5ab1PQzxWXeRhXdtQmw0XrnDfCpetUOISbCUGR+vsC9shT+Xo/aH3vnAt0XjkipFZT+tSRGuVUYxw3djaaB6c94Bt459m3maOxOznvf7AumxI9nII16U+w4ZsXshn8mCeM2eu+fXFV2QFVSes6ijv42HDn+3kPRzK2z3rd1W4zjdOCJUd/cyNJUrxuI57jk561tb/kieHDrc2TNpn2Peojysn2pauvC9mrJtYTnu7jTyn+Qb3UuhxidYaW4bG4v68RchTObG8U3MXOfXfvM0cfnuCjR5nPa1LEK1VphvTFzL+9+eJ5AgRV2e3GD7OFnHp0vrcX1QRHXOmVQb59NxEPLbG1jAAAzAAAzCQn4FeJ1wrTPjR7fETEDvf7AgXPuvcGab+q9xVumkK13N+OsucqAiLkwJr7ZA1VrjOt+d0uYRr51kukb879q8u5Mvli6y+AOmfVz78hGlYJw/78OS/Vva6wZKfLuk8NEDRKlm3x7XSVg4aavdcatEK8wJE7ELEYNnEF3Wj3s5usBOqn29Pt7JZ9YyK375NJY766dx5IXXNhvpWaC/t+f3KWCumR8Obuzz9Y1p94gapamdcW/xyQ+eFCMSunHx2V/5ukHumCtf+anDt7+2HZFPfZvfOjoShP9bUan74zvqsF+7/HLbE/Oy9zqHAQ33gf+YmszQJlm9Cyk02yWNBoc/8fJxwfcmlVxp5NPvX/HOXh7xWkiau/TSFCNcSi0Y8MzI4uedP9EXPo5NTvj2SRHK/fknnSZNpSemSrrlQ4t95a11OKPH+07fG2j0pv7hrzuNWnr/yAI67zwnOIS9iidWFiKv+PfnCX/tiaSHCtS8Y++XkO08SpH3xOOk+32YSqiVY5ys3ej3aRr/sK4Y1ZvcLl11Cr6j3ur+YIJq3X98j9Rlz7cgOYTnOC97viyQR3M/XnWuRg5hRe5Pq4e6PHtPu11J+m9w+y77oqagNErLlVbppU+dFiPqtcuG6ixGuFSL8kUFP2H2z4zyDZSOFY16wYKH1VpbQmiSCd7dwLXE62m/ufT7hWvfJ21b1j3q0O7sXIiRrT3GFZnfe6nH28PvQ1dEdnegbrYe7XsyxFMFX+Xe1X10b4rzgXRtcv0hcV13d59Fjse0Qs/Jqj7N/3OdxDJXyfY22Ia33XRGu2zJtZs722eaP02/O7t/svIqjx5Bw7e9xrftvnHqDeW/je+aL2i+Ce2KH2uyE6ysn9LP7YSs8uPL6/aRrzPbqcCSzUD7+Z8UI1xKqJVirzEELHjHa79rPy527PcF1XzmEa/95rlDR1dW9K0ftEV118KCR17AWff7wxz/LedYd+PDgvCHE3bNtV4Tr0LN/Ke1y391Cbeh7useNU/y+iT7X+9eSyvTLieZRSjvzpSlmrBvNS2PHutnzbChwbUOWNMeicqLp/T2ulV5bUek+u/VazPxONI9s/e95pGNbtVP1kHOD8o/eX8h7N6YvZPzvOx6EFn678lw9ZaOQLdx93XXsaa66qx3km3+SHhthIxiAARiAARjoYOCME66dOB0SuN21JDHZCbqh9IKikDx035kiXM/47jRzZFv8QoDu/CL4ImvNqNeyK3f1uQYILiST3at5ZueQdaqbP0BIGkj51+IGKBKVDz71fHBAptDK2i+6rb5zyDDVoxAxWPf5bdaAybevG0Dl88L1wzlHBV0//+g1V1ZBdc1krHBfcW+Hd3iO/e5+2Ej0bJQndmDAmVaf+PnEtcW1Ke6IcN35n7lb+R4NaZ8dlMvj/9PcsJq+cP3/DV9irp213WytOWHkmRtn+9DnbjKrGOE6NPHlhOt8grSbsMp3n1/XQoRrf2IqKk4nvY9OTjl7/OS8C/LuX+3XMe7cr1e0rLg0hXzelsmY5fuPmosmbc4uXkhbuJaYKFExJEj7dUy6z12LirFJ79MWrn2hN6nc6LUkQdrPM+k+306+yBstK+l9VNT1y85nK798dy4PbFde1Bvb3aOjX06cN7Xfpmg9/bxC575wnc8bP5Ter59rTyHHuP4q5bfJeST7YaadoJe097ITEUPCtbyh5RWtfNwrupd1yB76TBOkEs3jRMDo571duHYe7VGB2tkvaZ9uCaVx+4xH7aD3hQjX+cTcuH7xP3d8qEy///17oudp9KuzWb42dJdw7XtRh+wf99nZLFwfbTxqhVoJsYW8QsK1WDlQd8DcOeuOYB7y1n5j7VhzrPFY7LOhE65dHSRcXz7+MpvfvR/cY1TPKJP53hcjXBcqSBd6X766lXrdf55LEkBLzb/QdBKyN2zYaPpdebUVsOV5vXTZ8sQ+cs+2oef3fOV2JW0ob/e/tlAb+sJfKcK1tvy56urrrK2SnsP9/k26L9SmUj5zY+q4OZC4PO3cyJPPBudG/LkBd65yQnmd+GStUcQ7d1/2OGCgXTR9YvWaYGQ9l5erv59OEer0vnrEKFPIwnqXlzu6eZdCbOKXH9dG5Vvofa4OaR99fnuCq7TrT37FzatgL+wFAzAAAzAAAycNwnVEmDlbhGuFW5e3dW8RrqMirr58GoRoMKJBSdyKWn+AUL9gcY74LRE3+Ko9HO9F3d5uBdnDb71n98KOrizW/tit3t6S7keiIDH4TBKuXVjxo8dM3fyPzaEXXjEV9w/OHXBq3/HpczqJ12n1iZ8PwvXpf8iFsubYjB5bDlQaLcTQ98q3qwsPH9oDvqU9Y0Z+ut/831Ers8Kl9j5W2HDtiay9kaPlhN5rr2qF95a4mxTCTN5egx993N53/s8vMgqp7efXm4TrOwbcayqrqqyIowmDpFd0rzztjS1b9FbhWntaD1m2J9jvE7fHe7r7fVXouROd0xCuFS585fa2oEdw1Eu4ti5j2ttPf7+i9S1WLPUFzltfbjb7DmUKqkddQziqiOrj5xknhCbVW6Gxo+2Oe6+y/Lz8ss9k4dr3/O6qcJ1Gv7rfsGIm9p1w7e/T7ITJUoXrpHQ+B9FzhUMd9eIrVrSW0Ktz7a2tz/17nRgsobC3C9fOe111dSHB/X2ptc91tH2urW4/ZaWVl/HSZStMfX1u1Cfd64Ta3ipcp9WvvUm4fujhx8zB6kPZhRlugUboGLdoo5Tvq2Mj7WOpHtcvr345Kzbf88HdZvW+VUZhs/36+WJtnHCt++W5vfbAWvP88ueC3tvy6N57dG9O3q4cX7i+4r3Lzezts8yb696wHuASsSV8K4y5u7+Q49koXB+rqzMKNa1nREX4SYp8UYiNunrP55/vMvp/VUh9uiI+dyVtqI0I1x3Pt25MXYhI6+yYaW01NS+N6Rj7Dxhoz7XVWjQSnb+gXuW49NFj+4kGc3zJClPz8l9M5cDHO80p1I55u1PeLg9Xf41dFQlOIcflUGDnaTQfMW12p/kIlzbueDYK134Iem1pFdd2Po8f92EbbAMDMAADMAADZxYDvU+4zuMhTKjwOUbhx/N90ZxneW8JFR4SrtUGfzBU+/pbRoMov21+WOqk0E1+mmLONThr3LT1tPf3nQ/afZWiefhiogZkIU9kpUk7VHi0zal5XEcWbLj2ttUeNkffn2acJ7YGns17cien0uoTf5DqC6yuLoUc8bju/A/Hn4hQaHAtEFG/Vj36tJ1E0D7XcbZ1nrfytv1fI5ZmRWyFDv/JuA1myo5DRqGl49L7A2rtARcnAvh7+8lzQR4Mfp5uErk3hAq/7U8DTFSQ9uuadO4m6DQRqPOkewu5loYHh/YyH7floPm3N9Ya7WmtBQp6qb/V7xurjxftaV9I3dMMFZ4v3Hgh9XH3FCtc+yGlbx7dZOpOFDcB78r1j754XKhw7YcKL3VPZ9XBL7sU4doXjJO8pP1Q4XH1LbYvfBv6HtdJ9fDT+Odp96vCsBa7aEX7VctD2hc9ndhaaqjwUoXrisoqG1JbQu2kydNiRRUXZvtMEK7V3xKsVddBg58w2oPZ399aocR9Jvxzl+7a6/9oRVL/mjvX/zuJ38rf70N33R0LFX3d/UlHt7BBZRbicZ1Wv7o29IZQ4f6e8Em2SrpWyvc1Kb+uXCtFuK45UWNunnaTFa4HfzQoNqz3niN7zLWTf2/vSxKuo/VvaWs2n+z/xNw+809ZcXzk8ueD3xcnXF8x/nIzc9sMK1L7Icivev+3VhSPlpH0vhjh+kwJFe57TiYt9EyyS5rX/OfyfN7L7tm2mIVZrq5dSevy8I89LVz7z+FJdvL7tyc8Y92YuhjhOmdf5/GTY+c2shG7igyPrfGnFsc7T2wJ0o2f5W4N5frS1V9e1vULl9q6+Nu82XYpElzM/EXo82KEa7+N0bkXP+9sPYu0hZ9HV879qGEzZs4uyh5dKZe0nedbsAk2gQEYgAEYgIGeYaDXCdcSWuUtHAIg05Yxnzyw2noSL7j8Q9N8tDnnPuct/cHP55iG6oacay6/Xe/t6vBEjtlL2+Ux7V+nmNoNNcE8Wk+0miU3Lrb5LLtliWlryBVbXVk6lmuP62OfHzMzfzDd1nHrS533RfTr2F3nvsgaJ1xLAK4d+64V1EKDrRwheOy7sYOqrrZBg6uDw0baeoT2N/aF64NPjzTtx8P7n/sDn+j+1C6EswZl2mM6rs5J9/k2jRN7/brG2j3PwE8rnV2ILg3S/Lqm1Sf+4C+uLX65oXOE6/A/CoUCV/9V3DvING7eZkOD++9Dtox+JoHz1fUV1uvaiZs6/u/nl5vrZ28PCpwSeCX0SrCRJ4k8SqL56r32rZYorfvkeS0PbP8+J1zLe1te3P41d+5PsmmfvqampuB97n539Af9SWKyVrKrfhf88jdm7759BeXtynBHeZLLo1z5vP3OuJLycHnp6E+YFTMRFrcgQcK1BGwJ2epvv6y0z1fvaDPnD260YaUlYofy98XDkGe2L5JOXBb/fzeUd9xnpYilb37UEfb84qFNZldleYRr31bXPN9kaupKq0dXhevdVRlz6VMde0sn7UtdyH2l9IXrV7X/qmc66hEnjLt7445p9qsffUKRF+LK9D+XR/Pl/a4xf7x1gDl2rOO3U154b741zoqhL/z5pU6LgSR2X9n/WnvdFy6d52+pwvWGjZuNPK1/ddHlRuK0X0//fPmKVbbsM0W4lle42uX2l96ydZvdPzzJTs3NzebxJ4fbdiZ5ZbtFBr1ZuE6rX51wncSHFgZogYDsIfvJjj47/nmxArzSzpg5x+Yt/g8cqIjN2y8n7ryU72tcXl39vBThelPVJvO7iVdZUXn61umxtli9b7XR3tMK412McO3apDDfd80ZYNPfPecuU9/UOeqAE64lUKstLu3uw1+Y6yZfa9PKY7v6eOFRXYoRruVl/uC8B2w52utaQrarg39cf2Cd+e37/e195djj2n8W1cIJv27lOPefL5MEWdWtK+JzV9KG7NLTwrUWKGlhrp7rQwtvXR39hbzFPK+79MUe3Zg6NJcSl5fCe8ujueKeR+wWbnH3SciVJ7Re0TmBuDT+59p6TPWKRgLz74mrf8u+A6byVBQxGzHscOHb3xUjXOeI+OMmxX4fj06e0SVb+G0u5dx9f9LaI76UOpAmPPeCXbALDMAADMAADHQPA71SuN74zAZzMtO5wY2HGsy8X31gxVgJ2BKyfTDyhcf2he98e1xLQN/2+rac/F1ZdbvrzMwfdojCm57dELzH3StxXSK78st3r0sTOu6fv8/mITFaonToHv+zlvoWs/jaRTbNh5fON021hYk6fh5dPfdF1iQBVcKaBDYNaKJe1773qAYuGsB0tV5x6d0AJ59wHd072M/PCamhQWCOd3mMCG/bO+o1a4vKhx43Cvvs5+/bNE7sTUO49usaHaSm1SdukJo0kPXbHjp39k7aN9yVU8hgXvypPqFw2qHy4z5zg3ytMlfYtbj7Qp+3NzRmQ+hrr/FMU/xkbyi9Pms7crQjFP6dD5oj4yaa2lfftO2qfm600Qr2uHShz7XPtbxwo17YErEVSnzsxlxGX31tjJ3Qkei8aXN40Yz2z9M+epr4mfPBvE71ccK1ro9/b2Kn66qnxGSJyrpHZYbqHvrMnyxMEq537NhpfnTuz2z+7457L9bjMFSG+0xCxu133mPzuO76mzt5lrv7Cj1KnJdIrzaHBP9oPgoB/8TyzqHAtfjg9g8/NwoVHk3TXe8P1GZMv+EdwvXgcc2mta3z/3iJjxJhtbdwSLiub8yYW15uttdvHt1sjh7PfQYope6+J3CS8OrnvXFPu/nlYx31fHVuq5GI7F8v9ryhOWMGjOlo1/1vtpimlsLym7++zfznI4329UHMYoB8demqcO2nTxLQnce9+jZu4UJXhGvxJK6Uf6kLCtLs15raWnN5v6vsd7XQRSsKPT3grgdMVET1w3ErjLgEbnlzrVr1qbnxpj9lheM0hWsXtjxJmNSCo6FPP5stP1+ocCeayntcgnE+NnXd38s4bn9i3eeE+iRPZ91XU1NrbrjxNltnie5O/Ezy2vXrkCRcb9q0xYrgPSlc+2L562PezGvTtPrVCddq65SpM4LlSkx2iypcaPa4PnfsK79897o8/PDtSVEB3P1Jx1K+r0n5deWaL0K/v+n9oG2j+ftid5xwrfDcI5YOt0JtqcK1ypXIq/TFCtdKO33rNBsyXOmHLX7atLTlLlqMtsu9L0a4VhoXNr3/hCvNmv1rgjYcv2Fc1hblEK7dVjJJCzRd+3viWFt72PS/6vf2f1ZSxCTVZe269fYZvhTxzAlvpXhrh+yg/696Jk4Skf10vie0xhr+NXfui/gh0VnjFpWp9sf931u0eKm9R/eF8nBlpXV0InS+xfF+ednxcYJwrTGjxo4aG+sVnRPw84s7L2TuIluX+wbbaHx+XnZMPWCgLd+GG49E5/Pv9c/dvE4h43/rwPDUc7YMF63Mz0vnpdhCCxj+cPNt9vvy0MOPmiNHciOMRcvI994tqs4XkSxfPlwvbJyFnbATDMAADMAADJSfgV4pXEtUPrIlskI6c9LsfHuHFWIn/dP75sCC/Z0GG0e2HbF7Oksk3vrKlk7i94GFB8yUf5ls8yhEuJ534VzTUJnrud3e2m4+G7re5jH936eaw5trO9XDB7u9ud2svHO5vX/RNR+b5mPFi1DKT97f8gJX2/bOyQ3d7Jfnn3859UsjWynN+ifXmbamsJeb2nh83/HEdvj5FnruD1SShOscIfSBIab5iz05dZF3ssJLacBUM+o1G/o4WIdMxjTt2m3q5nZeua6VtLoWF+K77fCRrNAXEgt9MVj1kBAY3QOqtaLKVA4aGjvo8Qc8Er8bt3b2JD2+dOXptr40plPodN+mpQrXEkIb1qw32osqaMeTJ60N7b5SMd7hafSJG6TKnnFtiauf+zxt4drlV8gg19UhdMzxvP9wUaydQ2n1mRtsVw0aasPPx92X9LlCgsu2WhSihRQ6r5s9v+i6+GWEvLAlaPv3+IKvxFVNAPnX6+rqzZ9uv8tO6Fx6WX+7f7R/Xee+cK3JqOrqQzl5yOPhxdGv2DwkLqvMaB5x7wsVruUd9uiQJ20ZmmBbs3ZdbBkSNhZ8tNBUVOSK+KrDvPkLsiK9wkHGeZ2pjZWVVbFluPY47xJNMGqi0X0eOh5rajU/fGe9DQXuvKvzhXsP5ZPGZ76wKFF681e5Iecl/r69sNWKsHHCteoxZUXHPRJsR81qCQrguk/7Wn+6s80s3pRbTrQtEoklFqvMQsXwppaMeeCtjjRqy7Kt8WVI2J2xus18VZ0ssitEuOrQf0STqT5W2MOh9u++7oUOAf3K4Y1mx/74ekjkf29Jayex3xeeSwkVLnvK+111V5+oD6NCfuXhjLn6uY56avGCFjFE+0HvuyJcK728+n/+aMfiiAGvN5tjMWHcFWY9yp/Sp9mvEnX1+1foIhOVr981t6/0go9O/9+Q17Xe//wXl2RFYgl8ekkYHD5ipD1PU7h23t8qIyQKqk6z58yz3suuLnPndX72Urvcyxfg/bq666GjLxqnIVz74bzH/OUto4UAqn8+sVSisO6LCxV+qKbG3Hb7PfYe3ed7zUfb5UTfP9x0u92XOXq9mPd+e+574JHgvtt+fmn1q2uDa6sWBPjlqF6yr65f9Jt+RiKzfz167u81/sDAwaa+Pv+YRN+x4c90sK/FHp9tCIegVVla9LVkyXJTVXUwWI9Svq/RNqT13t+H+slFTxS0H/TB4wfNjVNvsEJsXKjwuTs/MNpzWqKxXk8tHtrJFjsO7TBbDm6JLVNe0vKWVnp5NUf30JYN4jyudU0hx9UmpVddVKdC7FascC2xWqK1ylF5KtcvR/tz/2Hqjfa67imHcO0WeSZFJ/LrXOq5hNqhT40wX321N3YBZnt7u5k8ZVr2WTWfB7j/HB0n/sbVN23h2gnESYtl/bqkIVxr4eyFv77M/n/XYlItIPLL8Mc5PSVc+wvOCx1Ta2G1C+N9JBQqPJM5vc/0KeH62IzO31k7p3A03qnCnzOIRqNzdnNzAqHxt+Zb3AJsu//10pU59nZ5RI9uLB3KM3qv3rtxs8R/RZ6L3uPP0WhMXYiIr3GfGHCvv4x9q1O+0XLi3vem/1NxdeTz08+82AJbwAAMwAAMwEA6DPQ64VpC6+RvTDQzfzDDfDXrKxvyW6LqhmGfmcnnTLQi7PJbl5rWQHhu38tY924ZtdkKsg1VDWb7mG1m2renGInREnLzCdeuHvMvmmtDlyvktzydV929IisGS8CWkJ0PRonsTkD+9KFPbJ2Un1423HkB3lp+2+TtfeDjAza9yydkDwnVq+9bZdurNsvzWnVRGHWlO7L1iPUCl120J3a+dhR73RdZk4Rr5esPahQ63BeYNWCpOeUJq4GCvGs18GmtrDIqQ0K3Qjc50ThUlhsQ6R7dK9FYaRX2un7RsmxaibV6H21rjnB910M2DPOhkS9bb1rlc3zZqmweGlSdWPlJpzyi7dRgUXs/qQ5qS87e0g8MMU07Oofn9G0aNzD16xqyhbuueta8+Lo5vmRFji1rXnvLhg6TreNWHafZJypHA2a1LfGl8GDtud83JzSn5XEtDjVgtZw9McKGTsupU13nsIhRVvTeX7mtRQoaAPv5qA9C6dxn2XDxdz5otJBCkwvFpFc+/iSG2hPy4HflFXv0vbCvnZW7AEMT1qNfejU7SJd4o5DZmizaunWbueXWO+w1eVxPnTYjOJHmhGvd8y//+j1z9TU3GHmnKA/lNeSxodkJNgnYKrPQNvgTbkke18pv164vsl7d//yt75pnn3vBiuSqhzy0lP7pYc+Y73zvxybOe0RC9RNDh2XtIc9reZwrvfJRGZrA/OGPf1bQPthuL04niDnbKi+9/IUCEq5/OXFTj3tXx/XF9v3t1htWIudvhjZZQbf6aMaKuiOmtJifDmrMhhMPeVwrX3ldO+9k5XPjqCbz0YY2o3wkfG75qt2MntNqLnu6QygtZL9j57ms/Aa922zro7z0OnI800mIVT1Ujjx7lUb1fmxCs9n4ZbtNo7os3dJu85KQGtcW305TV3aIv8pPQvrOAx15uXpIYPbvd+cfbzwt1v5iSJOR17jClyudBGN5Yt81ptnWMSRMpyFc+wK6bKG+lFCvOizc2G6uerbDThK2xy2KD/Gu+1VH2aCQfnM2cEcJ5n+e1ZJd/CAGJi1vtXZQ3rLL2AWtlr24/NPsV/ddLcYzRl7UCmUdFe8kFO/Y8bl56OHHzLnn/dK+dC4xYuHCJdbzWkdnC+eBHPXedtfzHX1RUOWNfeMdu8WDQjpLhBzxzAu2nuf99FdZ8fr9iVOz5Yfy971qVS8JDvrNUp56KTx6e3su52kL16qX9rKWoCrRXx7lsnec15xrx+YtW7MLB2697S6zZs06W2cJ1lpUcMWVv7d5yptceSft/exE3zSEa9XPMaNyXxj1crafQjZNq19dG2Q7MeDbROK440N1koBdyP/opHaIHX0HXH+4ox8qX5y+9PLrlk+1XWypX2UTLfrI910o5fvq6pHm0Q91LXH3lU9eNhJaJWjrJZE6KsTKm/q5Zc9aIfay8Zeah+YPNPLc1v3bqreZpxYNtZ7Ounb5+MvsfYMWPNLJ49mJzhLBx6wZY9YdWGfzOFB3wMzcNjMr8CC3gAAAFwpJREFUjisfvQ+12+URDRXu7vVFY5Xz1ZGvcvJRW2obarPtVRtGrxqdFZmnbpmacy0Urlye3PLoligdtcfcnXNtO3xb9LRw7W+r88qrY4JsO3t19ajvwZX9r7HPzNdef5PRd1fCqz53z7F3DLg3+0x940235o0OpG2AJLjrOVTPvh9++FH2mVb5Hj161EgMD9U9beFaiz5ddBMtdN28eattm+qhl37z/HroM9lDdY8T3fN5XOu3SJGYnBipxbga3yhvN875yXkXmF9deIm9pyc8rv1IWxJq7TxJ9aHTY8fAGFoL6jWXoTGi5j/kzdyyd79N07RlW8c1eTprXHzK4/lIIIy2FYgHDDTVz4wydQsWZfNQXkcmTDEV93Ysnq5S5LxIJDnXN26eJk5k1jxJ5eCnbF01lyNnAZfWHtvbjZwQ/LGynB3Utor7BpmGT9fnXAtFM7NboT36dEeaex+x8zIqN2eOxrNFKcJ1vjD8OW3yFv7pc3+brVC0sqS0XEtn4hw7YkcYgAEYgAEY6HkGep1wLUF5y4ubrcgssTX6+vDieUZCdBwslUsrsl7V0bTaj/rQmmorWucTrhdd/bHZ8cb22LyW/mGJaazJ9SSMq5NE5RV3dHhdd6rTzUuCInwoLwnNLkR5NB/tzR1KI8FbYrkTzqPp3PtyC9dRb+So17WE0sPvvp8dONlB1qnVv9FzhXuO2sINiKL35rwfMNAcnTS9kye18nJir+6XkOiHzYrmcWza7BzhPacumYz1enUe5DlpT7VHg7YTq8Oh7TQgk0irdF0VrkNl+59VPfq0kad6Tv29QVSP9InXxyFxOm3hOirI+/bQeWghQJx9tDhConU0D72P6zuXl4Tv6hGjgmkLSa98/O+U0tQEPPhdeWkf5X0gDw83qRM9SpCWuB03me2Ea+2XPXHiFCsMR/PQ+3vufbDosGvFCNeyy5df7rHCeah8/zPtZS0ROWRL2WPY8GezE4N+Ov88n5CuvJWXCxfup3XncRNxoXqV4zMJmRJYJU5GX/LKnbC0Q8BNEnslXisstITQaB7R9+MWxwulrv0Sb+97o8PjOZr+jteaTZxoLA9nJ8pG0/nvf/NkkxWiXXmhY1SQ99PrPE5oVV4rtrVbMTaaJvpee0BH98JOQ7hWHWQLeX1Hy3Tv83nIK4+uCtfKQ579WrggAd2VHTom2TOtfnUT6vq902IV1S/fS+LtXXc/aMVUeTSHxLp8eeh6V4Vr5aFJUnkOS3wMvSQGSgQZ8thT9npSGG1XZwm+Ic9x5R8ScrtDuPY9v1Vuksjs6q3/VdOnz86K9CF7KNy4Fg9IzE0Kse5E31B7XXnFHFU3590crVeojDT61bVBbZ4+Y3Zsnw5+9ElzNMETz2+n+vrpYc8FWUsKAb937z4rnEfbHn2v/eMlqvtl+uelfF/99GmeSzC+euLvsmKtBFj3ihOED504ZMN3u/uiRwm1I1eMNI8vfMzmFdr/2YnO0bT+e+Xz2qevdhLPXftdHnH11H2+93fUQ1xCtMKQ+2Umncft1a39uO+fd38wH7Vh9KoXs/t197Rw7SITJYWadvbs6lEisgRd94yYdNTCSoU2LqRMLSbVos1QfhKGJeKG8klbuFYZSXWJPlenIVyrzKRxjuwiYVEipezTE8K16hT1CPbHn6ExtNJIXHYL//373bnmK45OmWW0jZodS456rVM0OCtce+N1l9Y/Vg58zDSs3xhkwtpz5ac2/zjhOto+LbzXmF2f6+XPj/jlxp3Hic6N23Ya1TWUTmP6ujkfZvfrjsvD1UlHjSH1vXLfk64I126bLW2TpcUnfjmc53++xkbYCAZgAAZgAAbOTAZ6pXB9dPsRU7+nzobYdqG95/znLCtotxzPXTkbAq92Y61ZfN2irIf2B+fPNrsnfWFDZctrWvtE5xOul928xKismvU12bwk/mqPbZdXqOy4z+T9/Pm7O43a4cRiHVVOyFs6Lp+oXVxeccK1zSdz0oZel4A980czsuXP/P50K2of3lRrMhEvl7jyi/ncH0QUIvjJa9l5u0a9rl25zXv22hXBWrXrVv9qUKVVuBK2rdAaWOWtwY0GI1opXPX4iOzqXw1MKh8cYmpGj0kMJe4L12qLRMG62fOMrYdW8979sDn49POmccPmeNHam7S27Xj1TVu2GxxVDnzcHH57gh18ufZGj75N48TPaF2jeeh9W+1hoz2jtBrZDtBOraRWO6oeG27F9aRQ4n6epfZJQYsJvIFwaNCdtnCtdtm+nfNhR+j4U3ZxfVQIxzm2+fIru9BBdnV56BjXd37atvrjdqW6woU71l0ehaRXXlnP7ZhIAn55aZ/L20KTSbffcXd2cktexQ8/MsR6JCQJMk641gC/oaHB3i+PEHk9SwRSmOw5c+bGht1OakuxwrXyktf04iXL7H7VaoObgPjlhZfY9qxYsapTqMBoHdTezz/fZQVspXN5/PT8X9nPtu/YGeuhEs1LNhk3/n1rB9nD5aVjbxeu1ZbdVRnrVewEbHkuS2xUCOf1uyVs5/dSlnetwj1LwL7kqdNCuPK84c9NNmR1RW3YWzpqT71XmOh3Fraay4edzkuCZ5Jw7dLNXddm99527VE61emesc3WG1yidKjM6Gdq/2vzWm248KgonyS0Kh+llTezQoe7cNnKQ17HstHK7e3BvbPTEq5dHRQqXGK+E45lE3mQq6+iIcSj7U9DuHZ57jmYMcOntJgrhnWEMFefqC7qE3nDh/ZYd2l1FA9d7Vd95+VNp+9lvj1D/bJXr/7U7pUsgVdCr3+t0PM0hGuV1dDYaCa8P9lcc+1NOYLiHXfeZ7Zt22GFde1xLJFQn0l4T6qjbCLPce2NrRDSvrgYElm7Q7iW4CDB1ZWtcOEKVZ1Ub11zdX9k0BM5Qq36SaHGZSt/D20/3LuftxN9Q+317yvmXF6FCxYsNNffcGu2XWpfXBld7VfXBgnKysuPBiDh/qY/3mHrE/V2zNcm3T/ng/mdeEsSrpWn0q1YudoMfGhIDlf9r7resvbJp2vts0RS+aV+X5Py7Mq17Ye2m0c/etRIAPaF2yRBuKGlwYzbMM7cMPWG7F7SSvv7SdeYmdtmmLZMm/WUlnArYVze2H4d5cm9vmK9eXHlKHPrjFvMlafCbSuPqyf9ztYnKZS48ipEuI56RL+xdmw2PHlawrXqErWH2n3HrNvNqr2rrPAur3O1raeFa7cv8+133pP32dHvn1LP9f1Q9IHnR46y3sZ6lnbPjXoG1XO5BN64xaShcvV9kXex0vrPxcq3p4VrVxc3TnBt07G7hGvZROOc5ctXGnmy61lcdlVUqU2bt9jfGydcK1x0yIapf5bJ2HkILa53Xs5u3BgaQ7vyNd7UHIrmIdz9OmoBuxWbM5lsGG19pjkEl1ZHLbbWmL721Tc6Fte7sfOAgVYUl9d1e54FTG5OIEm41tZy8gq3dRww0IYxdxH6/PkRvw1x50mic+vBaqPocxX3D7ZlyZZ6r8/lMa4IZso3KQ/fPjrXwmYtcC5VuNZ3U8+RYnr4iOeK+q5G68L7M3PSnn6j32AABmAABvoqA71WuO6rHUK7e+ePUSFiMH3XO/uuL/dL7Rvj7OC6K3tln23227ptu9FeeKEJrbOtrbSH3yQYKC8DzrOuGA8Z34PWeTUXKwDS7+Xtd+x/Ztq/lO8rfX1m9nW5+k0e0PLALCYSR7nqSrmls12IZzf2Ld2+Z5rtnLe0toYqpe7ysNZz5I/O/ZndsqqUPEjTd3ijr+lrGIABGICBs4kBhGvPC/Zs6ljaku4PFcJ1uvaEz+63p1bEa2W8VoXHRTDoi/0g7wuJ1nF7UvdFm9Dm7v8+YuO+aWOJ0PK20m9OMXuZSqj+y9i3s6Gpr/79H2yo6gMHKrJ7Qmt/X4VpjgvJCnN9kzn6vfR+L/X7is1Lt3lfs51CSOv/gfZFrqurL0nE6ms2OxPb6xbBaIHC2nXr6ec+PN+m77m+7wohv2FDfLj0OM79aCBPPf0M3tZ9mKU4RvicZxAYgAEYgIGzmQGEax5+GEwVwADCNf8IzrR/BHWz558KcTbING7ODQd5prUlrfr6g3+FG6+NhLtLqxzy4fcCBmDAMSBPmQt/fZl9FbMvYXt7xqxc9Ym54srf54R/diGu3XH5ilU8xxXwHOf6gyPfzSQGSv2+JuXJNZgTA/K2vvGmW62AFQ1hDSNnFiPaxqKpqSn4v1cLYJ5/4UW7QIGxxpnVr2l/D+vrj5snhg6zLLw4+pWSRGf3P0ke17t3fxlkLu16k1/f5pb+p/9hAAZgAAZ6EwMI10x28QBcAAMI1/xw96Yf7lBdtI+7vKy1z1f9gsVG+4TJ2/rQyJftvt2hNGfzZ9p7TpOE8kbUq6a21kyeMi2733Yx3o9ns51oG79tMNC9DGjBjLyvtAdvKZOO2n953foNdq9e7dnrBOvLLv+dGT5ipPlyz1c8xxXwHAfn3cv52WLfrn5fzxY70I70vy+VVVX2/8DGTZtLErDok/T7pFSbfrH7S7sYbfCjj9t9tDXG0FhD/+uHPDbUhoKXt/X0GbP4/9xH/z9rr/PzL7jIsqCFDFrsUApvem7U86PY0v+nUvIgTe/57aAv6AsYgAEYgAEYKI4BhOs++jDNF6W4LwrCdXH2gq+et1fj9p1ZsVqCtV6VDwwxjVu398lBriaQrux/jV3lrrCM/uuaa2801dWH+qRd+G72/HcTm2NzGIABGIABGIABGDg7GJBwrS2H/LGFfy7RevRLr7JAoQ/Ps8lT+pbb7jTLl680WkzNd//s+O7Tj/QjDMAADMAADPQsAwjXffiBmi9b4V82hOvCbQVX5bGVL1xX3P2wOfT8S6blq319dqAcEq5/+OOfmVEvvmxqamr6rF34fpbn+4ndsTsMwAAMwAAMwAAMnPkMyHv2o48XmQcHDjK/vPCSrICtccbDjwwxW7duwzuWOTbGmjAAAzAAAzAAAzAAA11koNcI1wzizvxBHH1IH8IADMAADMAADMAADMAADMAADMAADMAADMAADMAADMAADMAADMAADJTCAMJ1F5X/UoxOGr6sMAADMAADMAADMAADMAADMAADMAADMAADMAADMAADMAADMAADMAADMHCaAYRrhGvCFsAADMAADMAADMAADMAADMAADMAADMAADMAADMAADMAADMAADMAADMBAWRlAuAbAsgLIKpLTq0iwBbaAARiAARiAARiAARiAARiAARiAARiAARiAARiAARiAARiAARjoqwwgXCNcI1zDAAzAAAzAAAzAAAzAAAzAAAzAAAzAAAzAAAzAAAzAAAzAAAzAAAzAQFkZQLgGwLIC2FdXjNBuVkvBAAzAAAzAAAzAAAzAAAzAAAzAAAzAAAzAAAzAAAzAAAzAAAzAwGkGEK4RrhGuYQAGYAAGYAAGYAAGYAAGYAAGYAAGYAAGYAAGYAAGYAAGYAAGYAAGYKCsDCBcA2BZAWQVyelVJNgCW8AADMAADMAADMDA/9/eHesoDgVBFP3/b7Yto2cJF0ikuII+E040r/dkt2AZYIABBhhggAEGGGCAAQYYYIABBhiYakC4Fq6FawYYYIABBhhggAEGGGCAAQYYYIABBhhggAEGGGCAAQYYYKBqQLgGsApw6mLEu62lGGCAAQYYYIABBhhggAEGGGCAAQYYYIABBhhggAEGGIgB4Vq4Fq4ZYIABBhhggAEGGGCAAQYYYIABBhhggAEGGGCAAQYYYICBqgHhGsAqQCuSrEjcwi0YYIABBhhggAEGGGCAAQYYYIABBhhggAEGGGCAAQamGhCuhWvhmgEGGGCAAQYYYIABBhhggAEGGGCAAQYYYIABBhhggAEGGKgaEK4BrAKcuhjxbmspBhhggAEGGGCAAQYYYIABBhhggAEGGGCAAQYYYIABBmJAuBauhWsGGGCAAQYYYIABBhhggAEGGGCAAQYYYIABBhhggAEGGGCgakC4BrAK0IokKxK3cAsGGGCAAQYYYIABBhhggAEGGGCAAQYYYIABBhhggIGpBoRr4Vq4ZoABBhhggAEGGGCAAQYYYIABBhhggAEGGGCAAQYYYIABBqoGhGsAqwCnLka821qKAQYYYIABBhhggAEGGGCAAQYYYIABBhhggAEGGGCAgRgQroVr4ZoBBhhggAEGGGCAAQYYYIABBhhggAEGGGCAAQYYYIABBhioGhCuAawCtCLJisQt3IIBBhhggAEGGGCAAQYYYIABBhhggAEGGGCAAQYYYGCqAeFauBauGWCAAQYYYIABBhhggAEGGGCAAQYYYIABBhhggAEGGGCAgaoB4RrAKsCpixHvtpZigAEGGGCAAQYYYIABBhhggAEGGGCAAQYYYIABBhhgIAaEa+FauGaAAQYYYIABBhhggAEGGGCAAQYYYIABBhhggAEGGGCAAQaqBoRrAKsArUiyInELt2CAAQYYYIABBhhggAEGGGCAAQYYYIABBhhggAEGGJhqQLgWroVrBhhggAEGGGCAAQYYYIABBhhggAEGGGCAAQYYYIABBhhgoGpAuAawCnDqYsS7raUYYIABBhhggAEGGGCAAQYYYIABBhhggAEGGGCAAQYYiAHhWrgWrhlggAEGGGCAAQYYYIABBhhggAEGGGCAAQYYYIABBhhggIGqAeEawCpAK5KsSNzCLRhggAEGGGCAAQYYYIABBhhggAEGGGCAAQYYYIABBqYaEK6Fa+GaAQYYYIABBhhggAEGGGCAAQYYYIABBhhggAEGGGCAAQYYqBoQrgGsApy6GPFuaykGGGCAAQYYYIABBhhggAEGGGCAAQYYYIABBhhggAEGYkC4Fq6FawYYYIABBhhggAEGGGCAAQYYYIABBhhggAEGGGCAAQYYYKBqQLgGsArQiiQrErdwCwYYYIABBhhggAEGGGCAAQYYYIABBhhggAEGGGCAgakGhGvhWrhmgAEGGGCAAQYYYIABBhhggAEGGGCAAQYYYIABBhhggAEGqgaEawCrAKcuRrzbWooBBhhggAEGGGCAAQYYYIABBhhggAEGGGCAAQYYYICBGBCuhWvhmgEGGGCAAQYYYIABBhhggAEGGGCAAQYYYIABBhhggAEGGKgaEK4BrAK0IsmKxC3cggEGGGCAAQYYYIABBhhggAEGGGCAAQYYYIABBhhgYKoB4Vq4Fq4ZYIABBhhggAEGGGCAAQYYYIABBhhggAEGGGCAAQYYYICBqgHhGsAqwKmLEe+2lmKAAQYYYIABBhhggAEGGGCAAQYYYIABBhhggAEGGGAgBoRr4Vq4ZoABBhhggAEGGGCAAQYYYIABBhhggAEGGGCAAQYYYIABBqoGrnC9bVv1j7AkyJLALdyCAQYYYIABBhhggAEGGGCAAQYYYIABBhhggAEGGGCAAQamGRCuLSeMFhhggAEGGGCAAQYYYIABBhhggAEGGGCAAQYYYIABBhhggIGqgStcH8dR/SOmrQW810KGAQYYYIABBhhggAEGGGCAAQYYYIABBhhggAEGGGCAAQYYiIErXJ/nefq68BwFELdggAEGGGCAAQYYYIABBhhggAEGGGCAAQYYYIABBhhggAEGnjGwWvUdrn3q+pmjw+3ODDDAAAMMMMAAAwwwwAADDDDAAAMMMMAAAwwwwAADDDDAQAysVn2H6/Wp633ffWW4765ngAEGGGCAAQYYYIABBhhggAEGGGCAAQYYYIABBhhggAEGGHjEwGrU6+crXIvXqfoWDm7BAAMMMMAAAwwwwAADDDDAAAMMMMAAAwwwwAADDDDAAAMM/M/AO1r/DNfrl+uj2P7P6//9A8DttgwwwAADDDDAAAMMMMAAAwwwwAADDDDAAAMMMMAAAwwwMNXAatGrSX/+vABb55M4RiAzvgAAAABJRU5ErkJggg==;clipPath=inset(35.71% 26% 0% 0.67%);" vertex="1" parent="1">
          <mxGeometry width="566" height="46.31" as="geometry" />
        </mxCell>
        <mxCell id="493oTweiqtYjREhy8k81-10" style="edgeStyle=orthogonalEdgeStyle;rounded=0;orthogonalLoop=1;jettySize=auto;html=1;exitX=0.5;exitY=1;exitDx=0;exitDy=0;exitPerimeter=0;" edge="1" parent="1" source="493oTweiqtYjREhy8k81-3" target="493oTweiqtYjREhy8k81-9">
          <mxGeometry relative="1" as="geometry" />
        </mxCell>
        <mxCell id="493oTweiqtYjREhy8k81-3" value="参数校验" style="strokeWidth=2;html=1;shape=mxgraph.flowchart.decision;whiteSpace=wrap;fillColor=#fff2cc;strokeColor=#d6b656;" vertex="1" parent="1">
          <mxGeometry x="285" y="180" width="70" height="70" as="geometry" />
        </mxCell>
        <mxCell id="493oTweiqtYjREhy8k81-4" value="抛出异常" style="strokeWidth=2;html=1;shape=mxgraph.flowchart.terminator;whiteSpace=wrap;" vertex="1" parent="1">
          <mxGeometry x="430" y="192.5" width="80" height="45" as="geometry" />
        </mxCell>
        <mxCell id="493oTweiqtYjREhy8k81-5" style="edgeStyle=orthogonalEdgeStyle;rounded=0;orthogonalLoop=1;jettySize=auto;html=1;exitX=0.5;exitY=1;exitDx=0;exitDy=0;exitPerimeter=0;entryX=0.5;entryY=0;entryDx=0;entryDy=0;entryPerimeter=0;" edge="1" parent="1" source="493oTweiqtYjREhy8k81-1" target="493oTweiqtYjREhy8k81-3">
          <mxGeometry relative="1" as="geometry" />
        </mxCell>
        <mxCell id="493oTweiqtYjREhy8k81-6" style="edgeStyle=orthogonalEdgeStyle;rounded=0;orthogonalLoop=1;jettySize=auto;html=1;exitX=1;exitY=0.5;exitDx=0;exitDy=0;exitPerimeter=0;entryX=0;entryY=0.5;entryDx=0;entryDy=0;entryPerimeter=0;" edge="1" parent="1" source="493oTweiqtYjREhy8k81-3" target="493oTweiqtYjREhy8k81-4">
          <mxGeometry relative="1" as="geometry" />
        </mxCell>
        <mxCell id="493oTweiqtYjREhy8k81-7" value="No" style="edgeLabel;html=1;align=center;verticalAlign=middle;resizable=0;points=[];" vertex="1" connectable="0" parent="493oTweiqtYjREhy8k81-6">
          <mxGeometry x="-0.1733" y="1" relative="1" as="geometry">
            <mxPoint as="offset" />
          </mxGeometry>
        </mxCell>
        <mxCell id="493oTweiqtYjREhy8k81-8" value="" style="shape=image;verticalLabelPosition=bottom;labelBackgroundColor=default;verticalAlign=top;aspect=fixed;imageAspect=0;image=data:image/png,iVBORw0KGgoAAAANSUhEUgAAB64AAAC6CAYAAAAecGPgAAAAAXNSR0IArs4c6QAAIABJREFUeAHt3XuwJVWdL/g7MTH9x0RHzJ2I/mPmhnEjuo1WG8Jux2erV8e2Z7g9aiNeaaLvdbSnp3u67dZSUSleIrYoqKCCiCACAqKAlM1D0Ob9EBChVJ4CIlCvU1XU+3Wqzikl1sQvq9Z2nX0y9869zz7sqnM+RJzI/chcmbnyk7mL/K618t/9O/+pATWgBtSAGlADakANqAE1oAbUgBpQA2pADagBNaAG1IAaUANqQA2oATWgBtSAGhh3DaSG/55//vn061//uvrbu3dv8qcOGGCAAQYYYIABBhhggAEGGGCAAQYYYIABBhhggAEGGGCAAQYGNZBz58ig6/6rMvPuL3JgPejKzA8oAwwwwAADDDDAAAMMMMAAAwwwwAADDDDAAAMMMMAAAwwwwEAvAxFidwfYs4Lr3/zmN3pW613OAAMMMMAAAwwwwAADDDDAAAMMMMAAAwwwwAADDDDAAAMMMDCvBiKbzv/NCK6F1lo+9Gr54Ds+GGCAAQYYYIABBhhggAEGGGCAAQYYYIABBhhggAEGGGBglAZyeN0JrqMr9ihXoCxgGWCAAQYYYIABBhhggAEGGGCAAQYYYIABBhhggAEGGGCAAQb6GYisuhNcxzji/RbwPVQMMMAAAwwwwAADDDDAAAMMMMAAAwwwwAADDDDAAAMMMMAAA6M0EFl1FVzrbQ3WKGEpiycGGGCAAQYYYIABBhhggAEGGGCAAQYYYIABBhhggAEGGBjEQBVc620NzSBozMsLAwwwwAADDDDAAAMMMMAAAwwwwAADDDDAAAMMMMAAAwyM0oDgei9QowSlLJ4YYIABBhhggAEGGGCAAQYYYIABBhhggAEGGGCAAQYYYGBQA1VwPehC5geNAQYYYIABBhhggAEGGGCAAQYYYIABBhhggAEGGGCAAQYYYGBUBgTXelynUWFSjgsTAwwwwAADDDDAAAMMMMAAAwwwwAADDDDAAAMMMMAAAwwMY0BwLbgWXDPAAAMMMMAAAwwwwAADDDDAAAMMMMAAAwwwwAADDDDAAANjNSC4BnCsAIdpbWEZrXQYYIABBhhggAEGGGCAAQYYYIABBhhggAEGGGCAAQYYWFgGBNeCa8E1AwwwwAADDDDAAAMMMMAAAwwwwAADDDDAAAMMMMAAAwwwMFYDgmsAxwpQS5iF1RLG8XQ8GWCAAQYYYIABBhhggAEGGGCAAQYYYIABBhhggAEGhjEguBZcC64ZYIABBhhggAEGGGCAAQYYYIABBhhggAEGGGCAAQYYYICBsRoQXAM4VoDDtLawjFY6DDDAAAMMMMAAAwwwwAADDDDAAAMMMMAAAwwwwAADDCwsA4JrwbXgmgEGGGCAAQYYYIABBhhggAEGGGCAAQYYYIABBhhggAEGGBirAcE1gGMFqCXMwmoJ43g6ngwwwAADDDDAAAMMMMAAAwwwwAADDDDAAAMMMMAAA8MYEFwLrgXXDDDAAAMMMMAAAwwwwAADDDDAAAMMMMAAAwwwwAADDDDAwFgNCK4BHCvAYVpbWEYrHQYYYIABBhhggAEGGGCAAQYYYIABBhhggAEGGGCAAQYWlgHBteBacM0AAwwwwAADDDDAAAMMMMAAAwwwwAADDDDAAAMMMMAAAwyM1YDgGsCxAtQSZmG1hHE8HU8GGGCAAQYYYIABBhhggAEGGGCAAQYYYIABBhhggIFhDAiuBdeCawYYYIABBhhggAEGGGCAAQYYYIABBhhggAEGGGCAAQYYYGCsBgTXAI4V4DCtLSyjlQ4DDDDAAAMMMMAAAwwwwAADDDDAAAMMMMAAAwwwwAADC8uA4FpwLbhmgAEGGGCAAQYYYIABBhhggAEGGGCAAQYYYIABBhhggAEGxmpAcA3gWAFqCbOwWsI4no4nAwwwwAADDDDAAAMMMMAAAwwwwAADDDDAAAMMMMDAMAYE14JrwTUDDDDAAAMMMMAAAwwwwAADDDDAAAMMMMAAAwwwwAADDDAwVgOCawDHCnCY1haW0UqHAQYYYIABBhhggAEGGGCAAQYYYIABBhhggAEGGGCAgYVlQHAtuBZcM8AAAwwwwAADDDDAAAMMMMAAAwwwwAADDDDAAAMMMMAAA2M1ILgGcKwAtYRZWC1hHE/HkwEGGGCAAQYYYIABBhhggAEGGGCAAQYYYIABBhhgYBgDB3RwPb17d9q1/IG09eplafPFF1Z/8To+i++G2eFRLjM9tTvtXHN32vLYJWnTz86s/uJ1fBbfjXJdw5Q1ObU73bX2nnTRk5elMx45u/qL1/FZfDdMmZZxoWGAAQYYYIABBhhggAEGGGCAAQYYYIABBhhggAEGGGCAgVEbOCCD6wimN5x4bFpx2FvSuiMPT5uPemfa+u63V3/xOj6L72KemHfUldKvvB2rf5Seu/Xv07OX/mGaWPaqtOnqV6QtVx9S/cXr+Cy+i3li3n7ljfr7CKbfe/f704uuOjQdcsMb0stufH36g5teU/3F60NueH160bJDq3li3lGvX3kuVAwwwAADDDDAAAMMMMAAAwwwwAADDDDAAAMMMMAAAwwwMIiBAyq43rN+XRVGTxzxtrTjyHek5993ZEp/c1TtX3wX88S8EWDHsoPs+DDz7tm+pgqjV1/xirT92kPS8ze/PKVb/7j2L76LeWLeCLBj2WHWOcgya7ZPVGH0S697bfr9W16TXvLjN6eX/uR/r/2L72KemDdC7lh2kHWZ14WGAQYYYIABBhhggAEGGGCAAQYYYIABBhhggAEGGGCAAQZGZeCACa6j5/TqI/b1qm4Kq5s+j97Ysex89r6OntMrr9jXs7oprG76PHpjx7Lz2fs6ek6/7JrXVb2qm8Lqps+jN3Ysq/e1C8uoLizKYYkBBhhggAEGGGCAAQYYYIABBhhggAEGGGCAAQYYYGAQAwdEcB2B88rD3pImjzq8tnd1U2Bdfr7rqH3Dh89HeB2Bcwz9vev6Q2t7VzcF1uXnsWyUMR/hdQTOMfT3i2//09re1U2Bdfn5i2/702poceG1C8ggFxDz8sIAAwwwwAADDDDAAAMMMMAAAwwwwAADDDDAAAMMMDAKA2MPrmOI7+gtPZfQOgfYEV5HWaMcNjyG+I7e0nMJrXOAHWVEWaMcNnzNjomqt/RcQuscYEd4HT2vo8xR4FKGixQDDDDAAAMMMMAAAwwwwAADDDDAAAMMMMAAAwwwwAADDLQxMPbgOp5PHUN95/B5rtMoK8pss/Nt5onnU8dQ3zl8nus0yooy26y7zTzvvef9Qw0PnsPq7mkMGx7PvG6zbvO4yDDAAAMMMMAAAwwwwAADDDDAAAMMMMAAAwwwwAADDDDAwCgMjDW43vnA/WniiLeNLLTOoXeUGWXPtYJiWO/VV7xiZKF1Dr2jzFEMGX7nxN3ppde9dujhwbtD6877616bouy51p/lXaQYYIABBhhggAEGGGCAAQYYYIABBhhggAEGGGCAAQYYYKCNgbEG19EzeseR7xh5cB1ljqLXdfSM3n7t6Hpb5+A6yhxFr+voGf37t7xm5MF1lKnXtQtImwuIeThhgAEGGGCAAQYYYIABBhhggAEGGGCAAQYYYIABBhgYhYGxBdfTu3enFYe9JT3/viNHHlxHmSsPe0uKdQxbSdNTu9Ozl/5hev7ml4+8x3WUGWXHOobdvt1Tu9OLlh2aXvLjN488uI4yo+xYx7DbZzkXKAYYYIABBhhggAEGGGCAAQYYYIABBhhggAEGGGCAAQYYaGtgbMH1ruUPpHVHHj7y0DoPFx5lxzraVkT3fDvX3J0mlr1q5KF17nUdZcc6utfb9v1da+9Jh9zw+pGH1nm48Cg71tF2e8znosMAAwwwwAADDDDAAAMMMMAAAwwwwAADDDDAAAMMMMAAA8MaGFtwvfXqZWnzUe+ct+A6yo51DFsxWx67JG26evTPt87BdZQd6xh2+y568rL0shvnL7iOsmMdw26f5VyUGGCAAQYYYIABBhhggAEGGGCAAQYYYIABBhhggAEGGGCgrYGxBdebL74wbX332+ctuI6yYx1tK6J7vk0/OzNtuXr0z7fOwXWUHevoXm/b92c8cnb6g5tG/3zr3OM6yo51tN0e87noMMAAAwwwwAADDDDAAAMMMMAAAwwwwAADDDDAAAMMMMDAsAYE13vr8QiuBdfDnlSWqz+n1It6YYABBhhggAEGGGCAAQYYYIABBhhggAEGGGCAAQYYaDIwtuDaUOGGCm9C6XMXLAYYYIABBhhggAEGGGCAAQYYYIABBhhggAEGGGCAAQYWl4GxBde7lj+Q1h15+LwNFR5lxzqGBb1zzd1pYtmrUh7ae9TTKDvWMez23bX2nnTIDfP3jOsoO9Yx7PZZbnFdSBxvx5sBBhhggAEGGGCAAQYYYIABBhhggAEGGGCAAQYYYGAuBsYWXE/v3p1WHvaW9Pz7jhx5eB1lrjjsLSnWMWzlTE/tTs9e+ofp+ZtfPvLwOsqMsmMdw27f7qnd6UXLDk0v+fGbU34u9aimUWaUHesYdvss58LEAAMMMMAAAwwwwAADDDDAAAMMMMAAAwwwwAADDDDAAANtDYwtuI4N3HDisWnHke8YeXAdZUbZbSuhab7nbv37tP3aQ0YeXEeZUXbTett+/t67359+/5bXjDy4jjKj7LbbYT4XHAYYYIABBhhggAEGGGCAAQYYYIABBhhggAEGGGCAAQYYmIuBsQbXOx+4P00c8baRB9dRZpQ9l4qJZXes/lFafcUrRh5cR5lR9ly3786Ju9NLr3vtyIPrKDPKnuv2Wd7FiQEGGGCAAQYYYIABBhhggAEGGGCAAQYYYIABBhhggAEG2hgYa3AdGxg9o7e+++0jC6+jrFH0ts6VFz2jt1w9ul7XUdYoelvn7Yue0X9w0+h6XUdZ771Hb+tcv6YupAwwwAADDDDAAAMMMMAAAwwwwAADDDDAAAMMMMAAAwzMv4GxB9d71q9Lq494e9p11OFzDq8njzq8KivKHBWePdvXpJVXvCLtuv7QOfe8jjKirChzVNu3ZsdEetk1r0svvu1P59zz+sW3/2lVVpQ5qu1TzvyfxOpYHTPAAAMMMMAAAwwwwAADDDDAAAMMMMAAAwwwwAADDBzsBsYeXEcF7lr+QFpx2FvmFF5HaL0yylj+wMhD1xjW+9lL/3BO4XWE1lHGKIYI70Z319p70ouuOnRO4XWE1i9admiKsrrL996FjgEGGGCAAQYYYIABBhhggAEGGGCAAQYYYIABBhhggAEG5tPAARFcxw5G4Bw9r4cZNjyWqXptz0NonSs/AufoLT3MsOGxTCw7H6F13r4InKPn9TDDhscysazQ2sUmezJlgQEGGGCAAQYYYIABBhhggAEGGGCAAQYYYIABBhhg4IU0cMAE17HTMcR3PJ964oi3pR1HviM9/74jG4cPj+9inpg3lhnl8OBNByCG+I7nU6++4hVp+7WHpOdvfnnj8OHxXcwT88YyoxwevGn71myfSPHM65de99r0+7e8Jr3kx29uHD48vot5Yt5YJpZtKtfnLkoMMMAAAwwwwAADDDDAAAMMMMAAAwwwwAADDDDAAAMMMDCfBg6o4DrvaPS+jjA6hg9fd+ThafNR76x6YkfP6ngdn8V3Mc98DA2et6NpGj2nI4yOob8nlr0qbbp6X0/s6Fkdr+Oz+C7mmc9e1k3bFz2nI4yOob8PueH16WU3vr7qiV31rL7x9emQG95QDS0e8+hl7QLT5MjnbDDAAAMMMMAAAwwwwAADDDDAAAMMMMAAAwwwwAADDLxQBg7I4Drv/PTu3VUwvfXqZWnzxRdWf/E6wur4Ls83run01O60c83dactjl6RNPzuz+ovX8Vl8N67tyuudnNpdBdMXPXlZOuORs6u/eB1hdXyX5zN1wWGAAQYYYIABBhhggAEGGGCAAQYYYIABBhhggAEGGGCAgXEaOKCD63FWjHU7MRlggAEGGGCAAQYYYIABBhhggAEGGGCAAQYYYIABBhhggIEXxoDgeu8LU9FAq2cGGGCAAQYYYIABBhhggAEGGGCAAQYYYIABBhhggAEGGGCg3oDgWnBtyHAGGGCAAQYYYIABBhhggAEGGGCAAQYYYIABBhhggAEGGGBgrAYE1wCOFaAWJfUtStSLemGAAQYYYIABBhhggAEGGGCAAQYYYIABBhhggAEGGFhMBgTXgmvBNQMMMMAAAwwwwAADDDDAAAMMMMAAAwwwwAADDDDAAAMMMDBWA4JrAMcKcDG1ErGvWkUxwAADDDDAAAMMMMAAAwwwwAADDDDAAAMMMMAAAwwwUG9AcC24FlwzwAADDDDAAAMMMMAAAwwwwAADDDDAAAMMMMAAAwwwwAADYzUguAZwrAC1KKlvUaJe1AsDDDDAAAMMMMAAAwwwwAADDDDAAAMMMMAAAwwwwMBiMiC4FlwLrhlggAEGGGCAAQYYYIABBhhggAEGGGCAAQYYYIABBhhggIGxGhBcAzhWgIuplYh91SqKAQYYYIABBhhggAEGGGCAAQYYYIABBhhggAEGGGCAgXoDgmvBteCaAQYYYIABBhhggAEGGGCAAQYYYIABBhhggAEGGGCAAQYYGKsBwTWAYwWoRUl9ixL1ol4YYIABBhhggAEGGGCAAQYYYIABBhhggAEGGGCAAQYWkwHBteBacM0AAwwwwAADDDDAAAMMMMAAAwwwwAADDDDAAAMMMMAAAwyM1YDgGsCxAlxMrUTsq1ZRDDDAAAMMMMAAAwwwwAADDDDAAAMMMMAAAwwwwAADDNQbEFwLrgXXDDDAAAMMMMAAAwwwwAADDDDAAAMMMMAAAwwwwAADDDDAwFgNCK4BHCtALUrqW5SoF/XCAAMMMMAAAwwwwAADDDDAAAMMMMAAAwwwwAADDDCwmAwIrgXXgmsGGGCAAQYYYIABBhhggAEGGGCAAQYYYIABBhhggAEGGGBgrAYE1wCOFeBiaiViX7WKYoABBhhggAEGGGCAAQYYYIABBhhggAEGGGCAAQYYYKDegOBacC24ZoABBhhggAEGGGCAAQYYYIABBhhggAEGGGCAAQYYYIABBsZqQHAN4FgBalFS36JEvagXBhhggAEGGGCAAQYYYIABBhhggAEGGGCAAQYYYICBxWRAcC24FlwzwAADDDDAAAMMMMAAAwwwwAADDDDAAAMMMMAAAwwwwAADYzUguAZwrAAXUysR+6pVFAMMMMAAAwwwwAADDDDAAAMMMMAAAwwwwAADDDDAAAP1BgTXgmvBNQMMMMAAAwwwwAADDDDAAAMMMMAAAwwwwAADDDDAAAMMMDBWA4JrAMcKUIuS+hYl6kW9MMAAAwwwwAADDDDAAAMMMMAAAwwwwAADDDDAAAMMLCYDgmvBteCaAQYYYIABBhhggAEGGGCAAQYYYIABBhhggAEGGGCAAQYYGKsBwTWAYwW4mFqJ2FetohhggAEGGGCAAQYYYIABBhhggAEGGGCAAQYYYIABBhioNyC4FlwLrhlggAEGGGCAAQYYYIABBhhggAEGGGCAAQYYYIABBhhggIGxGhBcAzhWgFqU1LcoUS/qhQEGGGCAAQYYYIABBhhggAEGGGCAAQYYYIABBhhgYDEZEFwLrgXXDDDAAAMMMMAAAwwwwAADDDDAAAMMMMAAAwwwwAADDDDAwFgNCK4BHCvAxdRKxL5qFcUAAwwwwAADDDDAAAMMMMAAAwwwwAADDDDAAAMMMMBAvQHBteBacM0AAwwwwAADDDDAAAMMMMAAAwwwwAADDDDAAAMMMMAAAwyM1YDgGsCxAtSipL5FiXpRLwwwwAADDDDAAAMMMMAAAwwwwAADDDDAAAMMMMAAA4vJgOBacC24ZoABBhhggAEGGGCAAQYYYIABBhhggAEGGGCAAQYYYIABBsZqQHAN4FgBLqZWIvZVqygGGGCAAQYYYIABBhhggAEGGGCAAQYYYIABBhhggAEG6g0IrgXXgmsGGGCAAQYYYIABBhhggAEGGGCAAQYYYIABBhhggAEGGGBgrAYE1wCOFaAWJfUtStSLemGAAQYYYIABBhhggAEGGGCAAQYYYIABBhhggAEGGFhMBgTXgmvBNQMMMMAAAwwwwAADDDDAAAMMMMAAAwwwwAADDDDAAAMMMDBWA4JrAMcKcDG1ErGvWkUxwAADDDDAAAMMMMAAAwwwwAADDDDAAAMMMMAAAwwwUG9AcC24FlwzwAADDDDAAAMMMMAAAwwwwAADDDDAAAMMMMAAAwwwwAADYzUguAZwrAC1KKlvUaJe1AsDDDDAAAMMMMAAAwwwwAADDDDAAAMMMMAAAwwwwMBiMiC4FlwLrhlggAEGGGCAAQYYYIABBhhggAEGGGCAAQYYYIABBhhggIGxGhBcAzhWgIuplYh91SqKAQYYYIABBhhggAEGGGCAAQYYYIABBhhggAEGGGCAgXoDgmvBteCaAQYYYIABBhhggAEGGGCAAQYYYIABBhhggAEGGGCAAQYYGKsBwTWAYwWoRUl9ixL1ol4YYIABBhhggAEGGGCAAQYYYIABBhhggAEGGGCAAQYWkwHBteBacM0AAwwwwAADDDDAAAMMMMAAAwwwwAADDDDAAAMMMMAAAwyM1YDgGsCxAlxMrUTsq1ZRDDDAAAMMMMAAAwwwwAADDDDAAAMMMMAAAwwwwAADDNQbEFwLrgXXDDDAAAMMMMAAAwwwwAADDDDAAAMMMMAAAwwwwAADDDDAwFgNCK4BHCtALUrqW5SoF/XCAAMMMMAAAwwwwAADDDDAAAMMMMAAAwwwwAADDDCwmAwIrgXXgmsGGGCAAQYYYIABBhhggAEGGGCAAQYYYIABBhhggAEGGGBgrAYE1wCOFeBiaiViX7WKYoABBhhggAEGGGCAAQYYYIABBhhggAEGGGCAAQYYYKDegOBacC24ZoABBhhggAEGGGCAAQYYYIABBhhggAEGGGCAAQYYYIABBsZqQHAN4FgBalFS36JEvagXBhhg4OA1sHXr1vTccxvSps2b0/T0tN9Z/9YamYHwFK7CVzhznTh4rxOOnWPHAAMMMMAAAwwwwAADDDDAAAMMzDYguHYz1U1PBhhggAEGGJijgYcfeTR9YMnR6Y9f8dr00j/6k+rv6I8tTTt27Kit2z179qSNGzdWAWTTPP7hOvsfrouxTiKsvutHd6f3/s3fpUNf/qqOry+c/qVaW1FHYSrC7TAW1hZjvdln5w8DDDDAAAMMMMAAAwwwwAADDDBw8BkQXM/xRjX0Bx96x+zAPGbb7rkvrViyNK344DFp43evdpN9796065e/SmtP/0paefTxVb1E3cTf+q+er34WybV7xyOPpZUfPXHG8c8Ott1170HtYNP3ruvs18G+L08++ct02F/8ZSdQbBNcP/HkL9Nb3vqfO8u88U1/nr585tlpw4aNYz2uUzt3ps3XXJ9Wn/DpzjU5zIXD8Og39IX/Db333vvSa173po6V7KtXcH3ld5fNmP9d7/7rdO111wuxF8lvh/P0hT9P1bk6Z4ABBhhggAEGGGCAAQYYYGA0Bg6I4LrpxvzKDx+XVp14Stpw6eVp9+qJvjdLI+zKN/TbTOvCn3JbhgnPprZtSxOnfnGg7cg37IdZttzPcn/2rFufVh//L623Y5w3pB9dvz39hzPvSv/dZ25JH7vpiTTtpmJf6wvxAhjnQfY8zLl3INdJmA7bYTysh/l+27vjoUfSqo+f1KmTXDcxLc/1fuUs1O9vfGpD+t3P357++8/emr6+fFXf+jxY66H8TSoNxOv823Gw7lv5m30g7csw5+tF37ykCglf+eo3pO9858q0bdu2via7g+scRi497sTGXtp1x3rXnql05aNr01u/tTz9z2fcUV1n4lrzv555V/p/r3s0/WrTzr7bksudntyd1p17Ye11Z5z/Tsjbtxin0Vv6Xz59auXrP735z9NNN9+SJicn+x7T7uA6fEVv7WXf0zBsMTqyz6P5H2f1qB4ZYIABBhhggAEGGGCAAQYYmH8DB3RwPeMm/ZKlaf05F6Spbc2BT3kTfMay+3spdn9WF/6UIcEw4dkw4XO+YT/MsuU+lftzMAXXS29+srrR/qKz7kqPb6gfUtXFYP4vBuOu44Xc4zpch+8Ik8J7v7qe3rmr6mkd53eE11tvuSPFOd3527ylbxn91nEwfz85NZ3e9d0Hq/p89QU/SRt27F6w9RFB4p71z3WO/fZ7708rP3pCFSzm346D9VgeqD2uBz5fp6fTaZ87owoW3/9PSwZ+7nAMA71q9ep0woknV2W84Y1/lh56+JFWpu94dmP6X76879oS15e6v39/+h3pqsfWtSpv+30PpBUfOrbyte7Mc9Pk08927IXD8HiwejtYt3v79u3pwx/5eGUjAuxBh/2O+e+/f3k64l1HDW30YK07273w/+3oGDvGDDDAAAMMMMAAAwwwwAADDCw8AwdccL3uy1/r3CTd9cRTaeMV35vRc3jitC+nPQ2hTRlcb/nhLZ1yOmFPGfzE65pyRhlcrz7uU2nnL57oux0RUlUn1/R0mtq4qXb+DZde0ekB1bhvxf6UwfWaU76QJp9ZUVtup27GdEN65Zad6SXn3FPdbP+76x7V21pv8wUZinz+nmcq47/3xTvTA2v6h87l+RvXQD++M398ow6jLiOki7pdTPVT/kYd7MH1gXrcBj1f41nC8Szr6NHa65nW/fY3wuoIraOceJ5xv/nj++hpHefB/3T6Hekfr3+sur6s2LKrmv7X7z1cjUgQ37/4q3enp1r0vM7/jop/v+yeWNtqG9psp3lmXsMGqY94TvVfHfWeykWvocH7lZlHBfgvR/51Wrd+vWPr31sMMMAAAwwwwAADDDDAAAMMMMAAAwekgQMuuC57DeebcPG8xQ2XXdl51uJzF1ya9k5Pz6rQfMM1eikOe0O/DAXm2uM6huqOACrvx1ymg+5bGXzF0OXRm3vy2Bc6AAAgAElEQVQu65+vZQcNCOZrO5Q7/E11dde77oZpnFFeh4a9li3U4xLDOEcjlwjjotFL1O9C3de6/WKj9/lWV2eDfDbU+Tqi4HrNmon0ziP+qgooY5jnNtu97LF16e+//1jauHN2T+g4VyLMjnMl/s7/af8h9ePfYPFvqAP53w1t6mUhzTOq4PrmW26rbMVz1WOY+oVUR/Zlfq+L6lf9MsAAAwwwwAADDDDAAAMMMMDAC2ngoAiuo0LKYbRj6Nzojd1dUYOGu93Lx/syFBBcz+/JuHbbZHrlN+6rbqjHsL8x/G/dMfHZ/B4H9Tu/9RvPX47nMMfzmG97ZmMr4+V1SHA98/jE88HjOeERxLUZdn2h+WZjpodRH9+hztcRBddlQNk2uN4zPd1zpJKbfrUh/Y+fu606Xz55++x/N3XXn+B6fn1113eb96WLufS4vvfe+wTXWlG3+jdIG5fmOfCuFY6JY8IAAwwwwAADDDDAAAMMMLBQDBw0wXVU+JYbb+0Ml735mhtm3XwRXP/2xDwYelxf+LPVrQK9CO6iB9jqkz6b9mzYmCZ/9Uz1/N+VHz6u+nzV0pPTcxd/O+3ZsnWWifJE7dTJkqUpnqcc3+166unq2ekrjz5+n60lS6v1bLnptjS9e3YPtnKZVcec1PFYbcNFlw3Uw75a93kXpRiSdcWSpVVZsR0TXzgrbb//p2nv1FTP/Ylh5TdddU1afcKnf7v8x05M6846L+365a96LlvVy/R02vHgI/vq8mMndvYltiGGl9909feroevLOux+HaMhxND1qz95asrHo3ou8zEnpRj2P45dr2ei5mMby5R/bRuN5HM+9w7cvWYirfvahSkfz5jG+/i8e9u7308+u2KGhbzsnnXPdRq0rPzoidXr7mWb3sezl+MZzBGy9mqcUYaRZT00va4bmSK2Iep6x88eSuvP+ca+RyzsdxW+4vzZtOzavudJ3pfq2N50W2Uh12dVzgmfrkbACH953trp9HTlcP05F6SV2Vdsx/7l+52vtWXu3VuF1VGf8czweBZx03zxeTyTNxyH5842fPCY6nWcJ+G/bvSOWLZsLFV5jPNl+c+rsvL5Gufu5muuT1FXjdsxNZV2Pv5kWn/BpWnViaf89jzJdXHp5QNdN0orbRo1bLn59n3Xhw8dm7bf+5Pm7Yzr4S9/lVYd88nqXIxral3dzPWcz+dst+02+1LWcfiJ69+q4vpX+TzuU5X/OA/6XUPL8uJ12/O1e7lRDRVeBpRtg+vubel+f8UjazvDhZ9y1+zfhRxUdx+Puvf9rn91NuJ3Yc1nTk/b7v5x3+Mxqt/oqIM5/75u2542/+Dm6rqZz/e4Dsbvc1wH6s6N7rof1fvSheD6t//OHVX9KkedMsAAAwwwwAADDDDAAAMMMMAAAweWgYMquI7nRa/62Ceqm+oRinUHi+UN8UFvgmeYZShQhRUD9s4oww5DhTdj3za5J731W8urQC+m8T4fg+5pDjejPrfecXeKHvd1N9UjFNq9anVjOZ2b4vuHkt96+486AWd3eTkInbEt09MpGkyUAW33cnFjv7pB38NNhIsbL1/WCZu7y8jvN33vusZ9iXXEuvK8s6ZLllYhZdPN9Th32mxDU0Aa9bLnuQ3VcLKz1t0VQvc6F/Ox7S6j7bmXz/k1//L5tP3H96dVS/eFbt3l9bPRqz5j2Qg/o8x+wc0ML3v3pqsfX59+59Rbq7943f19fl9ed7q3ve5903FpE0JFHe34+cON2xLbFAHm6k98ptnXB4+pAsMIhvM+lNMw/txFl/U0Xm3Hw4/VLl+WVb4eZBjnVnW6ZGlaf95FtcFzeS3fcMl3qvMpB1jdx2TduRc2NtDIRruXKd9HILb11jtbhWHlfvU6t3K9Ta5Yta9xzAePSevPv7jnOjZ//9/2OT/6hFojozjnm+qjzb509unpZ/cF1l3Xmhl1OmAjkyi77fmatyNPy+D6xE+cnCYnJwdyncspA8pRBNcRxL/5kgeq39l/f/od6e4Vm2dtV5trRq7XXte/eB52XIfzvHXT+Hfbns1bZm1D3v85/0bvb7zT5ret1+/rzsce39fwp8nX/utGr0ZZeZ9GMS1dnPO18xrrr9+69Lhu/jdpv7rzvbpjgAEGGGCAAQYYYIABBhhggAEGXjgDB1VwXd7UzL1vSyzlDfFBboKXZZShQJRXftfmdRl2CK6bIQ8SEHTCzSVLq9A4Gi9svuHGFDfKJ59+tgqecqA08bkzG5/nXfp57sJvpVXHfapqCLH52h9UgXd8v/PBh9PaM86ufb7n9vse6ITW5TZEWL7x21d1QvAI1nc++ni9nenpGYFeGImwKMqI9ccQ+Ou/cUlVVpO/bXfd09mOavkf3FzVRSwfPSonTvvSvvDpw8elrbfdVbsd5b7EuRShWdRn3oa48R/BYlNAGoF4PGu+CieWLE3rvnJeVXexfLUd9z1QLRshf69zcXrnrmr+WCYaplS9zz94TGra9+5zMJ/zEahEXVT7cufdVZlR3trTv9IJUjZc9t3auph8ZkVlIfYlAsQ4lnE8yuOae6H2Cm66t22QxhkRgEQI3Km/e+9PKz96QrXt0aM9f96ZNoQ/cbxiH6I3cdR7PqaxL+E8N/yJXqq7V9Y38qh63R57cufYrj/7/M6xjfLCyupPnVbVd2xP935Ho4gIg7ONOCd3/PTBah+q7fj+v6VV+8vv16Cgu+zP3/NMFcL93hfvTA+saQ7AYrm4lsf+RgC/8YrvVedWrr98nufrxsYr/3VWoNt9LY+yKue/eKLal2j4Eub2uakPemM7wmicBxOfP7MaNSTqILYj6jJ6Q1c9hnOjiOgB3qPRS96vcBjr7XVudcqZnq4C65g/ervHejvfFeuK3rLRmzTma2q4M4pzPuo1H4fthfNW+xI94XfurK7RVb1/+Lhq3+K6mes0yon9iOMVBur2te6zQc7X7uW3bt2a3v9PS6phmOfSI7YMKOcaXMf+vOdfH67Ol3hUwcl3PFU7pHgEyfl4xDTC5ajbGKUgro3ld3GNqgtry2MS51T8hsb1N5aNc78MtOPa0N3oMNdnzJ/PqWF+o6vfpaLBTPX7OODva/x258ZxYSh69edzNq4bcQ2orhvROOyqa2ZdN/K+jHI6zLPP69YvuG7+N2ldfflMfTHAAAMMMMAAAwwwwAADDDDAAAPjMXBQBdfdQULc5Czh5BArbrrWhj37Q7XqRmzDDdiRBtfHfapz87ZaZ7n+/a+r4Xan+z/budy3Njf4yxvAtTegu7elIQgr63dUr3ftmUqHX/Hz6oZ6DKMcvcJ6lR37G8e0CiqiF113uDM9nSJ4quZZsrQKg+rKK+tkxYeOrW7MxzDQs+adnk6TzzybIlTN35WhTtzU3vHQ7IApQuLcGztubtfdnC8D4wiYpzbN7gEX64xQse44R4/HCGdjXydO+3Jt77UIFmJ45pgnjn1dD7cIx+P7CO8jnMj7WU6jnBjiuPwsv44h2/N2rDvz3NowI+aN7W0KynJZeVoen/CeP+81Lc+LuhA0zq8cmsR0T3d9FwF8HLu6oL96REEeyn2AXpw3PrWheq51hEYxLH6v/ej+rrwO1Tnonj+/j+XCan7fPY1zJ4eedXVcBlBVfdxyR30wMzWVtt5yRzV0f/c6OsZ7BDvhOwe2TQ0Kustdu20yvfIb91XXjV7DruflwlP0Ns7vu6fleVIX6Ja/N3Gu1PWqjlBu5dH7GhhsuOTy2nXFOdRrWPSyLuK8bRolIW//MDbimMQ1LwK3CMtzWeU0wt8c2NU9imM+zvlh9qUcznzDpVc01lc8HiCuP+U+9no9l/P10UcfS//pzX9eBdcXffOS1uvs3p4yuJ5Lz9rNu/akI696sBNaf+AHv0jxu9u9vrr3uQd2beOFoqFDuWw0mKp8NZwn8RsUv1dxHsX50jTiQ/kbMOhvdGxP59pT/T4O/vtaXv/qfk+qfS7+vRENrcprTDxDPB5jMOjffzzrR2nFlt/+e6Os23h92+13pENf/qrK18233NbqOHaXEe9zcP3KV78hLf/pz4Yup65sn43nf+LUu3pngAEGGGCAAQYYYIABBhhggIGFaOCgDa7rej6WIVbcIO31V7d8HODyRnpdsNMPQXfY0Wsb4ru2N4fLfWsTZM24AdynLmI7GnvWNtyo7lcPvb6/7ZmNnUDv68ubg6VcRhlcNw11G+Fo9aznuHFeM4x8lFXWSXXz/KcPtr5xW7po2oYIqnNvte4b2rH+6vvorRWB8cdPqnqA5n1sO83Pq23ym8upArWPHF+FCXEzP3+ep8OEE3nZmJZ1Ocx5UpaVXw9TZnleRMCcyyqn0du2qvNjPjnr2d9lGBe9NOtC3wi7c/jdr97zeienpqtnWkeAEWFrhK75uzbT0lub871NmTFPNMbIvdDXnf31WaFfBEo5iG1y3mtdpfF+17YIeuO4RAOIOA69yo3vIvyPRgC/+/nbU4SM/eZv830OdKN3+46HHp1RZnktjx7iZUCVy57aui2t+cwZ1X5EvZaNXfI8baa5IUmUFWX2WmYYGxEcRiOWqO+mRjX5XIrRBSIc7t6GYc7P7jK63w+zL8Ms073e7veDnK/T09Np0+bNKULmdevXV6Hif3vP/1OFim95639OTzz5y1l1172+pvdlz+0j3nVUWrV6sAYvUW4E1O+9+pGhQutYfuDfhujRv7+hVK/ftc5v0gePSU2NVUpjg/5Gl9eeXtvRVPfxeef696FjU4yo0DRvXAvyqBExYkqebxTB9dTUVNq4cWPla2Jibbr2uuvT/3HY2ytf7/m//zatXVs/YkLehl7Thx5+JL3hjX9WlXXKZz6X9uxpfkRLr3J853+IGWCAAQYYYIABBhhggAEGGGCAAQbm04DguiuYLW+KDxPIlWFHhAT9/vqFO/ng51AhymsTZJU3gPttQ3z/QgXX03v3pr+77tHqpvpLzrknxTNr8z42Tcvguulm8ozQuCEIK+ukbb3nbcrPfo1eYHVBcJv5YpjV3Mu0KVzP5dROp6dThI1xvPoFXOW+1j3LMwdlVRDb3YO965yo25Yy8F3z2TNqe3XXLdfrs3Kb2557+bzoFShnP3XzlGFKGUB0b+eM+mox/HAMYx3DWUdwHcNbd5fX7315HWpzvjeVF9ejqNfyLzeuqDsHwkr4WvmR46shfpvKbfq8akBy3KeqMqLBQNN88Xk+LjEcbwwr3HPeyT3prd9aXtVnTGMY5F7z1343NVX1wC3rotdQ1eW1vK6u8joGDfrK4fHztkTP4aj3GNo4Pstl102HtRFhYayjLoRvE2zPxzk/zL6UPa4jMK0burqu3np9Nsj5Wj7P+qV/9CdVCBi9Yf/pnz+UHn5kZuOHXuts+m7Z967u9K6NwPLyK76bVq1aXQWZse6m5fLnuYFHNPJYevOTrXta5+UH9Vy66NV4o818YT8PFd7rnMvbWk7n/Psaw/rvb+QUDc96jRRSXhvWn3th55hs2rm76jkdvacH+Vu1ZVfas3/knbLXffb1x694bTr+hE+mlSv7N/Qr66T7dfhZetyJldko+x/+8QPpzjt/VDXAiLBckO1/OLvNeM8EAwwwwAADDDDAAAMMMMAAAwyMw8CCDa6HDXvKG+ltw7PywJU3NNuEEOWyvV7ngC6Chzb7NpcbwL22Y67fDRIQ5HXlgKsueMzzxDTfdG7TYzCCyHLZfq9z2f22IffgjOPUHYTO2VbRuzPKb/tX5zi2Mw9rHtMIK+KzumHFa+umGGI7tiOehx3PxY7hhoftdVqardvmuu3I50Wvc62Xn/xd7EOv8yqvp9/xj20cpnFG976VVnptV/dy8T6CvQiQ4lnXvYzUBUM5tOpVn3XrzJ9Fr+X8bO5e6y6/a1OnVz++Pv3OqbdWf/E6r6/fNHrQb77m+n2jMewf7r1cd/m6u57La3nUS9O6cp3V1WdeJoatXve1C9PKj+17NnW53vJ1m3of1saMocCLXqKxjZ2epj2GEp/xXPsRnfPD7Es5nHPUXTQGiue3V493mOz92Il8PMrpoOdrXXAdIWCEzLfffmeKHtll+YO+jvAwetm+4/B3dwLGHGD2e+719t1T6f+87KdVA48/Of/HaWJb8/DTTdvVxnO5bNlYpdd5Uo720DTKQvkbMOhvdGmp7e9HuR/hOzcMK8/Jfq977fOM8ls0CIv564LrOP7Rq//BBx+ak60of8OGjemLXzorveZ1b5rha66jBQyzr5bxP74MMMAAAwwwwAADDDDAAAMMMMAAA3UGDtrguu4Gfw6X4kZjdwhRt/N1n8315mcZdtRtY90623w26L6VN4B7BSpt1j2qeSIg+NhNT1Q31V901l3p8Q39e4/FuuNYxjHtF3DlOmqar6yTQW9s55v5/Y5pLz/ld009x3vVdbn9/W6ml9/X7uv0dBX21IWbEWRH8Fk9S7xHCBMh97qzzquem1uuL17HUK3PXXRZ396j5f6W+1e7zTU3/vMx73Vcevnp9DDu8+zqXmWU+xCvH12/Pf2HM++qnEePx+7v27wvrbS+lsUxveaGToOE7mPS/b7uupCd9+vR37QPuZ6619XrfdP5mtcRQx8ffsXPq/p89QU/SRt2tAsnI1DLQ7z3Wn/+rruey2t5r3Aq11ldfcY+bLv7x53niud1NU17Oc71MZSNrmHiu4fF7wzb/onPpOi5mtfVPR31OT/svlTH9pTTaxtmRG/ZTVdd0/O54uV+zeV8jWGdn376mbTkQx+tQsAIA5cv/2lj/ZXrbXq9Y8fO9LVzz58VLEZ42S+4Xr99Mv1v+58Df9Sy4ULOfp67t7s8hv2u27nsJufD/Abk7Sm3Y5jf1/J8bzo/6z7vdW3I2zbsNBoxRFj91//tfZWvt73jXenpZwYfwaNcf/Ta/sCSozu9+nOjCMG1/0ksnXjNAwMMMMAAAwwwwAADDDDAAAMMjNPAQRVclzc163rs5BArbi52hxBtK7m8+dnvJmxdmeXNz6abs3XL9fts0H0r66opUOm3zlF/H0F1BNYxfHIE2BFkt1lHDsP6BVy5jprmK+tk0GPb74Z73o9efsreqMPcWC+3P4Z7jvdt/sJk3r7u6dTGTWnzDTemtV/86uzeoEuWpk3Lrp31HOQZZUxPp8lfPZM2XHZlWvPpL8wKTaMn9o6HH2tcf1lWuX9tj08+5r3OtV5+5iO4jrA6jEd4HaFYuY9tX5eO2l7LOr1mo+HAsSenzT+4OcXx7V5ntjzrulD0OBxFcL3lh7e08hlBaa/hnm97ZmP1XOsY+vjry9sNlVs+73bFkqXVc51jOPLu9fSq5/Ja3iucaqzPvXur52JHkBq/SXFd2njl1WnP2nWzzqk2jvNx7LXNeZ6m6Zabb68ampTXyHII51a9XEd4zs9lX/ZOTVWNa5678FvVc9LjOJfBYvwbYfeq/s+IHsX5GmHiYX/xl1W4eM7Xzpt1zjUdj7rPL/3Wdzo9YWMo54ceejhNTk62KjOGp/6PZ/2ouv4suuC6GO1hmN/X8nyP58FPPrOi3fVr85bOsRnFUOF1Ju6/f3l65avfULm44Qc/7Kyvbt5en23bti398wc/UpUTw9ufedZX0+o1a1I0wOi1nO/a/VtVPaknBhhggAEGGGCAAQYYYIABBhhgYDQGDqrgOoKHeB5q3Jyue0ZwvvkvuN5b3XCNMC/qYlZA1TIwHvVJFs/6jUAvnv0bQ4a3Lf+3weMJKcLfpuXycN5thgpvG4zmdeWyy8Anf1dOy6HCt9x464xtLUOaQdcf65gqhgqv819ux7CvI0Tc+O2rOsNMr1p6ctr11NMz9qNn2VNTaefjT6a1Z5zd6Ym99ktfbTV8+DiC62yr3zUjX1v6Hf94Zns8uz2cx7Pc2zbO6K7T0krb4Do/h3vVcZ+qQpfuMuN9+Sz4uutCDmF7NQSoKzd/VjbO6Paf5xlkOugwzrns8jnI8fzoGAY4f1dOy2ecd9dzGWQNG1zH4wLC1sqjT+j5zPBOj+d5fMZ17PfkilUpB+nxzOv4bPu9P0krPnTsvm38+cO19VTW2azXczjnh3E+a/37f8+iUcKOnz00o5d9jPrQNH98Pqrzdfv27enDH/l4FQh+4fQv9Vxnr+3ZunVrev8/LanKec97/zZNTKwdqKx4TnI8LzkC7OdajkzQvT35GlB3feieN94PM1R4jISwZ9PmWfs2zG9A3qbS0jC/r+VQ4U3bl9fVNP3k7U9V1/64/g/yF40N4pg1lbtu/fr0X47868pFv173TWXE5w89/Eh6wxv/rConQmvPtB7N/0j1qnPfqWMGGGCAAQYYYIABBhhggAEGGGBgcAMHVXAdQUiEAPEXQ+J2H/AcLvULobqXK9/P9eZnGXYMG/6U25NfD7pv5Q3gtjeg87rmYzqXgKAMF5t6UpWBXF1v/Ninsk4GvbGdA6gIeCKcbqqjXvNFKBzPYw2fQwXPRY/Y1X2G9G3avrafb73ljirMGvZcihBp/TkXVPva9jwY5vjk86LXOrKfutC5DC6j93VT/eRQuK6McplhG2eUZcTr8jrUHah2zxvvp7bvSBOnfbmvrQiL8vDZddeFTg/0jxzfM2it24b4bEaIdf7FjYFx0/Ldn0cDl2joEiFQ1G33903vt91z376exX32o/xN6a7n8lo+bHC9/twLq2PSKwibce2a5+A6wrn151+8b5tO+UIVHs54X/Qebarbps+HOecHdd607vLzGM58zWfPqPaxzng578jO1x070tEfW1oFgid+4uTWPaTLbYnX5fONL/rmJa29d5czl/eDBtdlj/14xEQ8y7pu/W3mG+Y3IK9rzr+ve/em3EAtHnURz4TPZbedzldwXbqYS4/+e++9rzIa4XWE2G33y3yD/8+VOlNnDDDAAAMMMMAAAwwwwAADDDDAwPAGDprgurwZ3XRTMYdYw4ZtAam8kT5ouBnLl2FHrzBtULSD7lt5A7jfzftBt2WY+WOI3xjq93c/f3uKoX8HKSMHj3FcI2Sp6z1ZBWZ9QuGyTgY9tqWLpm0oA6gYqjl6N5b7WX3/lfOqQKXJcDl/3es81G8MizuKHq1164jPyv3tDvSalun+PJttex6UoWoEft3l1b1vs47spy50jrAjGgGEre7n/ub1ldtVV0aeb+22yfTK/c+Xfdd3H0yTU/W9fPP8vaaD1n953enVKCL3rq3299QvVtercjvK4cabnJfzd7+eYbxHz+/u5ereR2/reKRAhNbxiIF41EDdfHWfdY55j+B6aufO6phHXcRft/OyTocOrr96flV2r+A6ArK4HsQ2tDlXyt7k0VCmbv97fZZHhVj5keNTXE9W779u1jUG61VO3XdtzsdyubhGxrUy9r1Xw5FymTav24SvIz1fi+A6AuwdO9pbLfenDCjn0rO2LHPQ123qbkaZ0RhifyOlXr9rZSOhGGFgRhn7e83P5Td6xrVnyOC5vP71Gqmhbtvn87PSxVx69Ofg2vOsh/+fpvk8zsp2XBhggAEGGGCAAQYYYIABBhhggIF9Bg6K4DoChniOZX6G5XMXXFobXuab5nUhRNsDXgZGUV7b5fJ8ZdjRJoTIy/WbDrpv5Q3gcQfXG3bsTq++4CdVAHX4FT9Pu/YM9jzFHELFca2Cwwe7egpNT6eNV/5rFX5Uge7Nt9cet7JOBj22ZcgVN+d3PNS1DXv3pq233dV5xvO6r5xXDcvcfVwjNFr54eOqbZ047Utpqma41Fhmz5at1fNbu5ff89yGfc9z3R9y7Xzs8dp9jeXi+cab/vX7s55zHD3itv/4/jS1rfn5y5u//8N951tDD/PdaybSzgcfTvGc2e5trNa9c+e+4cJjO0/6bIrednXzlZ+Vwf/qT502a7vLefPrfF70Oteyn9rQeXo6xfWksvXh46pjmMvO06pX7v7n59aWsT90ufBnqzuNM258akPf/c3l103L61B3oFo3f3yWe/c2DRUez/tddeIp+86TeA72CZ9OEdyX5YXzapj3ONeiPm65o/ZaG41H4tnl0aCoXD5el8YjRK+bp1pmeroaVj6sdZcR7yOojsA6gusIsAcZdr18rERtADU9nTZddU3nN6UuOC2v5cMG150e7A1DhUfd5J7ysQ3xKIzY9rr6yJ+VPVfXnXnurOd25/maplUjsFO+UDlYdcxJVR30ChxzOfNxzpeNQqpHCkzu7rnvsS0R3MfjCOoaMMX35TWyVw/gkZ6vB0hw/fTmnen1F92f/odTb01HXPnzFL+9+fi1nQ4cXBfDzYfhdedeOMtk6bwaNr9hSPq5/EbH/pXXnmF+X2dc/z56Ytp2948b6y9+PzffcGOa/FX7kSDaHoPu+QTX/qe124T3TDDAAAMMMMAAAwwwwAADDDDAwEI2cMAF11XQsW59Naxz9ESLoRsjlIobovEXN/mbgpAcYsV8W354S1VG3Aht+otgr/vmdxkYrTv761WQFYFkr7/o7ZuRlGFHPEs0Qoim9efPY5m8fNO03Lc2QVaUnettzSlfqJ55m9fXNG0a4rNpm9p+fvXj69PvnHpr9Rev2y6X58vBY9Vw4UPHVuFO3DCOep98+tm0/ryLOgHUxOfOnNWLNJdT1smgwXWUUd4Uj4Apb0MEgjOeC/3xk9LORxsC5QhKL7qss72rln4ybb72BynKiO2rzF++rNrHpm0sA/KVRx+fYhjrWC6Wj3IiaJ343JerddQFutloBJMRfG299c4Z61/3tQs72xd26s63fJ7E9j938bfTjgd+1nEevXrzcNRxLuZn6ebj0Gva6VEeAciZ51bHt+P1uQ2zgvJ8XtTtZ15P9tMUOk8+syJF2BvbGvUZxzLqMf42fPu7VYCbh3hvKmPb5J701m8tr0LWmMb7vP5hprl+Y5vanO+xjhk+T/h0imH1s4kwFmajvBjuPqZ1owJEOVWP3v29YOOci0AxGilUZU2srbYnzrPoqRufdd8R6y4AABH7SURBVO9fDBkd4VW1rv0NLKJn8AzjV3yvM2x+Uyg8l2GcywAq9iGuEXGtiO2Nfek8gz3qYn+jhO5eoPk8if1o2sbY915B364nn0pxjlT1XV4zJtZWvZ2zq3xMohd09EztrtPu93FOVfW7ZGl1Pcl1G/tXd752L5/Pm3yMevXSz8tmk6M+53vtS91vdD6fo+7i3wfRiCjbjOtHp05jVIqGRkwjP18PkOD6lLt+VV2DorFHjHByxSO//bdJPo79pr08Ny3bfb7F+ZX/7ROey9+DOBejkVJdWXEc879bmn7/6pbrfDaC39fwlEdAqK4dZ58/6/oXv03x+9n0e9DZnv2Nmub6XnDtf0TnasjyDDHAAAMMMMAAAwwwwAADDDDAwMFk4IALrvON9FnTCB/OuaBnL9Hum/GzytgffufP63oi55vzeZ420zJYKsOONsvGPG1u0Jb7Vq6vCVt5A7jtdrQpt2l9TZ+PIiDIQUXcJH7um9+uwsW6fYrepBHgNG1LWSdt6nxWOdPT1bPVc4/pum2IbezVSyvKjGAvwt4cmNWVE5/12sZ4hm8niOxyXZYXIc6sXrXbtqWwX85X9zqG0I4Qc1Y9dA0lXrds9VmLc7a77O7Qsyy7LpzO50Xdd7ns0k+c3/nzchrHLI5dub78es0pp6fNP7ip+q4pqJhr44xyW+J1eR1qe15GGLTx8mU9XUWAlHvT9wpJoyd/JwBs8NWrztsajzquGxZ+5Zad6SXn3FOFcH933aMD9bbOdRlBda99iPN445VXd86F7vC2vJYPG1zHtmz5t1s6oyxkU+U06jEaweTzuc0jAKpHI5x8aq3XXtua66YcnjyuQ00Bb54/pqXJcvtnvB7inC97484oKxqq1Qxnn8/n7nlnvF+ytDoXwmG5D/n1yM/XRR5cR72GyTKgnnE89l9Deo7AEL3l5xpcj+j3tc31L/Yvztl+IyRkc3OZCq79j+Vc/FiWHwYYYIABBhhggAEGGGCAAQYYONgMHNDBdQQLEUZuuPTytHv1RO0N6LLCc4hVd8O07rO6m+Ktbs53BTllsFSGHXXrrPusV0CZ96/ct3J9+fvuaXkDuG6ddZ+1Kbd7Pf3ex5DJ8Vzr6P0VQ7P2m7/u+xxU5NAwwtQYAjYHyKuWnlwFwTG8dt3y+bOyTtrUeV6ue7rrqaerRhTVMLv7LVTbcNFltT1Qu5fP76tyzrsoRc/8HGJHj9941nLsc1PokpeP/d207Nq0+pOnduoiyokekevOOi9Fz+emXvQRZkdAFkFC1SM0D4X94eOq8uJ5t72GEo8hwuM4xHDL0St75cd+G/rG69iH7ff/dFYP6bztvabRe2/zNdfvq5fiXKsLSvN5UfddXke3n/x59zSGQo7e5nEM4vyI/YhhxKOecxl1QUUMfR9D4EcvxxgSf5jhebu3pbwOxbq7v298H0N4L/95WvOZ039rYv+w39EzP/YlnitcmfvgMVVDjKay4jhsuem2fcd3f52Er+hp3faaXGt8/3U9Gm9UDSNqhpv/+vJVnWHXb3um/zDzTfsQ+xvrifOzvOZFo4zK5/R0NSJAfBeflY08ymt5rzC4TQ/VzjUr12O4XrK0GlUg3EV4G+dRbEfbZ4tX+3bBpTPOvWr5r57f10tcF+IaWu13PIt8xaq+y8znOd85Tvuf9R3bFX91v9FxXYxh6qOH/OqTT+ucrzF/XJPj2tdrKPH5OF/DXzx7+KV/9CfpfX/z92njxuHMPvvsivR/ve2dVTnDPON6XEOF5/Ovumb88JYZv0nxOx3Xo6pBV825npeN6ah+o6Os2mvPAL+vtde//cbi9y1GKmkzukG5f8O+jmemx7PTw9dxx5+Udu3a1f98rentfcMPfliV4RnX/md1WIuWY4cBBhhggAEGGGCAAQYYYIABBl4IAwdEcP1C7Kh1vPAn1OTUdHrXdx+sAr1XfuO+tHbb5FA3W3NomINrx/KFP5aLvc57BeQRrObGGRG4Lva6muv+R/AfDQCiIUA0CIigca5lWn7mNaN8TnaMZNL9yIyFXF/zdb5G0BzB4qEvf1U644tnpaefeSZFT9lNmzen6enpVoaX//Rn6ZWvfkNVzr333tdqmYV8rOzbvvM2/Jz+xTMrF6953ZvSxZd8K61atbrytXVr7wZ7ZR2e87XzqjL+6qj3VMuW33k98xqpPtQHAwwwwAADDDDAAAMMMMAAAwwwMD4DguuaXilAjgbkA2u2pN/74p1VABXPqx22XgXXozkew9b/Yl8uhuBe95Xz9vUAPe3LaWr7jo7l6b17UwxlHSFrDG0dQ1wv9vqa6/6PehjnuW7PQlw+RmOonqv9oWOrkRkW4j7W7dN8nq8TE2vTe977t1UwGAF2/ouestFjtm579uzZU/XOjoD7/vuXp3/4xw9Uy+kR6zev28vjjz+RDvuLv+y4yr6ip3/3vPl9uAtbYfPa665P4SqW62UyL2vKIAMMMMAAAwwwwAADDDDAAAMMMMDAuAwIrgXXjTc954rynpWb06UPrUmXP7I2rds+XG/r2AbBtQvkXC32XH5qKu3ZtLmx1+mOBx/pPP+6e4j56B185aNrK+d3PDvc8MA9t22RXZ/2TE+neLxAXDe+94t1advknnm7Pi3Weo8hkGOo4xhaO4Ynf6GGOz4Q6nu+z9cICb9+/oUperT+8Ste2zckfOLJX3bCxBxExvTMs76aItQ+EOrMNhw4v78rVqysel6/4/B3Vz37w0qv4DqPAlDaih7bd/3obrYW2W+r8/jAOY8dC8eCAQYYYIABBhhggAEGGGCAgf4GBNduXh3wNzAF1/1PZBe7udVRPKc4nvu88fJladcTT1XPWt29anXafO0PUjzXOkK+eAby7om1B/z5wsLcLCzE+ovndcfzg8P0+q9/s3q+djxje/P3f8jzGP8NUAbXb3zTn6f/7x/+Od18861DP8N4Idq1T8Nfz8rg+i/e9s504kmfSr/4xeOth65X98PXvbpTdwwwwAADDDDAAAMMMMAAAwwwwMDwBgTXY7xpDW47uILrdvXE0/D1FMF1hNNNf6uWfjLtePgxIZ/r5UFpID+jvfQ9cdqXF1Vva9fH4a+P6k7dMcAAAwwwwAADDDDAAAMMMMAAAwwwwMALZUBwLYg54IMYwbUL4nxfEHc+9nhaf8GladWJp6SVHz5uX4C9ZGlafcKn04bLrkx7tmw94M+T+a4j5R+852EZXK/6+EnpuYu/k6a2bWfa7z8DDDDAAAMMMMAAAwwwwAADDDDAAAMMMMDAAWVAcA3kAQVSOHbwhmOOnWPHAAMMMMAAAwwwwAADDDDAAAMMMMAAAwwwwAADDDAwrAHBteBacM0AAwwwwAADDDDAAAMMMMAAAwwwwAADDDDAAAMMMMAAAwyM1YDgGsCxAhy2xYXltNZhgAEGGGCAAQYYYIABBhhggAEGGGCAAQYYYIABBhhgYOEYEFwLrgXXDDDAAAMMMMAAAwwwwAADDDDAAAMMMMAAAwwwwAADDDDAwFgNCK4BHCtArWAWTisYx9KxZIABBhhggAEGGGCAAQYYYIABBhhggAEGGGCAAQYYGNaA4FpwLbhmgAEGGGCAAQYYYIABBhhggAEGGGCAAQYYYIABBhhggAEGxmpAcA3gWAEO2+LCclrrMMAAAwwwwAADDDDAAAMMMMAAAwwwwAADDDDAAAMMMLBwDAiuBdeCawYYYIABBhhggAEGGGCAAQYYYIABBhhggAEGGGCAAQYYYGCsBgTXAI4VoFYwC6cVjGPpWDLAAAMMMMAAAwwwwAADDDDAAAMMMMAAAwwwwAADDAxrQHAtuBZcM8AAAwwwwAADDDDAAAMMMMAAAwwwwAADDDDAAAMMMMAAA2M1ILgGcKwAh21xYTmtdRhggAEGGGCAAQYYYIABBhhggAEGGGCAAQYYYIABBhhYOAYE14JrwTUDDDDAAAMMMMAAAwwwwAADDDDAAAMMMMAAAwwwwAADDDAwVgOCawDHClArmIXTCsaxdCwZYIABBhhggAEGGGCAAQYYYIABBhhggAEGGGCAAQaGNSC4FlwLrhlggAEGGGCAAQYYYIABBhhggAEGGGCAAQYYYIABBhhggIGxGhBcAzhWgMO2uLCc1joMMMAAAwwwwAADDDDAAAMMMMAAAwwwwAADDDDAAAMMLBwDgmvBteCaAQYYYIABBhhggAEGGGCAAQYYYIABBhhggAEGGGCAAQYYGKsBwTWAYwWoFczCaQXjWDqWDDDAAAMMMMAAAwwwwAADDDDAAAMMMMAAAwwwwAADwxoQXAuuBdcMMMAAAwwwwAADDDDAAAMMMMAAAwwwwAADDDDAAAMMMMDAWA0IrgEcK8BhW1xYTmsdBhhggAEGGGCAAQYYYIABBhhggAEGGGCAAQYYYIABBhaOAcG14FpwzQADDDDAAAMMMMAAAwwwwAADDDDAAAMMMMAAAwwwwAADDIzVgOAawLEC1Apm4bSCcSwdSwYYYIABBhhggAEGGGCAAQYYYIABBhhggAEGGGCAgWENCK4F14JrBhhggAEGGGCAAQYYYIABBhhggAEGGGCAAQYYYIABBhhgYKwGBNcAjhXgsC0uLKe1DgMMMMAAAwwwwAADDDDAAAMMMMAAAwwwwAADDDDAAAMLx4DgWnAtuGaAAQYYYIABBhhggAEGGGCAAQYYYIABBhhggAEGGGCAAQbGakBwDeBYAWoFs3BawTiWjiUDDDDAAAMMMMAAAwwwwAADDDDAAAMMMMAAAwwwwMCwBgTXgmvBNQMMMMAAAwwwwAADDDDAAAMMMMAAAwwwwAADDDDAAAMMMDBWA4JrAMcKcNgWF5bTWocBBhhggAEGGGCAAQYYYIABBhhggAEGGGCAAQYYYICBhWNAcC24FlwzwAADDDDAAAMMMMAAAwwwwAADDDDAAAMMMMAAAwwwwAADYzUguAZwrAC1glk4rWAcS8eSAQYYYIABBhhggAEGGGCAAQYYYIABBhhggAEGGGBgWAOCa8G14JoBBhhggAEGGGCAAQYYYIABBhhggAEGGGCAAQYYYIABBhgYqwHBNYBjBThsiwvLaa3DAAMMMMAAAwwwwAADDDDAAAMMMMAAAwwwwAADDDDAwMIxILgWXAuuGWCAAQYYYIABBhhggAEGGGCAAQYYYIABBhhggAEGGGCAgbEaEFwDOFaAWsEsnFYwjqVjyQADDDDAAAMMMMAAAwwwwAADDDDAAAMMMMAAAwwwMKwBwbXgWnDNAAMMMMAAAwwwwAADDDDAAAMMMMAAAwwwwAADDDDAAAMMjNWA4BrAsQIctsWF5bTWYYABBhhggAEGGGCAAQYYYIABBhhggAEGGGCAAQYYYGDhGBBcC64F1wwwwAADDDDAAAMMMMAAAwwwwAADDDDAAAMMMMAAAwwwwMBYDQiuARwrQK1gFk4rGMfSsWSAAQYYYIABBhhggAEGGGCAAQYYYIABBhhggAEGGBjWgOBacC24ZoABBhhggAEGGGCAAQYYYIABBhhggAEGGGCAAQYYYIABBsZqQHAN4FgBDtviwnJa6zDAAAMMMMAAAwwwwAADDDDAAAMMMMAAAwwwwAADDDCwcAxUwfWvf/1r4aUAmwEGGGCAAQYYYIABBhhggAEGGGCAAQYYYIABBhhggAEGGGBgLAYE1+CNBZ7WLwun9Ytj6VgywAADDDDAAAMMMMAAAwwwwAADDDDAAAMMMMAAAwzM1UAVXD///PPCSwE2AwwwwAADDDDAAAMMMMAAAwwwwAADDDDAAAMMMMAAAwwwwMBYDFTBdUopGS5cK4i5toKwPEMMMMAAAwwwwAADDDDAAAMMMMAAAwwwwAADDDDAAAMMMDCogciqO8G1XtcADQrI/MwwwAADDDDAAAMMMMAAAwwwwAADDDDAAAMMMMAAAwwwwMBcDURW3Qmuo9f1b37zm7F0+57rjljeycAAAwwwwAADDDDAAAMMMMAAAwwwwAADDDDAAAMMMMAAAwwcfAYio47/ZgTXwuuD70A6+RwzBhhggAEGGGCAAQYYYIABBhhggAEGGGCAAQYYYIABBhg4GA3k0Lo2uI4Poyu2Z17DfTDits3cMsAAAwwwwAADDDDAAAMMMMAAAwwwwAADDDDAAAMMMHBgG4gsOjLp8r//H+2JAC5PFhG2AAAAAElFTkSuQmCC;clipPath=inset(42.86% 58.33% 17.86% 1.33%);" vertex="1" parent="1">
          <mxGeometry x="430" y="90" width="368" height="33.46" as="geometry" />
        </mxCell>
        <mxCell id="493oTweiqtYjREhy8k81-12" style="edgeStyle=orthogonalEdgeStyle;rounded=0;orthogonalLoop=1;jettySize=auto;html=1;exitX=0.5;exitY=1;exitDx=0;exitDy=0;entryX=0.5;entryY=0;entryDx=0;entryDy=0;" edge="1" parent="1" source="493oTweiqtYjREhy8k81-9" target="493oTweiqtYjREhy8k81-11">
          <mxGeometry relative="1" as="geometry" />
        </mxCell>
        <mxCell id="493oTweiqtYjREhy8k81-9" value="根据taskId从MySQL查询channelAnalysis" style="rounded=0;whiteSpace=wrap;html=1;fillColor=#dae8fc;strokeColor=#6c8ebf;" vertex="1" parent="1">
          <mxGeometry x="260" y="283" width="120" height="60" as="geometry" />
        </mxCell>
        <mxCell id="493oTweiqtYjREhy8k81-17" style="edgeStyle=orthogonalEdgeStyle;rounded=0;orthogonalLoop=1;jettySize=auto;html=1;exitX=0.5;exitY=1;exitDx=0;exitDy=0;entryX=0.5;entryY=0;entryDx=0;entryDy=0;" edge="1" parent="1" source="493oTweiqtYjREhy8k81-11" target="493oTweiqtYjREhy8k81-16">
          <mxGeometry relative="1" as="geometry" />
        </mxCell>
        <mxCell id="493oTweiqtYjREhy8k81-18" value="No" style="edgeLabel;html=1;align=center;verticalAlign=middle;resizable=0;points=[];" vertex="1" connectable="0" parent="493oTweiqtYjREhy8k81-17">
          <mxGeometry x="-0.1333" y="-2" relative="1" as="geometry">
            <mxPoint as="offset" />
          </mxGeometry>
        </mxCell>
        <mxCell id="493oTweiqtYjREhy8k81-11" value="结果为null" style="rhombus;whiteSpace=wrap;html=1;fillColor=#fff2cc;strokeColor=#d6b656;" vertex="1" parent="1">
          <mxGeometry x="280" y="370" width="80" height="80" as="geometry" />
        </mxCell>
        <mxCell id="493oTweiqtYjREhy8k81-13" value="返回成功" style="strokeWidth=2;html=1;shape=mxgraph.flowchart.terminator;whiteSpace=wrap;fillColor=#d5e8d4;strokeColor=#82b366;" vertex="1" parent="1">
          <mxGeometry x="420" y="387.5" width="80" height="45" as="geometry" />
        </mxCell>
        <mxCell id="493oTweiqtYjREhy8k81-14" style="edgeStyle=orthogonalEdgeStyle;rounded=0;orthogonalLoop=1;jettySize=auto;html=1;exitX=1;exitY=0.5;exitDx=0;exitDy=0;entryX=0;entryY=0.5;entryDx=0;entryDy=0;entryPerimeter=0;" edge="1" parent="1" source="493oTweiqtYjREhy8k81-11" target="493oTweiqtYjREhy8k81-13">
          <mxGeometry relative="1" as="geometry" />
        </mxCell>
        <mxCell id="493oTweiqtYjREhy8k81-15" value="Yes" style="edgeLabel;html=1;align=center;verticalAlign=middle;resizable=0;points=[];" vertex="1" connectable="0" parent="493oTweiqtYjREhy8k81-14">
          <mxGeometry x="-0.2333" y="2" relative="1" as="geometry">
            <mxPoint as="offset" />
          </mxGeometry>
        </mxCell>
        <mxCell id="493oTweiqtYjREhy8k81-24" style="edgeStyle=orthogonalEdgeStyle;rounded=0;orthogonalLoop=1;jettySize=auto;html=1;exitX=0.5;exitY=1;exitDx=0;exitDy=0;entryX=0.5;entryY=0;entryDx=0;entryDy=0;" edge="1" parent="1" source="493oTweiqtYjREhy8k81-16" target="493oTweiqtYjREhy8k81-23">
          <mxGeometry relative="1" as="geometry" />
        </mxCell>
        <mxCell id="493oTweiqtYjREhy8k81-25" value="No" style="edgeLabel;html=1;align=center;verticalAlign=middle;resizable=0;points=[];" vertex="1" connectable="0" parent="493oTweiqtYjREhy8k81-24">
          <mxGeometry x="-0.4872" y="-1" relative="1" as="geometry">
            <mxPoint as="offset" />
          </mxGeometry>
        </mxCell>
        <mxCell id="493oTweiqtYjREhy8k81-16" value="已被删除" style="rhombus;whiteSpace=wrap;html=1;fillColor=#fff2cc;strokeColor=#d6b656;" vertex="1" parent="1">
          <mxGeometry x="280" y="480" width="80" height="80" as="geometry" />
        </mxCell>
        <mxCell id="493oTweiqtYjREhy8k81-19" value="返回成功" style="strokeWidth=2;html=1;shape=mxgraph.flowchart.terminator;whiteSpace=wrap;fillColor=#d5e8d4;strokeColor=#82b366;" vertex="1" parent="1">
          <mxGeometry x="420" y="497.5" width="80" height="45" as="geometry" />
        </mxCell>
        <mxCell id="493oTweiqtYjREhy8k81-20" style="edgeStyle=orthogonalEdgeStyle;rounded=0;orthogonalLoop=1;jettySize=auto;html=1;exitX=1;exitY=0.5;exitDx=0;exitDy=0;entryX=0;entryY=0.5;entryDx=0;entryDy=0;entryPerimeter=0;" edge="1" parent="1" source="493oTweiqtYjREhy8k81-16" target="493oTweiqtYjREhy8k81-19">
          <mxGeometry relative="1" as="geometry" />
        </mxCell>
        <mxCell id="493oTweiqtYjREhy8k81-21" value="Yes" style="edgeLabel;html=1;align=center;verticalAlign=middle;resizable=0;points=[];" vertex="1" connectable="0" parent="493oTweiqtYjREhy8k81-20">
          <mxGeometry y="-4" relative="1" as="geometry">
            <mxPoint x="-10" y="-14" as="offset" />
          </mxGeometry>
        </mxCell>
        <mxCell id="493oTweiqtYjREhy8k81-22" value="" style="shape=image;verticalLabelPosition=bottom;labelBackgroundColor=default;verticalAlign=top;aspect=fixed;imageAspect=0;image=data:image/png,iVBORw0KGgoAAAANSUhEUgAAB64AAAC6CAYAAAAecGPgAAAAAXNSR0IArs4c6QAAIABJREFUeAHt3fmTLld9GPz8Ifxiu2ywVMSUMcSQt4iSN1ESIEBsReVKXuMk5Ur5TSFACF2tbAIjW8ggEIuQkYxk2UjoYi0gZJDEogWJKwFarADGWu4yd1/nbjMCVae+fec8nOnp7mfrUT8z81HVrX7mebpPnz7n0+d5dL7nnP5n/8x/SkAJKAEloASUgBJQAkpACSgBJaAElIASUAJKQAkoASWgBJSAElACSkAJKAEloAT6LoGi4b8XX3yx+PnPf17+e+GFFwr/lAEDDDDAAAMMMMAAAwwwwAADDDDAAAMMMMAAAwwwwAADDDDAwLgGUtw5YtB1/5Ux8+oHKWA97snsDygDDDDAAAMMMMAAAwwwwAADDDDAAAMMMMAAAwwwwAADDDDAQJuBCGJXA9grAte/+MUvzKw2u5wBBhhggAEGGGCAAQYYYIABBhhggAEGGGCAAQYYYIABBhhgYFUNRGw6/bcscC1obeRD28gHn/HBAAMMMMAAAwwwwAADDDDAAAMMMMAAAwwwwAADDDDAAANdGkjB60HgOqZid3kCaQHLAAMMMMAAAwwwwAADDDDAAAMMMMAAAwwwwAADDDDAAAMMMDDMQMSqB4HrWEd82AE+h4oBBhhggAEGGGCAAQYYYIABBhhggAEGGGCAAQYYYIABBhhgoEsDEasuA9dmW4PVJSxp8cQAAwwwwAADDDDAAAMMMMAAAwwwwAADDDDAAAMMMMAAA+MYKAPXZltDMw4a+/LCAAMMMMAAAwwwwAADDDDAAAMMMMAAAwwwwAADDDDAAANdGhC4fgGoLkFJiycGGGCAAQYYYIABBhhggAEGGGCAAQYYYIABBhhggAEGGBjXQBm4Hvcg+4PGAAMMMMAAAwwwwAADDDDAAAMMMMAAAwwwwAADDDDAAAMMMNCVAYFrM66LrjBJR8PEAAMMMMAAAwwwwAADDDDAAAMMMMAAAwwwwAADDDDAAAOTGBC4FrgWuGaAAQYYYIABBhhggAEGGGCAAQYYYIABBhhggAEGGGCAAQZ6NSBwDWCvACcZbeEYo3QYYIABBhhggAEGGGCAAQYYYIABBhhggAEGGGCAAQYYWF8GBK4FrgWuGWCAAQYYYIABBhhggAEGGGCAAQYYYIABBhhggAEGGGCAgV4NCFwD2CtAI2HW10gY9ak+GWCAAQYYYIABBhhggAEGGGCAAQYYYIABBhhggAEGJjEgcC1wLXDNAAMMMMAAAwwwwAADDDDAAAMMMMAAAwwwwAADDDDAAAMM9GpA4BrAXgFOMtrCMUbpMMAAAwwwwAADDDDAAAMMMMAAAwwwwAADDDDAAAMMMLC+DAhcC1wLXDPAAAMMMMAAAwwwwAADDDDAAAMMMMAAAwwwwAADDDDAAAO9GhC4BrBXgEbCrK+RMOpTfTLAAAMMMMAAAwwwwAADDDDAAAMMMMAAAwwwwAADDExiQOBa4FrgmgEGGGCAAQYYYIABBhhggAEGGGCAAQYYYIABBhhggAEGGOjVgMA1gL0CnGS0hWOM0mGAAQYYYIABBhhggAEGGGCAAQYYYIABBhhggAEGGGBgfRkQuBa4FrhmgAEGGGCAAQYYYIABBhhggAEGGGCAAQYYYIABBhhggAEGejUgcA1grwCNhFlfI2HUp/pkgAEGGGCAAQYYYIABBhhggAEGGGCAAQYYYIABBhiYxIDAtcC1wDUDDDDAAAMMMMAAAwwwwAADDDDAAAMMMMAAAwwwwAADDDDQqwGBawB7BTjJaAvHGKXDAAMMMMAAAwwwwAADDDDAAAMMMMAAAwwwwAADDDDAwPoyIHAtcC1wzQADDDDAAAMMMMAAAwwwwAADDDDAAAMMMMAAAwwwwAADDPRqQOAawF4BGgmzvkbCqE/1yQADDDDAAAMMMMAAAwwwwAADDDDAAAMMMMAAAwwwMIkBgWuBa4FrBhhggAEGGGCAAQYYYIABBhhggAEGGGCAAQYYYIABBhhgoFcDAtcA9gpwktEWjjFKhwEGGGCAAQYYYIABBhhggAEGGGCAAQYYYIABBhhggIH1ZUDgWuBa4JoBBhhggAEGGGCAAQYYYIABBhhggAEGGGCAAQYYYIABBhjo1YDANYC9AjQSZn2NhFGf6pMBBhhggAEGGGCAAQYYYIABBhhggAEGGGCAAQYYYGASAzMduF48caI49tijxaHbNhcHvnhd+S9ex3vx2SQX3OUxiwsniqM7HiwOPn1Dsf+HV5X/4nW8F591ea5J0jq+cKK4f+dDxfU/vam48qmry3/xOt6LzyZJ0zEaGgYYYIABBhhggAEGGGCAAQYYYIABBhhggAEGGGCAAQYY6NrATAauIzC995ILiufPPKPYddZbigNnv7U49PtvKv/F63gvPot9Yt+uC2VYevPbHyj23PfHxXM3/noxt/nVxf7bXlUcvO208l+8jvfis9gn9h2WXtefR2D6Dx/8k+Jlt55enHbX64tXfON1xa9+8zXlv3h92l2vK162+fRyn9i36/NLT0PFAAMMMMAAAwwwwAADDDDAAAMMMMAAAwwwwAADDDDAAAPjGJipwPXJ3bvKYPTc295YzJ/15uLFt59VFH90du2/+Cz2iX0jgB3HjnPhk+x78siOMhi9/eZXFUfuOK148Z5XFsV9/7z2X3wW+8S+EcCOYyc55zjH7DgyVwajX37na4tfufc1xW88/Ibi5d//V7X/4rPYJ/aNIHccO8657KuhYYABBhhggAEGGGCAAQYYYIABBhhggAEGGGCAAQYYYICBrgzMTOA6Zk5vf9upWdVNweqm92M2dhy7mrOvY+b01ptPzaxuClY3vR+zsePY1Zx9HTOnX3H7vyhnVTcFq5vej9nYcazZ1xqWrhoW6bDEAAMMMMAAAwwwwAADDDDAAAMMMMAAAwwwwAADDDAwjoGZCFxHwHnrmWcUx89+S+3s6qaAdf7+sbNPLR++GsHrCDjH0t/HvnZ67ezqpoB1/n4cG2msRvA6As6x9Pevfft3a2dXNwWs8/d/7Vu/Wy4tLnitARmnAbEvLwwwwAADDDDAAAMMMMAAAwwwwAADDDDAAAMMMMAAA10Y6D1wHUt8x2zpaYLWKYAdwetIq8tlw2OJ75gtPU3QOgWwI41Iq8tlw3fMz5WzpacJWqcAdgSvY+Z1pNkFLmlopBhggAEGGGCAAQYYYIABBhhggAEGGGCAAQYYYIABBhhgYBQDvQeu4/nUsdR3Cj5Pu420Is1RLn6UfeL51LHUdwo+T7uNtCLNUc49yj5/+NCfTLQ8eApWV7exbHg883qUc9tHI8MAAwwwwAADDDDAAAMMMMAAAwwwwAADDDDAAAMMMMAAA10Y6DVwffTRLcXc297YWdA6Bb0jzUh72gKKZb233/yqzoLWKegdaXaxZPh35x4sXn7naydeHrwatB78fedri0h72vJzvEaKAQYYYIABBhhggAEGGGCAAQYYYIABBhhggAEGGGCAAQZGMdBr4DpmRs+f9ebOA9eRZhezrmNm9JE7upttnQLXkWYXs65jZvSv3PuazgPXkaZZ1xqQURoQ+3DCAAMMMMAAAwwwwAADDDDAAAMMMMAAAwwwwAADDDDQhYHeAteLJ04Uz595RvHi28/qPHAdaW4984wizjFpIS0unCieu/HXixfveWXnM64jzUg7zjFp/k4snChetvn04jcefkPngetIM9KOc0yaP8dpoBhggAEGGGCAAQYYYIABBhhggAEGGGCAAQYYYIABBhhgYFQDvQWujz32aLHrrLd0HrROy4VH2nGOUQuiut/RHQ8Wc5tf3XnQOs26jrTjHNXzjvr3/TsfKk6763WdB63TcuGRdpxj1PzYT6PDAAMMMMAAAwwwwAADDDDAAAMMMMAAAwwwwAADDDDAAAOTGugtcH3ots3FgbPfumqB60g7zjFpwRx8+oZi/23dP986Ba4j7TjHpPm7/qc3Fa/4xuoFriPtOMek+XOcRokBBhhggAEGGGCAAQYYYIABBhhggAEGGGCAAQYYYIABBkY10Fvg+sAXrysO/f6bVi1wHWnHOUYtiOp++394VXHwtu6fb50C15F2nKN63lH/vvKpq4tf/Wb3z7dOM64j7TjHqPmxn0aHAQYYYIABBhhggAEGGGCAAQYYYIABBhhggAEGGGCAAQYmNSBw/UI9HoFrgetJbyrH1d9TykW5MMAAAwwwwAADDDDAAAMMMMAAAwwwwAADDDDAAAMMNBnoLXBtqXBLhTeh9L4GiwEGGGCAAQYYYIABBhhggAEGGGCAAQYYYIABBhhggIGNZaC3wPWxxx4tdp31llVbKjzSjnNMCvrojgeLuc2vLtLS3l1vI+04x6T5u3/nQ8Vpd63eM64j7TjHpPlz3MZqSNS3+maAAQYYYIABBhhggAEGGGCAAQYYYIABBhhggAEGGJjGQG+B68UTJ4qtZ55RvPj2szoPXkeaz595RhHnmLRwFhdOFM/d+OvFi/e8svPgdaQZacc5Js3fiYUTxcs2n178xsNvKNJzqbvaRpqRdpxj0vw5TsPEAAMMMMAAAwwwwAADDDDAAAMMMMAAAwwwwAADDDDAAAOjGugtcB0Z3HvJBcX8WW/uPHAdaUbaoxZC03577vvj4sgdp3UeuI40I+2m8476/h8++CfFr9z7ms4D15FmpD1qPuynwWGAAQYYYIABBhhggAEGGGCAAQYYYIABBhhggAEGGGCAgWkM9Bq4PvrolmLubW/sPHAdaUba0xRMHDu//YFi+82v6jxwHWlG2tPm77tzDxYvv/O1nQeuI81Ie9r8OV7jxAADDDDAAAMMMMAAAwwwwAADDDDAAAMMMMAAAwwwwAADoxjoNXAdGYyZ0Yd+/02dBa8jrS5mW6fCi5nRB2/rbtZ1pNXFbOuUv5gZ/avf7G7WdaT1hw+ZbZ3K11ZDygADDDDAAAMMMMAAAwwwwAADDDDAAAMMMMAAAwwwwMDqG+g9cH1y965i+9veVBw7+y1TB6+Pn/2WMq1Isys8J4/sKLbe/Kri2NdOn3rmdaQRaUWaXeVvx/xc8Yrb/0Xxa9/63alnXv/at3+3TCvS7Cp/0ln9m1gZK2MGGGCAAQYYYIABBhhggAEGGGCAAQYYYIABBhhggIG1bqD3wHUU4LHHHi2eP/OMqYLXEbTeGmk89mjnQddY1vu5G399quB1BK0jjS6WCK+iu3/nQ8XLbj19quB1BK1ftvn0ItKqpu9vDR0DDDDAAAMMMMAAAwwwwAADDDDAAAMMMMAAAwwwwAADDKymgZkIXMcFRsA5Zl5Psmx4HFPO2l6FoHUq/Ag4x2zpSZYNj2Pi2NUIWqf8RcA5Zl5Psmx4HBPHClprbJInWxYYYIABBhhggAEGGGCAAQYYYIABBhhggAEGGGCAAQZeSgMzE7iOi44lvuP51HNve2Mxf9abixffflbj8uHxWewT+8YxXS4P3lQBscR3PJ96+82vKo7ccVrx4j2vbFw+PD6LfWLfOKbL5cGb8rfjyFwRz7x++Z2vLX7l3tcUv/HwGxqXD4/PYp/YN46JY5vS9b5GiQEGGGCAAQYYYIABBhhggAEGGGCAAQYYYIABBhhggAEGVtPATAWu04XG7OsIRsfy4bvOektx4Oy3ljOxY2Z1vI734rPYZzWWBk/5aNrGzOkIRsfS33ObX13sv+3UTOyYWR2v4734LPZZzVnWTfmLmdMRjI6lv0+763XFK77xunImdjmz+huvK0676/Xl0uKxj1nWGpgmR95ngwEGGGCAAQYYYIABBhhggAEGGGCAAQYYYIABBhhg4KUyMJOB63TxiydOlIHpQ7dtLg588bryX7yOYHV8lvbra7u4cKI4uuPB4uDTNxT7f3hV+S9ex3vxWV/5Suc9vnCiDExf/9Obiiufurr8F68jWB2fpf1sNTgMMMAAAwwwwAADDDDAAAMMMMAAAwwwwAADDDDAAAMMMNCngZkOXPdZMM7txmSAAQYYYIABBhhggAEGGGCAAQYYYIABBhhggAEGGGCAAQZeGgMC1y+8NAUNtHJmgAEGGGCAAQYYYIABBhhggAEGGGCAAQYYYIABBhhggAEG6g0IXAtcWzKcAQYYYIABBhhggAEGGGCAAQYYYIABBhhggAEGGGCAAQYY6NWAwDWAvQI0oqR+RIlyUS4MMMAAAwwwwAADDDDAAAMMMMAAAwwwwAADDDDAAAMbyYDAtcC1wDUDDDDAAAMMMMAAAwwwwAADDDDAAAMMMMAAAwwwwAADDDDQqwGBawB7BbiRRom4VqOiGGCAAQYYYIABBhhggAEGGGCAAQYYYIABBhhggAEGGKg3IHAtcC1wzQADDDDAAAMMMMAAAwwwwAADDDDAAAMMMMAAAwwwwAADDPRqQOAawF4BGlFSP6JEuSgXBhhggAEGGGCAAQYYYIABBhhggAEGGGCAAQYYYICBjWRA4FrgWuCaAQYYYIABBhhggAEGGGCAAQYYYIABBhhggAEGGGCAAQYY6NWAwDWAvQLcSKNEXKtRUQwwwAADDDDAAAMMMMAAAwwwwAADDDDAAAMMMMAAAwzUGxC4FrgWuGaAAQYYYIABBhhggAEGGGCAAQYYYIABBhhggAEGGGCAAQZ6NSBwDWCvAI0oqR9RolyUCwMMMMAAAwwwwAADDDDAAAMMMMAAAwwwwAADDDDAwEYyIHAtcC1wzQADDDDAAAMMMMAAAwwwwAADDDDAAAMMMMAAAwwwwAADDPRqQOAawF4BbqRRIq7VqCgGGGCAAQYYYIABBhhggAEGGGCAAQYYYIABBhhggAEG6g0IXAtcC1wzwAADDDDAAAMMMMAAAwwwwAADDDDAAAMMMMAAAwwwwAADvRoQuAawV4BGlNSPKFEuyoUBBhhggAEGGGCAAQYYYIABBhhggAEGGGCAAQYYYGAjGRC4FrgWuGaAAQYYYIABBhhggAEGGGCAAQYYYIABBhhggAEGGGCAAQZ6NSBwDWCvADfSKBHXalQUAwwwwAADDDDAAAMMMMAAAwwwwAADDDDAAAMMMMAAA/UGBK4FrgWuGWCAAQYYYIABBhhggAEGGGCAAQYYYIABBhhggAEGGGCAgV4NCFwD2CtAI0rqR5QoF+XCAAMMMMAAAwwwwAADDDDAAAMMMMAAAwwwwAADDDCwkQwIXAtcC1wzwAADDDDAAAMMMMAAAwwwwAADDDDAAAMMMMAAAwwwwAADvRoQuAawV4AbaZSIazUqigEGGGCAAQYYYIABBhhggAEGGGCAAQYYYIABBhhggIF6AwLXAtcC1wwwwAADDDDAAAMMMMAAAwwwwAADDDDAAAMMMMAAAwwwwECvBgSuAewVoBEl9SNKlItyYYABBhhggAEGGGCAAQYYYIABBhhggAEGGGCAAQYY2EgGBK4FrgWuGWCAAQYYYIABBhhggAEGGGCAAQYYYIABBhhggAEGGGCAgV4NCFwD2CvAjTRKxLUaFcUAAwwwwAADDDDAAAMMMMAAAwwwwAADDDDAAAMMMMBAvQGBa4FrgWsGGGCAAQYYYIABBhhggAEGGGCAAQYYYIABBhhggAEGGGCgVwMC1wD2CtCIkvoRJcpFuTDAAAMMMMAAAwwwwAADDDDAAAMMMMAAAwwwwAADDGwkAwLXAtcC1wwwwAADDDDAAAMMMMAAAwwwwAADDDDAAAMMMMAAAwwwwECvBgSuAewV4EYaJeJajYpigAEGGGCAAQYYYIABBhhggAEGGGCAAQYYYIABBhhgoN6AwLXAtcA1AwwwwAADDDDAAAMMMMAAAwwwwAADDDDAAAMMMMAAAwww0KsBgWsAewVoREn9iBLlolwYYIABBhhggAEGGGCAAQYYYIABBhhggAEGGGCAAQY2kgGBa4FrgWsGGGCAAQYYYIABBhhggAEGGGCAAQYYYIABBhhggAEGGGCgVwMC1wD2CnAjjRJxrUZFMcAAAwwwwAADDDDAAAMMMMAAAwwwwAADDDDAAAMMMFBvQOBa4FrgmgEGGGCAAQYYYIABBhhggAEGGGCAAQYYYIABBhhggAEGGOjVgMA1gL0CNKKkfkSJclEuDDDAAAMMMMAAAwwwwAADDDDAAAMMMMAAAwwwwAADG8mAwLXAtcA1AwwwwAADDDDAAAMMMMAAAwwwwAADDDDAAAMMMMAAAwww0KsBgWsAewW4kUaJuFajohhggAEGGGCAAQYYYIABBhhggAEGGGCAAQYYYIABBhioNyBwLXAtcM0AAwwwwAADDDDAAAMMMMAAAwwwwAADDDDAAAMMMMAAAwz0akDgGsBeARpRUj+iRLkoFwYYYIABBhhggAEGGGCAAQYYYIABBhhggAEGGGCAgY1kQOBa4FrgmgEGGGCAAQYYYIABBhhggAEGGGCAAQYYYIABBhhggAEGGOjVgMA1gL0C3EijRFyrUVEMMMAAAwwwwAADDDDAAAMMMMAAAwwwwAADDDDAAAMM1BsQuBa4FrhmgAEGGGCAAQYYYIABBhhggAEGGGCAAQYYYIABBhhggAEGejUgcA1grwCNKKkfUaJclAsDDDDAAAMMMMAAAwwwwAADDDDAAAMMMMAAAwwwwMBGMiBwLXAtcM0AAwwwwAADDDDAAAMMMMAAAwwwwAADDDDAAAMMMMAAAwz0akDgGsBeAW6kUSKu1agoBhhggAEGGGCAAQYYYIABBhhggAEGGGCAAQYYYIABBuoNCFwLXAtcM8AAAwwwwAADDDDAAAMMMMAAAwwwwAADDDDAAAMMMMAAA70aELgGsFeARpTUjyhRLsqFAQYYYIABBhhggAEGGGCAAQYYYIABBhhggAEGGGBgIxkQuBa4FrhmgAEGGGCAAQYYYIABBhhggAEGGGCAAQYYYIABBhhggAEGejUgcA1grwA30igR12pUFAMMMMAAAwwwwAADDDDAAAMMMMAAAwwwwAADDDDAAAP1BgSuBa4FrhlggAEGGGCAAQYYYIABBhhggAEGGGCAAQYYYIABBhhggIFeDQhcA9grQCNK6keUKBflwgADDDDAAAMMMMAAAwwwwAADDDDAAAMMMMAAAwwwsJEMCFwLXAtcM8AAAwwwwAADDDDAAAMMMMAAAwwwwAADDDDAAAMMMMAAA70aWFOB68P3f694/h3nl//i9WqMMNj96WsH50jniu3cR/+iWDh8eFXOOfJ1LCwULywu9puHMW/YVGdb33NJMf/U02sq7yPXy5hlMk26UYZRlrnN9Hq17olp8rvax870/TqFi5O79xTbLr6srOe+256f/PQfizP+zb8v3vafzy62bd/+ktzD+758W3nt2y/6UHFy1+6X5JyrbbXP9FN5prYibTdi+YanuO5UBvk2yqnPepr23IcfeqR4/pxN5bWt9WsZtyzi91m0lVGf8b0w7vH2Xzlqeb1+v05S1+v5t9f+r9w5aA/7+h158uTJ4mN/cVXx8t/8reLmW24tFtfY/+tMYsoxK9scZaJMGGCAAQYYYIABBhhggAEGkgGB60pwaRY76qKjfc91f13s/Nineg2enzx4qNi/+Y5i+/v+dNA5vvVdFxbbLvlwsffGLxUnts+t6CwWuO62sVmNztPjz28rtl3wgUHH5e6/vGFFPaYGY9a2s3i/dlFGeXCtz8D1sWPHikvf96GyM/mWL2+eyMWxnz1T7L7m+mLbpl8a23reJcWOD19RHPzGfcXC4SMr0k2B1o0YWO3CTzWNVJ55kDZeT1O+UXeD9N55QXHkkUdX1GM1H7Pwd35vDfK/NCBurQd70/dtXNdav5ZxrQhcd/tbI8p/Nb5f997wpUG7se389xfH/vGf1kS7sRq/vcY1vlr7598PfQWu49rSILk3vvk/F888++yacLFadSLd7tszZapMGWCAAQYYYIABBhhggIG1ZUDguhK4PnngYDnDLzq349+uT3y27GTrM3iUOg97y8PiYnH4ge8V2867dNDhWO3wj7/rgiCpI92M624ahsXjJ4qYjZt8HvnelmLrey4u62XSDseD93x7MBAh6nHHh/68OLn/wJroNJzF+7WLL8FZmXG9ZctjxW//zuuL3zvrD4q5uZ1jmVg4erTYc/1Ny2zVtRvRvlXLLHWk17Up1X39PbxtiaBeajNiu/fGm8s2Y9LyXTxxotj1qWuWfR9EQGpN1MXCQnFyz95BeRz9Pz8ptl/4wfJa1nqw14xrM667vAe7/n6N9GLAUv49EANguszzaqW1Gr+9Viuv46Y7CzOuI88x6/qjl19RDpT7+Cc+Vf497rXYf/jvAWWkjBhggAEGGGCAAQYYYIABBtaCAYHrSuC6Wmm9B42zWS99Ba4Pfev+ImZWR2fj1nMvKvbedEtx/Jnnyo7/Yz/5WbHvS5vLoHZdEETgenUbwnwW0ESB68XFYvdnvjCo2+ffeUG5FHmkW70X1sLfs3C/roVyGiWPMdv6woveV3Yif/oz14y1dGd08u/63HWDAEUsex4DJE7M7SzbjZidu/vqa8ugtsD16rYRdXU97cCAqMftS0vZx+z5+G7o6/up7vrGeS8C+fHdFdew1gPX41z3etvXjOvVb0em/X4d/F6J3xnnXlTec/H7Y609AifuncG1vOP8YqLfXkP+32O93Z+jXs8TTz5VvP5f/uvizP/wn8y6ZmRN/n/IqNbtt/rfWcpYGTPAAAMMMMAAAwwwsLYNCFwP6RiYtqOuixukzzwc++nPim2b3l92MEbwqWlZx1jud98tf1fOBs6vWeB6dRuIaTtPT+7dd2rp93ecXy5HXy4Dv4YDOH3eK7n79fD6H/7h6eL/ecP/W/6L1+Nc04Gv3j2Yab3r6s/XLgce6R3/p2eL/bfeviLtaQOr4+R1I+47bfnGwIM0yGXfzV8ZvF6LA14Erlf3O+qlur8Erle/Hqf9fj3w1b8vf0vGoJd4vEwMFonXMRDmpXLS1Xmm/e3VVT7WWzqHDx8u/vc73l0OmPv8tdetORfrrT5cz+q3q8ogPGfzAAAgAElEQVRYGTPAAAMMMMAAAwwwwAAD9QYErgWumzuGYjbutV8sOxcjSHHo2w8079tQjgLX9TdeVw3StJ2ngwDUuy8q5rf8YLA0fjxPffHosbHru6vrmjSdaTvWJz3vejtucXGxiFnWL//N3yo7kaMzedRrjGXOt1/6kVODXS75cHFi+9zIx6ZzTBtYTenY1rc/05bv7r+8oazfeKxAtEHbLjj1/PIITK21Mhe4rjey1upR4Hr163Ga79f4PRG/KyJYHY/gid8bW999UTnoJX6HrDVv0/72WmvX+1Lm95Yvby5/e7z9j/642Ldv35qz8VKWlXOtfrunjJUxAwwwwAADDDDAAAMMMNCPgZkLXJ/YMVfs+ux1RVp+NJYTjL/j/RQEjY6v1qX5FhaK+R8+UXaSpeUInz9nUzmz9MAdXy/i2aujgpumoy5mIR/4+j2nZrSes6nssIv8zF3xyWL+sR81Lo+YzhnXOcq/2L/tehb27S9nNZZLu6Z8nHdJseuT1zTOoI70jj+/bfDsz0mXgU11lp5xffLgoWLPF/+m2Pbe950qj3ddWNZT00zudF0RDNt/21fL5yMmG1E28TquY/7xpxrLM9JIgZp0HQNnS8tV5s7SOfNt3ikeacXSllGH5fMal8o0npN64PavjeRrUht5nuL1tJ2n8VzaKMeYaR2zr9OMqAhERf1Xz5f+TvWalofvq15TftI23TupntP7ddv8eZtxTw5rF1KwLlYgOP7sc7Vlc+xnz5RLr287/5Tv0ui7Liy2v/+j5RL7bUHcPICW3/ejXMuy6wubjz91qv1bWsa5zMe5F5Ve4z6KNmHZMZWBJ/sPHCj++//8X2Xn8fV/dUPrvtV08meml/dKJe3q/nV/p/s1+Rr3fi3TXFgojv74p8XuL9xYbLvkw4PHHZTfBUsz/qLM684f73Vxz+d1Wn5nLSwUh+77zqnAfrQb8b106UfK915YWGjMS8rjpG15Oj5tq+Wb3h9le3L/gSIC1mEq7olqQCqef92UTjpvMt1HvVbzltfRKF7z78UY2NW2zHFeNts/eHn9fTfl/Zra4rzNiNejXEteFtH+Hbz73rKtSo8GiXSiLYtAY5wnHgGQH7Nar+P7ZP/mO5bnJf2Gu/2u2hUc8vu1/E004Xd0XGP8ftz9mb88tYT80vd7+g0Z+Yr8NV177mnSez7VaWr/Jv1+LfO4uFj+zosluQe/naIsow286ZbWa6le4zjfr9Vj477JB7jkq73E75Dq/unvvF5L0z3Va8pP2o7722vwvfjOC4oj3/t+4/VG+vF7eNv5p1Y6it/LdW3MtPdraour7UZpdozv7PJevfX2IlZkinukTC98XfjB8h6Ke2mU77ZUrrFNy4X/9u+8vtiy5bHWssqP87qfjgTlrtwZYIABBhhggAEGGGCAAQZWw8BMBa7nn3x6sCx1tTMlAg8RcEnvN3WuRDAqOlnTfnXbCNKd2LZ9pM6QSTvqjj7948FzM+vyEB08u6+5vrYjOJ2z9riaYHbZSdvQ0XT4wYfLZxY3pnXOprKDuK5j7PBDjww6omI52EkApg7YCFzHs7LTUtTV/EQge/6Jp2rPkXcQVo8b/L1Unk3Bx9RJFwGXIw9vaXVWZyPvPN17w9+WZTbopKvUSTzbt62Dfxob1TrIy6bpnqgek/7Oryk9ZzJP7+A37qutjzg+1Wt0RB/Z8oPe6jVdS9qmeycFxtL7Tdu9N325bCvCXzyvvWm/vJN916euKeqCcwf//t5fBkcrJpLTtnzlAY+0f2zbjqnmN/IVz5xvspnSbWszIs3UcXz6K19dPPL9LY3lUj1//L176dnWW99zcTH/xD+MdWxKL92vEbg5fP9DY9+vkU5KI11z3TYGrBy677v1gYHDh8uyj+MmvefzOj3w9W+WbX5t3UQ7HEumLy42ltc0bXkq17RNZZMCY+n9UbaDNuKcTWXdxDEpvWEDXtJ+k7bD+bnq6jO911av1WvM6yjyV/28+nfcY9EGxLli0EEMqqruk/7OA1DR1qT307aL+zW1xena03aUa0n5OLln78B6Or5uO+53TEp/nG18n6THk9TlId6bu/wTxcKR+WXluez77OprJ/6OTt8hTeeO9yN/8z96ctn50zXmnia951OdTvP9GvmJ3yF7rr+p9fugvJYnR3sURCqbcb6TUrlEOx5tXxrEGG1d/O6I8oz2IAbEpH3zbV6vk7bDkV7K+6T1mucpXg/awWEDaZd+m48z4CUNINx67sW1zrq4X1NbXC2Pce7x4888dypg3fB7J9Ie1HfD/6NUyzX+jlnWf/Bf314OnPvMZ6+pdVF3nPd0lDDAAAMMMMAAAwwwwAADDDCwfgzMTOA6nnGXlpeNTud9f3NrGVyOIGK8jvdiuerUyVLXuVJ2cP3ZVaf2iUDm1dcWR//PT4roSIwOlgi+RidKpBEdnxHkHoY5dXaN01F39B9+PJhRvO28S8uARFxH5OPo40+e6vRemm1XF6yIfMW+6V8KxMfs3uPPPj94P33edB3RUZhmTkWAImZ/RznHcTHjY+7yj5dlEftEULlaFuWzS5c6pOrKu7p/3d+pAzaWhIwZGdERm/IRdRJB3hTIaQoIRgdhlGP4iDxFgDFde5TnziuvHqQRz9muC/6kTrqo/yiLCKAf+u6DZTphJC1hGTbqAgx552kcH/mJ/CZfsYx6vF921DV0Nkb5TGujWsbjdp7mx+fHpiD1stmUn/lCbVlGGrNSr/n1xOtx79ewlGb/twV64n4p258sWJefe9mz4MP4V/++bL/CaTiPlR7Cf2s7srBQRId0sp3u+9ZjKp3BseTq4J4P4/d9d3DPx7VGUDsCFVFOef6rr7/yd7eXncb/8Y1vLZ577vnWffNjFw4dLnZ85MryPoj7Ia4l/3zU19Per3GeSCPKYu7PryrCd2qDow2M2W/lDLHUsR4rNlTKsot7Pq4/tQvRfkUgYs8XbixNRD7CSfpOihlqTascTNuWV68tle8kdZSOzYPU8z94/NSyvw33Rzp/OnbSdriLek15Sdu8jiJ/6f227bD2IB174Pa7Tn0nvOeSMtCV3k/bLu7XmNWd2oz4PgpH8T006rXE92WYjGPiu7j8Xnv8yUGakcdoL+JemvR3QLreYduyPLJVUGJGf/q+j/s37pcwW9cmdnG/Rv7Ka42Vfj55TXm96TdTef5ox8+7tCyraD9ObF05ADL3NOk938X3awyKiMGRqV7n/uyqIu7TyF8qy7iH4/MYGBrvDaufcb9fB+k1BKmjXY7zR3sQv0cG+2dt8azUazVv+e+nke6L7NE7bc/1jsGXsQJMlEud867u1yjX1G4c+d6WIgaaxTlHupZYkeTo0VO/vaP+3nVh+Vihwb06t7NMJ64j7pemuq2Wafr7+PHjxSWXfqD8DfKud7+3OHLkSK2NtL/t+umUUJfqkgEGGGCAAQYYYIABBhhgIBmYmcB1mvlYPkv53u+s6KSIwGoKyDR1rhz46t2nZnQ0BGLjomMJ3TJQcM6mMniRCqJpO25HXd6Z09gZuLhYRIA1rqMtWJHyNG4e4rgIgKXZzU1B+piNM5jx8uErVgTy03nbOhVTHpu2qQM2rrVuVnXkYddVnyvLIg+E5OlF51pTQCf2y6+jqUMwBUzKfNR00sYSvGn527rZP3nnaaRRN6u6DN6ce6rzr27py9WwMXbnadYhnGb1xJKU+VLtaUns6HRvmk04K/WaO4nXyWxth2927em4fCnfGBhSOwgk73BuKJNUluUMqR88vqL9Ks+3sFDEUuJxznT+tu241xJppbrbFkHQZ+sDznG/xBLabee+4mMfLzuNY9bTOM+YzIM2o9ZBXT6mvV8jzbjGtiV9I+iUgtdpxYE8L13c83l5RFCwbqBSGbxZWmI1DSDJ89FFW56nF69T+Y4buM7vlxjskyznKxK0LZ+dzjtpOxx5n7Zeq2WR11Hkr/p53d/59TYNuFoWgGp4FEFX92vK49TXctXnGlcLCYcRxE3n6nqbO4/fCjEore4cUa4x8CTuz/zzLu7XSC++U+Mcedr568FvyIbBAXkdTHrPd/H9OhgU0dDuxDXlbWDdgL38uuP1JN9JcVx+v4T5lG6+IkEM8kjv59tZqdc8T/F6kt9eUSdpAFwYrqYZf+eD6erKJC/L+O0c3+d16Yxzv05yLXnd7b3x5sZBjvE4iMhLXR7b3ouZ1i//zd8qfu+sPyh27Z5sAFxb+j7TEcIAAwwwwAADDDDAAAMMMMDAbBuYicB1PsuzKXiUdwJHp3d1VkAEnMrnDcdzN2Op5obnbJbLfC4tJZ53vDdBHbejLpaPjOBVGYD/9gONnTXV5/01nT/eHzcPcUx6nt6woPNgplw8d++RR3+Z38XFYtfVny8DysPSaMt73gFbF8yNY2O2ctRplNmyPNQEGpvOlToEm5YnzgMmdcGhSDfNMK8GcuOzvPO0KcCezzats7UaNibpcIzrye+DaoAxLenZVh+zUq9VD1PdKw0z5SNYUz4ffumZvtVzxt/J17iBwLq00nuTXMskx6Tzpe38/Hxx7nmbyk7j2Mbf6bNh27KslmZ8Vl0NOzb/PJVntAuT3K95Wm2vU+AwZonH/Zvv28U9nwex6gbExPnyMsuDOikvU7flNe1oKt9xvebfW5FGymO+7G8MmIrgyuCz7PzpvH3WazVfeR0tu6Ys39Vj4u802K5p8FneNsfAlro0urhf83QnuZZJjsnP2dXr5Dxs1AXshp2ni/t12Dni83zwRvxGqq7wkpfnpPf8tN+v5ff70nL2w9rh+F0WZd5236ZymdTr4HdmZUWGvM7qfjPFefN9Jv3tlfLfth1Wr9Vj8/u7+v8j1X3T3/n/pzQNeEltZN3v0Egn9zVOe5XyULed5FomOabu3E3v3fLlzeVvkDP+zb8vfvLTf6xtP5uO9f5sdzyoH/XDAAMMMMAAAwwwwAADDDAwioGZCFwvG7l/w5caOyhSYDE62aodRfEs1bTUXQRC2y5+0DF08WWNM0rT8eN21KU8Rmd22+ykvDMuAu3pfHXbcfMQHakp6FwXkMnPkXeC7f/KnYN85PnrKnBdrbOUj7E7wCpLKsc1DFvqMNV527WkzuK6ffLyaOsIbqur1bAxdtktBWPyAFR1QEHbZ6nOUlnV3Ytpn7HzNkG9pnOlbVv5p32q27jetLxutSxi3xRQaXreZOyTZlyXA1ZqVoyonnOUvye5lhSILQ3XLH89ynkPHTpU/Mn/f07ZaRzLdcaynaMcF/vkdd52nwxLb9r7tS79CExEW5H/i5liZdCmZlnzLu75vH2N+qzLV36eFft00JbXnTOV77iB63J2eCwN++6LymWH87TbPkv7pfPWtbFpn9S2tO2T9o3tuPWaHxuv8zqK/FU/b/p7MBCpYXDFsMB2pNvF/Zrnb5JryWdw7vjTK+tXnRgSxM/zMOnr+B0U92JTcHJYuvl91Nb2jNuuRrp5mxGv2x7jkNfBivt5qRzzvNbtk+6BSb9f88Ew8bujrezSuWJJ51hqvm3fccsupZWC43V12/ZZHJ+XVZ/1mq4lbfPvuijD9P6wbWoX6spilMD2atyvk1xL/v9tsWJJ08zvYeXR9Pn9DzxY/gY5/ZWvLh75/paRy7cpPe/rFGGAAQYYYIABBhhggAEGGGBgbRmYicD1YDZGQwdwQpU62Oo68wazdpeeyRz7DPs3Sqf9WB11WZBh2Lnzz+s6LtM1x3asPERHX/ac2fw8w14v67TPrmXUAEKe5/Q61VlbGqN0msWM+wO3f+3UzNelZXWbrqeuEzEFTNrqvC2veedpW3011lVWnk35rnu/7VxRxqOUXaqLfNs2qzqfedS0AkJbWaXzjJK3aes1nSttG8u/LfCSLwVemS2az1xrKos4d/6M61geNp7tGGVULpG5uDhRp+sk1xIrD6RHKpTPnfz0teUqBrVLoDeUyZ49e4v/cvZ/KzuNY8nwVLajbPOASVuQYVha096vKf1YpnTXZ68rtp53Sev3QV27MPU9P2JQtO08nbTlNfU8SvmmMhxss+fU1s3OzAMZTcsOj3LeUdqWaep1cD1L5ZIHGiN/1c+b/s5XganOFh0lABXpdnG/5vmb6FryZ1xH4HjT+4t9X9pcLlkc3wV5+qv1Or8HJm038jTavjdHaVfDctTp1qXnbdd9N8d7dXkdpQ6G5XWUe6Dt+zUfyNmU9+r7bb/RUr2PUnZp37TNr7V6n8Q+abWc+N6MQWLpuLTNj++zXlN+0rat/NM+ddtlS4FXVmIYDIZpKIsyvVW4Xye5lmj/dl559eB7NR67ceCOrxfHn32ukyD29773SPkbJJYLj9d1Zem9tdXhoL7UFwMMMMAAAwwwwAADDDDAwDgGZiJwnTrpoiMtXjddQNt+qUO82hnX9nddsKJ67nE66vIOtrbzVj9r64yL/IyTh9g/7zitnqvt72qnfTrvKB2a1XJLf6c6a0tjWKdZBMPS86fb8p8+qzOUfLTVeVte87ptq69UZtUO7fz4lM9Rtm3nijIeVnapHpZt80DtxZfVrgyQyqup3trKKp1rWN66qNd0rrRtKv/0edN20Hkey9V/7/uDNiiffT5s+drDDz1SxKy1FfV6zqbyMQaHH3y4eGFhYZB2U17S+xNdy+Ji2XlcF3CJQHYEDuIZrdXlbdM5YztN4Dpve6r3QH6OYa+Tv0nv10g/yjv8rqiPmkFNdefJ79m2+7CtnvLyqLavqQzazpMfP8p1pH2azpXOOUr5pn3TNp53H8+9j3MMeyZ4U92Pct5hbcu09ZquJ23zMh5WbumYtE0rLcQzmSMgld4fDMartCfp88G2g/t1kFblu3+ca4lA+65PXlNE8DAZStu4tj3X31T+rsjP1eXr/B6oW357lHPlaUx6v0a7GO18GvyTyqBpW+d8FE/D8jrsHojyaPt+Tcc35bvu/abv+rzs29q6fL/8dR6orTNZDna6+LKR2pU+6zW/pnjdVv7VffO/84GBMcAtAsDp8zT7PNrZaG/T+9Vt1/frpNdS/ob78MdWtBnhK1ax2X/r7cXJg4car6N6XfnfAtc6M3IPXvPAAAMMMMAAAwwwwAADDGw8A+sucB3Lhcey0dF5OPTfnr1DA0njdNTlnZExO/P4s88Pz0Pk88DB1o6dcfIQN3HecRpLWg4th6WyivznjUBa2jo6oaIjNP9s1NepA7WtU7St0yyf8Rqd6vFcwFjOsrosYVsakddpAyZ53U7SeZof36WNYdddV0/5UpN1HdjV9+qezzor9Vq9vnHvlXR8PkMyD8oNAlPnv7+IWXhp/6btwuEjxaH7vlsu1b9t0weWd+ies6nYfc31K+w2pTXptUR6C/v2Fwfu+kax8y8+vXK28Tmbiv2b72gMXk/zjOt8hnBdMLjpWqvvT3u/5su/R9uz75bbipM7d6245rbz5PfsJPd8XFPeFtcFbcq6Ony4nLkZ9131PPnx07Tlk5Rv9ZjB4I6awH+1zWh6PmtbeafztbUtXdRrOk/a5mXcVEdp3+o2z09+bFoCvG5mejWN+Hua+zVPb5priaDt8X96tth70y3FjsuuWBG8jZnY808+PbQNzPMz6uu83egzcD2Y8bq0ZPmBr99T1k31Otra5lHqYFjb0nYPpLy0ffen4+O+PHj3vaP9Bty9Z+h3U9t1p3xVt+k7tNpG1P1dd78MK6t0vra8dVGv6Txp21b+aZ+m7eDxI++5pAyAx37577JoP5qOHbzf4f06zbXEYLwYDLfnur8un5NeHfwSdXpi2/bh11NZGeSur99dzrj+V2ecWfz4x+1L2A/KpJKG9zdep4Y6V+cMMMAAAwwwwAADDDDAwPoxMBOB68HspA6WCq979uY0YNs6w1akmy0HHTOET+4/MHZnzYo0J5hxvawT+BOfLSL4W5fusPcGy0m/4/xi2HMSm9JKHaiTBq6XLT97480rAk/pvLmhOGd6P22nDZhM3Xm6SjYm6XDMy6qu87j6Xt3ynrNSr6l+03as+7XSyZmePRkzhSIglS8FHAMmJrmPIiAeAeQ0Eztm8s0/+sMVPlP+8+0015KnE69j9ta+v7l1sPRtBNWP/eyZ2nzEM63j2daxROe73v3e4siRI7X7Vc9R/p0tJx2DiGLJ2tr9KmVf3Wfa+zUFS8rnkv/g8cY8DGa4DXnGddRFNY/p77Z6mjaI1VVbnvKatqOUb9o3bVNZVduHpr/rBryMct62tqWLek3Xk7aj1FHat7rNB1alRwnkM9OblkyvplP9e5z7NT92mmvJ0ylfLywUR3/801PLAS/NxN758U+XzxRfse+Q+3nY/vn3a90s5mHHx+d5GpPer2nAwbb4Dnj2+dp7vqzzT3y2HJRUl9dR6mBYXtvugVQWbd/9+VLh8ez5dMy027a2ri7tvKya2oll78cKBY88uiy/w8oqnbctb13UazpP2raVf9qnaZsPeEltRKz08vw7LyjK76wfPbmsDJrSWfb+FPfrNNeyLA8vvFAOfpj/4RPLVkmKFRuq+w37+5Yvby5/g/zbf/em4mc/Gz5ocFh6Pl8/HRfqUl0ywAADDDDAAAMMMMAAAxvDwEwErpcFJ2/4UmMHR9sM4LyjbtiSvuPgbusMq0sn5bG6dGjdvqO+N24eYuZUzFqKDsFhSw625SHvXKvroG07Nn02bQdsLL8cMziGDUiIztnUARrnTOdP22kDJl10nq6GjUk6HFOANoxGEDs62uv+xbOBo0y3XfCBMpCbyjK2s1KveZ7i9dj3ShZwGSxpuvR8yerf1XON83fMSIrBG1GeYXGUY6e5lqb0D937nbJzPPJRd5+k467/qxvKTuPfO+sPil27d4+U33Rsmk02zrWmY9N22vt19+dO2W0bQJQHVepmh3dxz08dxOqoLU/lmrajlG/aN7b5igRzf/aJcgZdXZsRz3pPy4nHDPEo4zydUc7b1rZ0Ua95fspr27W7iPqf1Gs14FT9u3q+cf4e9X5NaY7iLe076jZWN4lVKKJ86u6TUdMZtl+q27rvm2HHxufT3q8LR+aLucs/UV5nnd2UhxiQmB5dUve7aJQ6GJbXtnsg5aPtu79cfvvCD5bXsvvaLzYO+Etpjbod9zsp/w0Zvyfq2ox4L36HxO+RMBYDZPL8DCurtG9T3rqq13SetG0r/7RP4zZ7XEs54GX/gSLqKa4/DYBpPDb7zVK3zyT361TX0pCf8jvjT68sr6nuPqnLe/7eFR/7ePkb5L//z/9V7D/QzSDgPH2vN0Ynh3pWzwwwwAADDDDAAAMMMMDA2jUwE4HrvFO8qdMmn/0YnTvVoMuyND7057XLO04CNc3UqFvCsC69fEnCvS0zhOuObXovdeiOmodIZxA8iiDcpDNuss61mAly6NsPLOtQbMpv/v60HbCD4999Udm5maedXg+zEftNGzCZtvM08rAaNvJBH3UzHFMZpW1+HTs+cmURMzrTZ9Vt1HfcazFwIGbf558P6iVb6jL/PF63dYYOjp+yXqvnHPd+zY/Pnz0ZgYt9X9pcXv80gz9S+qMEM9K+aZtmuG67+LLW512m/UfZttVJfvz9DzxYdhq//l/+6+KJJ59aVvf5fnWv8xmn2y75cHFi+9xYx0ea096vKYjRFrgeDExoCMjl90qkV3et8V46V13n/Cj1Puw8nbTlleBCmrnctKR39VpzN62rb+SB9osvKyKAlqc1C/Wa5ydej71Eb6Us8+P33vC3gyBv9fm11fOO8nde7tFmDjsmD6rG74Zh+4/6+Sj1NmpaTfsNnL/j/PI50037Nb0/7D5KxzXdr/nxbYHrNDAhvhtX654ffD9O+P1aDsr51DXl91fb7PFUJqNux/1+zVftafv9mK8sUS3TvF4maYfz46ep12oZjfvbq3p8evRCDMoM+9uXnvPdxcDbce/XGGAQA0bC9P6v3NlZu9F0r1XLovp3rPISq73Eqi8fuuyjxcmTJzvLU/Vc/l67HRjqTt0xwAADDDDAAAMMMMAAA+vbwEwErgNZmgVaBkjv/c6KTopD37p/2TMX6zpxD3z17jLIFoG2WJqu+hzkAeaFheLIlh8Uh77z4IrzDPZZ6pxOHfzDlpxNx0UQdeeVV5cdQDHD8vCDDzeeI56HG8sIx3Ml0/F129QJ1bbcdvW4k3v2nnre3FJQ5ujTP248Rzxfc//ffbU22B8z6OLZltGhFQG06Kyrniv+juuOAHmklX8+bQdsPM86LbNcOxBgcbHYf+vtp+p96dmrdR1vqQzbZoy15TXv/Jyk8zSVUdc28qDJrqs+12x+yXPe2Rqd0HldVV8v2/czX1g2a6utrFI6bUGXruo1nSttx71f03Fpm4InsaR3miE9yoy1Iw9vWWE/pRnb6KSONOM+GmWAQRyTVhEoVxvY8oPWuor9I/Be5uNw89LegzayZknWPL/PPfd88R/f+Nay4zieNZl/NsrrwXnecX65+kO0dXXHndgxVzuwZtr7NdqAKOumdjsGOqXZlWXbdt6lRZjM89jFPd9F4Lqrtjy/thQ0ie/KUQY2pfsqvp+rS/nm6cbrwb41A15moV6r+c0HrMRAh+p3WHX/ur/T75fwFvdreZ/fftcyT9XjurxfU9rLVhH44OUjXUvcg0cff7KIZ9WmdPJt/ptmnMFzeRqjvM6dx+zbMk+VQQJlOuUzdZ8sYiZtnm4X92saJNgU7I1n9cZgnKjfst2oGVTUxT0/7fdrlEv+nRMB22jz8vIavF5cLJeEjzZ78F5duWf3dlO7Wj0+BbpHGSCT9q3+zp2Veq1e27i/vVYcf+BgObu6dHT++8rfsKOs1LQa92s+4KV8HMDx5StlVPMef8fvw3iUQKzwVPd5fj/XPW6m7pj03rS/P1I6tuu7A0P9ql8GGGCAAQYYYIABBhhgYH0bmJnAdbm04aUfWQo2XFQ+jzU6CePf4Nms77xgEKCMjr0qzmowYvsHL/e/ByMAABNGSURBVC8O3ffdctZXdCbOP/FUseeLfzMIxEYnejWN6t/5UocRuI3n00Za5b/de2oDhXGetOxhBAZ2X31t2Qkbx8R1Rt4jyJiCYxHgq543/3sQZIgg9AcvX7m8c0OHZB7s33ruRUV0DMYswzIf27aXAYtY9jXy2BbQraaz96ZbiuPPPFemE9sIHMfxdWlM2wGbd5qXZXnN9YNzR8d2GQiO529mNqpLTUZZThsw6aLzNPLRtY1IMwVNonxiwEbcMwOjFRttQaXcXLzOr7kasJiVeq3meZL7NU+jbIeWZj5Fh/KwJerTseXMonM2FXE/Hbj7noHRuD/ifon7L9JLz89Ox7VtW69l1+4Vz5pN9RXtSrQvZdu3ZCHu+3Lp96Vn1TatbJHykz/nepIZTzFoaNfSct0pwBODAqJ8w2bcu/F52S7VzGae9n5dNuDmvEvLAUJx7vgX+Yi2PPJVthsN9ZzKM/abdLBKXGu0i5FG0/fNKOeptsGTtuWpfvMVSuK7KpakHrQZFVt5YDdmBUYZpnTqtvmAlchnvs8s1Guen/Q6DViJeop7J32/RZmUgeyG4Ew6Pr/mSGOU5a5TvXdxv6Z8xLbtWiKYVA1Qp7zHALX4fZT/xonZxWlZ7Liu+K7Jz9X16zLYutRWluXyuetW/GaJ30DVWbmRj1Sekc9J79c82BttRMwSDgPxnXrgjq8PBtGldqOunru456f9fo3yqLbB0Q7F93/6fRDfCbF6QmoL28os1XPrd1Ll93Ae2K2rr5Rm2uazsyOf6f1ZqdeUn3w7zm+v/Lj0OrWHYTb+tc0IT8es1v3adi11bWAyGn7CUfy2Le+V6nfs0qNXUv5H2d5z77fKQXNn/of/VDzzbPvA3lHSs8/67shQv+qXAQYYYIABBhhggAEGGFifBmYmcB3A5p98ehBUTh05aRud69FxmGZBRqdJHcrokN/1yWsGAe50fN22bmZuXZoxGzmCgtU0qjND8mNjhnPqEKwel/8ds4mrM/3ydOJ1tQMyPz5et3U4xjOi04zl6nH535HXWOK3eu7y78XFsjM8lX1+XP56NQLXcf4IIrSVZXRw77vltrIzO/JT1/mXOgjr8piuOXXE1dVrF52n6Txd2og0I5C0/QMfXeEzyiK3kc/Gq+twT/nLt2m56moAt62s0vGpgzXyUXe/dlGv6Vz5dpL7dXB8vjz+GM+bjHLO74W61xEYipUeBudqmNWWf54HLKtpVss0N1rdN/87lj5vWjkhP/e3vv2d4vRXvrqI51zPDQlW5sel1zHLevfn/6q27czzkxtNx057v0Y6B//+3sEs9/x86XUZyLnrG4P2sTrzOC/PujymvKa6rwvOdBHESufppC3PzIWfNKAilUna5rYiWJWWka1rW1P+0jafvVddqn0W6jXlM99GXe+84pO193BdvebHxusYYBVLg6fy2/Wpa1Y833vFMYcPD76z0nF121Hv15R+2++Fuu+/vJ2uO3/5XgzA+8wXiqaVE9K5u9iO4ryuTrq4X+M7snxERM3vvVQ2YTqtKFH9Xozr7+Kej/svzlf3WySVcV5v+f2aPo9tWIjBCHW/X9P1pO2oS8uP+v0az61Oqw/UDSbM8xmvm9qZWanXan7j71F/e9UdG+/lj6uIOopBJ037pvfzek91t2I7wf1aHfibp1l3vyWj+X4rXp+zqbyfwmHK/7BtLAv+0cuvKAPXF170vuLYsWMjHzssbZ+vz44M9apeGWCAAQYYYIABBhhggIH1aWCmAteBLJbBi5mBW8+75FTH3bkXlX/H+3nHVlNHXQl1cbGYf/ypMoC9LZbgW5rNEJ302z9weTlD+MTW7Y1L3K3AvrhYBpxipk/eAdjWqRhplMtnf/Nb5XKAeYAg8hSd3DEjMjqLVpwvCy6kzyKtCNzHzNc8D3FtbUGVOP7kwUPF/s13FNvf/9FfBnLO2VQOEoggf8yqill16VxN25h1UaaT5yHSufiyYu+NX6p9lm3q3Gorq7wjrqle4xpOzZY/9Ry+VKfRqV8GAxcXBzOP655JPG3ApIvO07xcu7SR6njPF24c3DepfHIbZSfr0kzTuo7IPH/pdT7bP+98npV6Tflctp3wfk1pLLvmEWcYxn0cZbL7M395aoZtCnyk++OmW0ZatjflYbCNtuyxH51aUjSludSe1d0rMfgkArARYCyX+F86JgZ3xP0fz88cNfi0b9++4u1/9MdlB3LMgBrkqaZ9avxscbEMku++5vpi26Zf3rvRHsas78hrXX6mvV9TfiJAH8uU5u1vtJ8xqza+U6LeIh9lO3rtF5d9J3Rxz3cRxErXEtuu2vKUZpRPtAXhI7UZsc1t5TMho17SsW3bwbK/lWfYz0K9NuU72uRYPSR3GmUxaluZr2YxSgAq8tHl/ZpfV/l74favlSs85PVaF7iOGdjhIK497oX02yuOi9fxW6X8jm1YSjw/b1evm5zH75/4DVK3nHsX92uZ/9TmfuRjy+6LuEfCdeQtn3lcfSZxF/d8V9+vqT6O/eyZItrgWPEj/X6M64llz+N3VTmQadT6HfH7Nd3rcb5oQ1Jemrb5yg75wLpZqdemfJe/TYf89mo6Nr/mkVdjWcX7tbyWWJXqvb/8/6amNjCC0THYOH4Xxv9X5d+x8f848f8WbUuJN5XJjh1zxVvf9l/KQXMxeK5pP++vz04J9apeGWCAAQYYYIABBhhggAEGkoGZC1ynjNlCygADfRhIAai2wRZ95KuPc974139r5tM4gXr7bthAQwrWj7Kceh/3snP6PmVgtgzky6nHigZNz4veSPV2x51fK39z/O93vLs4fPjwhv0+2Uh17lpnq11SH+qDAQYYYIABBhhggAEGZsWAwLVAg44hBhhYMhAzFdOSv7GNv2else4jHzt37iz+2//3P4rf/p3XF1u2PLahy6KP8nfOtfFjMWZOx0ofMTtxd2XmvjpcG3WontTTS20gVjsqn5f+zgvKlY9e6vPP2vnSKi/xiJKJV3nxe97vNAYYYIABBhhggAEGGGCAAQbWhQGBa5DXBeRZ64CTn7XZCT7oSB7xeZMboZ6/dtfd5bKdl77vQ5436fvC90WNgVguulxa+9yLi/kfPamMaspoI7SVrnFtfu/3UW/5ILlYon/Uxwb1kdeX6pzpt8amCy8p5ufntaPaUQYYYIABBhhggAEGGGCAAQY2sAGB6w1c+S9VZ5Tz6MydWQMLC8XJPXuLeC5pBK3jGbARgIpnqcb7M5vvl7Ddmp8/Wjz8yPeL+x94sNi7d58yeQnLnr/ZbDvj+a4xyzrajYN331vEYwWi3dh55dUbfpUGZmfTrHrpv17ied3RZpzYtr3Y/fm/OvW88XM2FQe+eveG/149fvx48eijPyi+e/+Dxdzczg1fHu7X/u9XdaAOGGCAAQYYYIABBhhggIF+DQhcC0LoIGJgwxqITuQUrI7AUzlr8l0XFoe+df+GLRNfyv1+KSv/2S//+aeeHgSrU7ux7b3vK+afeEq74fuUAQZqDez78m3lb4zUZsR27vJPmG3NS60XvwVm/7eAOlJHDDDAAAMMMMAAAwwwwMDqGRC41mGiw4SBDWtgWeD6nE1FLNk5/8MnNmx5+LJdvS9bZbt+yjYPXG9914XFzo99qjj+T89qN3yXMsBAo4E8cB0DXfZ88W+LhcNHGvf3nbF+vjPUpbpkgAEGGGCAAQYYYIABBhhgYDwDAtc62XSaMcAAAwwwwAADDDDAAAMMMMAAAwwwwAADDDDAAAMMMMAAA70aELgGsFeARpqMN9JEeSkvBhhggAEGGGCAAQYYYIABBhhggAEGGGCAAQYYYICB9WhA4FrgWuCaAQYYYIABBhhggAEGGGCAAQYYYIABBhhggAEGGGCAAQYY6NWAwDWAvQJcj6NBXJNRTgwwwAADDDDAAAMMMMAAAwwwwAADDDDAAAMMMMAAAwyMZ0DgWuBa4JoBBhhggAEGGGCAAQYYYIABBhhggAEGGGCAAQYYYIABBhjo1YDANYC9AjTSZLyRJspLeTHAAAMMMMAAAwwwwAADDDDAAAMMMMAAAwwwwAADDKxHAwLXAtcC1wwwwAADDDDAAAMMMMAAAwwwwAADDDDAAAMMMMAAAwwwwECvBgSuAewV4HocDeKajHJigAEGGGCAAQYYYIABBhhggAEGGGCAAQYYYIABBhhgYDwDAtcC1wLXDDDAAAMMMMAAAwwwwAADDDDAAAMMMMAAAwwwwAADDDDAQK8GBK4B7BWgkSbjjTRRXsqLAQYYYIABBhhggAEGGGCAAQYYYIABBhhggAEGGGBgPRoQuBa4FrhmgAEGGGCAAQYYYIABBhhggAEGGGCAAQYYYIABBhhggAEGejUgcA1grwDX42gQ12SUEwMMMMAAAwwwwAADDDDAAAMMMMAAAwwwwAADDDDAAAPjGRC4FrgWuGaAAQYYYIABBhhggAEGGGCAAQYYYIABBhhggAEGGGCAAQZ6NSBwDWCvAI00GW+kifJSXgwwwAADDDDAAAMMMMAAAwwwwAADDDDAAAMMMMAAA+vRgMC1wLXANQMMMMAAAwwwwAADDDDAAAMMMMAAAwwwwAADDDDAAAMMMNCrAYFrAHsFuB5Hg7gmo5wYYIABBhhggAEGGGCAAQYYYIABBhhggAEGGGCAAQYYGM+AwLXAtcA1AwwwwAADDDDAAAMMMMAAAwwwwAADDDDAAAMMMMAAAwww0KsBgWsAewVopMl4I02Ul/JigAEGGGCAAQYYYIABBhhggAEGGGCAAQYYYIABBhhYjwYErgWuBa4ZYIABBhhggAEGGGCAAQYYYIABBhhggAEGGGCAAQYYYICBXg0IXAPYK8D1OBrENRnlxAADDDDAAAMMMMAAAwwwwAADDDDAAAMMMMAAAwwwwMB4BgSuBa4FrhlggAEGGGCAAQYYYIABBhhggAEGGGCAAQYYYIABBhhggIFeDQhcA9grQCNNxhtporyUFwMMMMAAAwwwwAADDDDAAAMMMMAAAwwwwAADDDDAwHo0IHAtcC1wzQADDDDAAAMMMMAAAwwwwAADDDDAAAMMMMAAAwwwwAADDPRqQOAawF4BrsfRIK7JKCcGGGCAAQYYYIABBhhggAEGGGCAAQYYYIABBhhggAEGxjMgcC1wLXDNAAMMMMAAAwwwwAADDDDAAAMMMMAAAwwwwAADDDDAAAMM9GpA4BrAXgEaaTLeSBPlpbwYYIABBhhggAEGGGCAAQYYYIABBhhggAEGGGCAAQbWowGBa4FrgWsGGGCAAQYYYIABBhhggAEGGGCAAQYYYIABBhhggAEGGGCgVwMC1wD2CnA9jgZxTUY5McAAAwwwwAADDDDAAAMMMMAAAwwwwAADDDDAAAMMMDCeAYFrgWuBawYYYIABBhhggAEGGGCAAQYYYIABBhhggAEGGGCAAQYYYKBXAwLXAPYK0EiT8UaaKC/lxQADDDDAAAMMMMAAAwwwwAADDDDAAAMMMMAAAwwwsB4NCFwLXAtcM8AAAwwwwAADDDDAAAMMMMAAAwwwwAADDDDAAAMMMMAAA70aELgGsFeA63E0iGsyyokBBhhggAEGGGCAAQYYYIABBhhggAEGGGCAAQYYYICB8QwIXAtcC1wzwAADDDDAAAMMMMAAAwwwwAADDDDAAAMMMMAAAwwwwAADvRoQuAawV4BGmow30kR5KS8GGGCAAQYYYIABBhhggAEGGGCAAQYYYIABBhhggIH1aEDgWuBa4JoBBhhggAEGGGCAAQYYYIABBhhggAEGGGCAAQYYYIABBhjo1YDANYC9AlyPo0Fck1FODDDAAAMMMMAAAwwwwAADDDDAAAMMMMAAAwwwwAADDIxnQOBa4FrgmgEGGGCAAQYYYIABBhhggAEGGGCAAQYYYIABBhhggAEGGOjVgMA1gL0CNNJkvJEmykt5McAAAwwwwAADDDDAAAMMMMAAAwwwwAADDDDAAAMMrEcDAtcC1wLXDDDAAAMMMMAAAwwwwAADDDDAAAMMMMAAAwwwwAADDDDAQK8GysD1z3/+814zsR5HBLgmI10YYIABBhhggAEGGGCAAQYYYIABBhhggAEGGGCAAQYYYICB0QwIXBs5YdACAwwwwAADDDDAAAMMMMAAAwwwwAADDDDAAAMMMMAAAwww0KuBMnD94osv9poJowxGG2WgnJQTAwwwwAADDDDAAAMMMMAAAwwwwAADDDDAAAMMMMAAAwysRwNl4LooisJy4YCvR+CuiWsGGGCAAQYYYIABBhhggAEGGGCAAQYYYIABBhhggAEGZttAxKoHgWuzrme7stxM6ocBBhhggAEGGGCAAQYYYIABBhhggAEGGGCAAQYYYIABBtajgYhVDwLXMev6F7/4hSXDrV3PAAMMMMAAAwwwwAADDDDAAAMMMMAAAwwwwAADDDDAAAMMMPCSGIgYdfy3LHAteG2ExnocoeGauGaAAQYYYIABBhhggAEGGGCAAQYYYIABBhhggAEGGGBg9gykoHVt4DrejKnYnnk9exXnZlInDDDAAAMMMMAAAwwwwAADDDDAAAMMMMAAAwwwwAADDDCw1g1ELDpi0vl//xfezX6+prpdkwAAAABJRU5ErkJggg==;clipPath=inset(42.86% 49.67% 10.71% 1%);" vertex="1" parent="1">
          <mxGeometry x="440" y="580" width="341.48" height="30" as="geometry" />
        </mxCell>
        <mxCell id="493oTweiqtYjREhy8k81-32" style="edgeStyle=orthogonalEdgeStyle;rounded=0;orthogonalLoop=1;jettySize=auto;html=1;exitX=0.5;exitY=1;exitDx=0;exitDy=0;entryX=0.5;entryY=0;entryDx=0;entryDy=0;" edge="1" parent="1" source="493oTweiqtYjREhy8k81-23" target="493oTweiqtYjREhy8k81-30">
          <mxGeometry relative="1" as="geometry" />
        </mxCell>
        <mxCell id="493oTweiqtYjREhy8k81-23" value="通知EX删除对应的路由" style="rounded=0;whiteSpace=wrap;html=1;fillColor=#dae8fc;strokeColor=#6c8ebf;" vertex="1" parent="1">
          <mxGeometry x="255" y="599" width="130" height="45" as="geometry" />
        </mxCell>
        <mxCell id="493oTweiqtYjREhy8k81-26" value="根据服务节点构建删除路由任务，交由线程池删除" style="whiteSpace=wrap;html=1;aspect=fixed;dashed=1;fillColor=#f5f5f5;fontColor=#333333;strokeColor=#666666;" vertex="1" parent="1">
          <mxGeometry x="70" y="585" width="80" height="80" as="geometry" />
        </mxCell>
        <mxCell id="493oTweiqtYjREhy8k81-29" value="无论成功失败只要没有异常都会往下走" style="rounded=1;whiteSpace=wrap;html=1;dashed=1;fillColor=#f5f5f5;fontColor=#333333;strokeColor=#666666;" vertex="1" parent="1">
          <mxGeometry x="450" y="610" width="210" height="40" as="geometry" />
        </mxCell>
        <mxCell id="493oTweiqtYjREhy8k81-33" style="edgeStyle=orthogonalEdgeStyle;rounded=0;orthogonalLoop=1;jettySize=auto;html=1;exitX=0.5;exitY=1;exitDx=0;exitDy=0;entryX=0.5;entryY=0;entryDx=0;entryDy=0;" edge="1" parent="1" source="493oTweiqtYjREhy8k81-30" target="493oTweiqtYjREhy8k81-31">
          <mxGeometry relative="1" as="geometry" />
        </mxCell>
        <mxCell id="493oTweiqtYjREhy8k81-30" value="视频流需要通知算子停止分析任务，向RM请求算子信息" style="rounded=0;whiteSpace=wrap;html=1;fillColor=#dae8fc;strokeColor=#6c8ebf;" vertex="1" parent="1">
          <mxGeometry x="250" y="674" width="135" height="50" as="geometry" />
        </mxCell>
        <mxCell id="493oTweiqtYjREhy8k81-36" style="edgeStyle=orthogonalEdgeStyle;rounded=0;orthogonalLoop=1;jettySize=auto;html=1;exitX=0.5;exitY=1;exitDx=0;exitDy=0;entryX=0.5;entryY=0;entryDx=0;entryDy=0;" edge="1" parent="1" source="493oTweiqtYjREhy8k81-31" target="493oTweiqtYjREhy8k81-34">
          <mxGeometry relative="1" as="geometry" />
        </mxCell>
        <mxCell id="493oTweiqtYjREhy8k81-31" value="grpc通知视频算子停止相关任务" style="rounded=0;whiteSpace=wrap;html=1;fillColor=#dae8fc;strokeColor=#6c8ebf;" vertex="1" parent="1">
          <mxGeometry x="250" y="753" width="140" height="47" as="geometry" />
        </mxCell>
        <mxCell id="493oTweiqtYjREhy8k81-37" style="edgeStyle=orthogonalEdgeStyle;rounded=0;orthogonalLoop=1;jettySize=auto;html=1;exitX=0.5;exitY=1;exitDx=0;exitDy=0;entryX=0.5;entryY=0;entryDx=0;entryDy=0;" edge="1" parent="1" source="493oTweiqtYjREhy8k81-34" target="493oTweiqtYjREhy8k81-35">
          <mxGeometry relative="1" as="geometry" />
        </mxCell>
        <mxCell id="493oTweiqtYjREhy8k81-34" value="修改MySQL 为逻辑删除" style="rounded=0;whiteSpace=wrap;html=1;fillColor=#dae8fc;strokeColor=#6c8ebf;" vertex="1" parent="1">
          <mxGeometry x="250" y="830" width="140" height="40" as="geometry" />
        </mxCell>
        <mxCell id="493oTweiqtYjREhy8k81-35" value="发布状态更新事件（MQ）" style="rounded=0;whiteSpace=wrap;html=1;fillColor=#dae8fc;strokeColor=#6c8ebf;" vertex="1" parent="1">
          <mxGeometry x="257.5" y="900" width="120" height="40" as="geometry" />
        </mxCell>
        <mxCell id="493oTweiqtYjREhy8k81-38" value="返回删除成功" style="strokeWidth=2;html=1;shape=mxgraph.flowchart.terminator;whiteSpace=wrap;fillColor=#d5e8d4;strokeColor=#82b366;" vertex="1" parent="1">
          <mxGeometry x="268" y="970" width="100" height="40" as="geometry" />
        </mxCell>
        <mxCell id="493oTweiqtYjREhy8k81-39" style="edgeStyle=orthogonalEdgeStyle;rounded=0;orthogonalLoop=1;jettySize=auto;html=1;exitX=0.5;exitY=1;exitDx=0;exitDy=0;entryX=0.5;entryY=0;entryDx=0;entryDy=0;entryPerimeter=0;" edge="1" parent="1" source="493oTweiqtYjREhy8k81-35" target="493oTweiqtYjREhy8k81-38">
          <mxGeometry relative="1" as="geometry" />
        </mxCell>
      </root>
    </mxGraphModel>
  </diagram>
</mxfile>
